<?xml version="1.0" encoding="utf-8"?>
<!-- Generator: Adobe Illustrator 23.0.5, SVG Export Plug-In . SVG Version: 6.00 Build 0)  -->
<svg version="1.1" id="Layer_1" xmlns="http://www.w3.org/2000/svg" xmlns:xlink="http://www.w3.org/1999/xlink" x="0px" y="0px"
	 viewBox="0 0 40 40" style="enable-background:new 0 0 40 40;" xml:space="preserve">
<style type="text/css">
	.st0{fill:#F8BC31;}
</style>
<g>
	<path class="st0" d="M0,38.4C0,26.1,0,13.9,0,1.6C0.3,0.8,0.8,0.3,1.6,0c12.3,0,24.6,0,36.9,0c0.8,0.3,1.3,0.8,1.6,1.6
		c0,12.3,0,24.6,0,36.9c-0.3,0.8-0.8,1.3-1.6,1.6c-12.3,0-24.6,0-36.9,0C0.8,39.7,0.3,39.2,0,38.4z M38.8,6.3c-12.5,0-25,0-37.5,0
		c0,0.2,0,0.3,0,0.5c0,10.4,0,20.8,0,31.1c0,0.8,0.1,0.9,0.9,0.9c11.9,0,23.8,0,35.7,0c0.8,0,0.9-0.1,0.9-0.9c0-10.4,0-20.8,0-31.1
		C38.8,6.6,38.8,6.4,38.8,6.3z M1.3,5c12.5,0,25,0,37.5,0c0-1,0-1.9,0-2.8c0-0.8-0.1-0.9-0.9-0.9c-11.9,0-23.8,0-35.7,0
		c-0.1,0-0.2,0-0.4,0c-0.3,0-0.5,0.2-0.5,0.5C1.2,2.8,1.3,3.9,1.3,5z"/>
	<path class="st0" d="M11.9,22.8c0.6-0.7,1.3-1.3,1.9-1.9c0.2-0.2,0.4-0.3,0.6-0.3c3.4,0,6.9,0,10.3,0c0.1,0,0.1,0,0.2,0
		c0,0.4,0,0.8,0,1.2c-0.1,0-0.3,0-0.4,0c-3.2,0-6.3,0-9.5,0c-0.3,0-0.6,0.1-0.8,0.3c-0.6,0.6-1.2,1.3-1.9,1.9
		c-0.4,0.4-0.7,0.4-1.1,0c-0.7-0.7-1.3-1.3-2-2C9.2,22,9,21.9,8.8,21.9c-0.4,0-0.8,0-1.2,0c-1.1,0-2-0.9-2-2c0-2.9,0-5.7,0-8.6
		c0-1.1,0.9-1.9,1.9-1.9c8.3,0,16.6,0,24.9,0c1,0,1.9,0.9,1.9,1.9c0,2.9,0,5.8,0,8.7c0,1-0.9,1.9-1.9,1.9c-0.4,0-0.8,0-1.2,0
		c0-0.4,0-0.8,0-1.2c0.4,0,0.7,0,1.1,0c0.6,0,0.7-0.2,0.7-0.7c0-2.9,0-5.7,0-8.6c0-0.5-0.2-0.7-0.7-0.7c-8.3,0-16.6,0-24.8,0
		c-0.5,0-0.7,0.2-0.7,0.7c0,2.9,0,5.7,0,8.6c0,0.5,0.2,0.7,0.7,0.7c0.5,0,1.1,0,1.6,0c0.3,0,0.6,0.1,0.8,0.4
		C10.6,21.6,11.2,22.2,11.9,22.8z"/>
	<path class="st0" d="M15,24.4c0-0.4,0-0.8,0-1.2c0.2,0,0.3,0,0.4,0c3.2,0,6.4,0,9.5,0c0.3,0,0.5-0.1,0.6-0.3
		c0.6-0.7,1.3-1.3,1.9-1.9c0.4-0.4,0.7-0.4,1.2,0c0.7,0.7,1.3,1.3,2,2c0.1,0.1,0.3,0.2,0.4,0.2c0.4,0,0.8,0,1.2,0c1.1,0,2,0.9,2,2
		c0,2.8,0,5.7,0,8.5c0,1.1-0.9,2-2,2c-8.2,0-16.5,0-24.7,0c-1.2,0-2-0.9-2-2c0-2.8,0-5.6,0-8.4c0-1.2,0.9-2,2-2c0.3,0,0.7,0,1.1,0
		c0,0.4,0,0.8,0,1.2c-0.4,0-0.8,0-1.2,0c-0.5,0-0.7,0.2-0.7,0.7c0,2.9,0,5.8,0,8.7c0,0.5,0.2,0.7,0.7,0.7c3.6,0,7.2,0,10.8,0
		c4.6,0,9.2,0,13.9,0c0.7,0,0.9-0.1,0.9-0.9c0-2.8,0-5.5,0-8.3c0-0.7-0.1-0.8-0.8-0.8c-0.5,0-1,0-1.4,0c-0.3,0-0.6-0.1-0.8-0.3
		c-0.6-0.6-1.2-1.3-1.9-1.9c-0.4,0.4-0.9,0.8-1.2,1.2c-0.6,0.8-1.4,1.1-2.5,1c-3-0.1-6,0-9,0C15.3,24.4,15.2,24.4,15,24.4z"/>
	<path class="st0" d="M20,12.5c3.4,0,6.9,0,10.3,0c0.7,0,0.9,0.2,0.9,0.9c0,0.7,0,1.4,0,2.1c0,0.6-0.2,0.8-0.8,0.8c-7,0-14,0-21,0
		c-0.5,0-0.8-0.2-0.8-0.8c0-0.7,0-1.5,0-2.2c0-0.6,0.2-0.8,0.8-0.8C13,12.5,16.5,12.5,20,12.5z M30,13.8c-6.7,0-13.3,0-20,0
		c0,0.4,0,0.8,0,1.2c6.7,0,13.3,0,20,0C30,14.6,30,14.2,30,13.8z"/>
	<path class="st0" d="M20,32.5c-3.5,0-6.9,0-10.4,0c-0.7,0-0.8-0.2-0.8-0.9c0-0.7,0-1.4,0-2.1c0-0.5,0.2-0.7,0.7-0.7c7,0,14,0,21,0
		c0.5,0,0.7,0.2,0.8,0.8c0,0.7,0,1.5,0,2.2c0,0.6-0.2,0.8-0.8,0.8C27,32.5,23.5,32.5,20,32.5z M10,31.2c6.7,0,13.3,0,20,0
		c0-0.4,0-0.8,0-1.2c-6.7,0-13.3,0-20,0C10,30.4,10,30.8,10,31.2z"/>
	<path class="st0" d="M8.8,18.7c0-0.4,0-0.8,0-1.2c4.6,0,9.1,0,13.7,0c0,0.4,0,0.8,0,1.2C17.9,18.7,13.4,18.7,8.8,18.7z"/>
	<path class="st0" d="M17.5,27.5c0-0.4,0-0.8,0-1.2c4.6,0,9.1,0,13.7,0c0,0.4,0,0.8,0,1.2C26.7,27.5,22.1,27.5,17.5,27.5z"/>
	<path class="st0" d="M3.7,8.7c-0.4,0-0.8,0-1.2,0c0-0.4,0-0.8,0-1.2c0.4,0,0.8,0,1.2,0C3.7,7.9,3.7,8.3,3.7,8.7z"/>
	<path class="st0" d="M36.3,8.7c0-0.4,0-0.8,0-1.2c0.4,0,0.8,0,1.2,0c0,0.4,0,0.8,0,1.2C37.1,8.7,36.7,8.7,36.3,8.7z"/>
	<path class="st0" d="M25,18.7c-0.4,0-0.8,0-1.2,0c0-0.4,0-0.8,0-1.2c0.4,0,0.8,0,1.2,0C25,17.9,25,18.3,25,18.7z"/>
	<path class="st0" d="M26.3,17.5c0.4,0,0.8,0,1.2,0c0,0.4,0,0.8,0,1.2c-0.4,0-0.8,0-1.2,0C26.3,18.3,26.3,17.9,26.3,17.5z"/>
	<path class="st0" d="M12.5,26.3c0.4,0,0.8,0,1.2,0c0,0.4,0,0.8,0,1.2c-0.4,0-0.8,0-1.2,0C12.5,27.1,12.5,26.7,12.5,26.3z"/>
	<path class="st0" d="M15,27.5c0-0.4,0-0.8,0-1.2c0.4,0,0.8,0,1.2,0c0,0.4,0,0.8,0,1.2C15.8,27.5,15.4,27.5,15,27.5z"/>
	<path class="st0" d="M2.5,37.5c0-0.4,0-0.8,0-1.2c0.4,0,0.8,0,1.2,0c0,0.4,0,0.8,0,1.2C3.3,37.5,2.9,37.5,2.5,37.5z"/>
	<path class="st0" d="M37.5,37.5c-0.4,0-0.8,0-1.2,0c0-0.4,0-0.8,0-1.2c0.4,0,0.8,0,1.2,0C37.5,36.7,37.5,37.1,37.5,37.5z"/>
	<path class="st0" d="M3.7,3.7c-0.4,0-0.8,0-1.2,0c0-0.4,0-0.8,0-1.2c0.4,0,0.8,0,1.2,0C3.7,2.9,3.7,3.3,3.7,3.7z"/>
	<path class="st0" d="M6.2,2.5c0,0.4,0,0.8,0,1.2c-0.4,0-0.8,0-1.2,0c0-0.4,0-0.8,0-1.2C5.4,2.5,5.8,2.5,6.2,2.5z"/>
	<path class="st0" d="M37.5,2.5c0,0.4,0,0.8,0,1.2c-0.4,0-0.8,0-1.2,0c0-0.4,0-0.8,0-1.2C36.7,2.5,37,2.5,37.5,2.5z"/>
</g>
</svg>
