<?xml version="1.0" encoding="utf-8"?>
<!-- Generator: Adobe Illustrator 23.0.5, SVG Export Plug-In . SVG Version: 6.00 Build 0)  -->
<svg version="1.1" id="Layer_1" xmlns="http://www.w3.org/2000/svg" xmlns:xlink="http://www.w3.org/1999/xlink" x="0px" y="0px"
	 viewBox="0 0 40 40" style="enable-background:new 0 0 40 40;" xml:space="preserve">
<style type="text/css">
	.st0{fill:#F9BC33;}
</style>
<g>
	<path class="st0" d="M35.5,34.3c-0.4,2.3-0.6,2.5-2.8,2.5c-10.1,0-20.2,0-30.4,0c-1.8,0-2.3-0.5-2.3-2.3c0-8.4,0-16.7,0-25.1
		c0-2,0.5-2.4,2.4-2.4c0.5,0,1,0,1.4,0c0.3-1.2,0.3-2.4,0.8-3.3c0.2-0.4,1.3-0.4,2-0.4c2.5,0.2,1.3,2.3,1.7,3.6c2.3,0,4.7,0,7.2,0
		c0-0.7,0-1.3,0-2c0-1.1,0.5-1.5,1.6-1.6c0.3,0,0.7,0,1,0c1.1,0.1,1.5,0.5,1.6,1.6c0,0.3,0,0.7,0,1c0,0.3,0,0.6,0,1
		c2.5,0,4.9,0,7.4,0c0-0.7,0-1.4,0-2.1c0-0.9,0.5-1.4,1.4-1.5c0.5,0,1,0,1.4,0c0.8,0.1,1.3,0.6,1.3,1.4c0,0.7,0,1.4,0,2.3
		c0.8,0,1.5,0,2.2,0c1.1,0.1,1.6,0.6,1.8,1.6c0.9,5,1.9,10,2.9,15c0.6,2.9,1.2,5.7,1.7,8.6c0.3,1.4-0.4,2.2-1.8,2.2
		C37.3,34.3,36.4,34.3,35.5,34.3z M15.5,8.1c-2.4,0-4.8,0-7.2,0C8.2,9.1,7.9,9.8,6.8,9.8c-2.1,0.1-2.3,0-3-1.7c-0.4,0-0.8,0-1.2,0
		c-1.5,0-1.5,0-1.5,1.5c0,8.2,0,16.5,0,24.7c0,1.3,0,1.4,1.3,1.4c10.2,0,20.3,0,30.5,0c1,0,1.3-0.3,1.3-1.3c0-7.9,0-15.9,0-23.8
		c0-2.8,0.6-2.5-2.6-2.5c-0.1,0-0.1,0-0.2,0.1c-0.1,0.9-0.4,1.6-1.5,1.6c-2.1,0.1-2.3,0-2.9-1.7c-2.4,0-4.7,0-7.1,0
		c-0.4,1.6-0.6,1.7-2.2,1.7C16,9.8,15.9,9.7,15.5,8.1z M35.4,33.2c0.7,0,1.3,0,2,0c1.5,0,1.6-0.1,1.3-1.5c-0.5-2.7-1.1-5.4-1.6-8
		c-0.5-2.4-1-4.9-1.5-7.3c-0.1,0-0.1,0-0.2,0C35.4,21.9,35.4,27.5,35.4,33.2z M7,4.5c-0.6,0-1.2,0-1.8,0c0,1,0,1.9,0,2.7
		C5.2,8.8,5.4,9,7,8.5C7,7.2,7,5.9,7,4.5z M16.8,4.4c0,1.3,0,2.5,0,3.6c0,0.2,0.4,0.5,0.6,0.6c0.3,0.1,0.7,0,1.1,0
		c0-1.5,0-2.8,0-4.2C17.9,4.4,17.4,4.4,16.8,4.4z M30.1,4.5c-0.6,0-1.1,0-1.6,0c-0.1,0.1-0.1,0.2-0.1,0.3c0,0.8,0,1.6,0,2.5
		c0,1.6,0,1.6,1.8,1.3C30.1,7.2,30.1,5.9,30.1,4.5z"/>
	<path class="st0" d="M6.3,29.5c0-1.3,0-2.4,0-3.7c-1,0-2.1,0-3.1,0c-0.3,0-0.6-0.3-1-0.5c0.3-0.2,0.6-0.6,1-0.6c1-0.1,2,0,3,0
		c0-1.2,0-2.4,0-3.7c-1,0-2,0.1-2.9,0c-0.4,0-0.7-0.4-1.1-0.6c0.4-0.2,0.8-0.5,1.2-0.5c0.9-0.1,1.9,0,2.9,0c0-1.3,0-2.4,0-3.7
		c-1.1,0-2.1,0-3.1,0c-0.3,0-0.6-0.3-1-0.5c0.3-0.2,0.6-0.6,1-0.6c1-0.1,2,0,3.1,0c0-0.6-0.1-1.2,0-1.8c0.1-0.4,0.4-0.7,0.5-1
		c0.2,0.4,0.5,0.7,0.6,1.1c0.1,0.5,0,1.1,0,1.7c1.4,0,2.7,0,4.1,0c0-0.6-0.1-1.3,0-1.9c0-0.3,0.3-0.6,0.5-0.8
		c0.2,0.3,0.6,0.5,0.6,0.9c0.1,0.6,0,1.2,0,1.9c1.4,0,2.7,0,4.2,0c0-0.7-0.1-1.3,0-1.9c0-0.3,0.3-0.6,0.5-0.8
		c0.2,0.3,0.6,0.5,0.6,0.9c0.1,0.6,0,1.2,0,1.9c1.4,0,2.8,0,4.2,0c0-0.7-0.1-1.4,0-2c0-0.3,0.3-0.5,0.5-0.7c0.2,0.3,0.6,0.5,0.6,0.8
		c0.1,0.6,0,1.2,0,1.9c1.4,0,2.7,0,4.2,0c0-0.7,0-1.3,0-1.9c0-0.3,0.3-0.5,0.5-0.8c0.2,0.3,0.6,0.5,0.6,0.8c0.1,0.6,0,1.3,0,2
		c1.1,0,2.2,0,3.2,0c0.3,0,0.6,0.4,0.9,0.6c-0.3,0.2-0.6,0.5-0.9,0.5c-1,0.1-2,0-3.1,0c0,1.2,0,2.4,0,3.7c1,0,2.1,0,3.1,0
		c0.3,0,0.6,0.4,0.9,0.6c-0.3,0.2-0.6,0.5-0.9,0.5c-1,0.1-2,0-3.1,0c0,1.3,0,2.4,0,3.7c1,0,2.1-0.1,3.1,0c0.3,0,0.6,0.4,1,0.6
		c-0.3,0.2-0.6,0.5-0.9,0.5c-1,0.1-2,0-3.1,0c0,1.2,0,2.4,0,3.7c1.1,0,2.1,0,3.1,0c0.3,0,0.6,0.4,0.9,0.6c-0.3,0.2-0.5,0.5-0.8,0.5
		c-1,0.1-2,0-3.2,0c0,0.6,0,1.2,0,1.8c0,0.2-0.3,0.4-0.5,0.7c-0.2-0.2-0.5-0.4-0.6-0.7c-0.1-0.5,0-1.1,0-1.7c-1.4,0-2.7,0-4.2,0
		c0,0.6,0.1,1.1,0,1.7c0,0.2-0.3,0.4-0.5,0.6c-0.2-0.2-0.5-0.4-0.6-0.7c-0.1-0.5,0-1.1,0-1.7c-1.4,0-2.7,0-4.2,0
		c0,0.5,0.1,1.1,0,1.5c-0.1,0.3-0.4,0.5-0.6,0.8c-0.2-0.3-0.5-0.5-0.6-0.8c-0.1-0.5,0-1,0-1.6c-1.4,0-2.7,0-4.2,0
		c0,0.6,0.1,1.1,0,1.7c0,0.3-0.4,0.5-0.6,0.7c-0.2-0.2-0.5-0.5-0.5-0.7c-0.1-0.5,0-1,0-1.6c-1.4,0-2.7,0-4.1,0c0,0.4,0.1,0.9,0,1.4
		c-0.1,0.4-0.4,0.6-0.6,1c-0.2-0.3-0.5-0.6-0.5-0.9c-0.1-0.4,0-0.9,0-1.5c-1.1,0-2.1,0-3.1,0c-0.3,0-0.7-0.4-1-0.6
		c0.3-0.2,0.7-0.5,1-0.5C4.3,29.5,5.3,29.5,6.3,29.5z M11.7,16.2c-1.4,0-2.7,0-4,0c0,1.2,0,2.4,0,3.5c1.4,0,2.7,0,4,0
		C11.7,18.5,11.7,17.4,11.7,16.2z M17.1,16.2c-1.4,0-2.7,0-4,0c0,1.2,0,2.4,0,3.5c1.4,0,2.7,0,4,0C17.1,18.5,17.1,17.4,17.1,16.2z
		 M22.4,16.2c-1.4,0-2.7,0-4,0c0,1.2,0,2.4,0,3.6c1.4,0,2.7,0,4,0C22.4,18.6,22.4,17.4,22.4,16.2z M27.7,19.8c0-1.3,0-2.4,0-3.6
		c-1.4,0-2.7,0-4,0c0,1.2,0,2.4,0,3.6C25.1,19.8,26.4,19.8,27.7,19.8z M11.7,29.5c0-1.2,0-2.4,0-3.6c-1.4,0-2.7,0-4,0
		c0,1.2,0,2.4,0,3.6C9,29.5,10.3,29.5,11.7,29.5z M17,29.5c0-1.3,0-2.4,0-3.6c-1.4,0-2.7,0-4,0c0,1.2,0,2.4,0,3.6
		C14.4,29.5,15.7,29.5,17,29.5z M22.4,25.9c-1.4,0-2.7,0-4,0c0,1.2,0,2.4,0,3.5c1.4,0,2.7,0,4,0C22.4,28.2,22.4,27.1,22.4,25.9z
		 M27.7,29.5c0-1.2,0-2.4,0-3.6c-1.4,0-2.7,0-4.1,0c0,1.2,0,2.4,0,3.6C25,29.5,26.3,29.5,27.7,29.5z M23.7,24.6c1.4,0,2.7,0,4.1,0
		c0-1.2,0-2.4,0-3.6c-1.4,0-2.7,0-4.1,0C23.7,22.2,23.7,23.3,23.7,24.6z M7.6,24.6c1.4,0,2.7,0,4,0c0-1.2,0-2.4,0-3.5
		c-1.4,0-2.7,0-4,0C7.6,22.3,7.6,23.4,7.6,24.6z M13,21c0,1.2,0,2.4,0,3.6c1.4,0,2.7,0,4,0c0-1.2,0-2.4,0-3.6C15.7,21,14.4,21,13,21
		z M18.3,21c0,1.2,0,2.4,0,3.6c1.4,0,2.7,0,4.1,0c0-1.2,0-2.4,0-3.6C21,21,19.8,21,18.3,21z"/>
</g>
</svg>
