<?xml version="1.0" encoding="utf-8"?>
<!-- Generator: Adobe Illustrator 23.0.5, SVG Export Plug-In . SVG Version: 6.00 Build 0)  -->
<svg version="1.1" id="Layer_1" xmlns="http://www.w3.org/2000/svg" xmlns:xlink="http://www.w3.org/1999/xlink" x="0px" y="0px"
	 viewBox="0 0 40 40" style="enable-background:new 0 0 40 40;" xml:space="preserve">
<style type="text/css">
	.st0{fill:#F9BC33;}
</style>
<g>
	<path class="st0" d="M23.8,0c0.8,0.3,1.7,0.4,2.5,0.8c3.5,1.8,5.4,4.6,5.4,8.6c0,4.4-3.7,8.4-8.1,8.9c-5,0.6-9.7-3-10.3-8
		C12.7,5.6,16.1,1,20.9,0.1C21,0.1,21.1,0,21.2,0C22.1,0,22.9,0,23.8,0z M30.1,9.2c0-4.3-3.3-7.6-7.6-7.6c-4.3,0-7.6,3.3-7.6,7.7
		c0,4.3,3.3,7.6,7.7,7.5C26.8,16.8,30.1,13.4,30.1,9.2z"/>
	<path class="st0" d="M7.6,10c0.8,0,1.6,0,2.3,0c0.3,0,0.5,0,0.8,0c0.5,0,0.9,0.3,0.8,0.8c0,0.5-0.4,0.8-0.9,0.8c-0.9,0-1.9,0-2.8,0
		c-0.1,0-0.2,0-0.3,0c1,4.5,2,9,3.1,13.5c1-0.1,2.1-0.2,3.1-0.3c2.3-0.2,4.6-0.5,6.9-0.8c2.5-0.3,5.1-0.6,7.6-0.8
		c1.6-0.2,3.1-0.3,4.7-0.5c0.2,0,0.4-0.1,0.5-0.1c0.7-0.1,0.7-0.1,0.9-0.8c0.9-3.3,1.8-6.6,2.7-9.9c0-0.1,0-0.2,0.1-0.4
		c-0.8,0-1.6,0-2.4,0c-0.2,0-0.4,0-0.5,0c-0.5,0-0.8-0.4-0.8-0.8c0-0.5,0.3-0.8,0.8-0.8c1,0,2.1,0,3.1,0c0.3,0,0.4-0.1,0.5-0.3
		c0.1-0.5,0.3-1.1,0.4-1.6c0.1-0.5,0.6-0.8,1-0.7c0.5,0.1,0.7,0.6,0.6,1.1c-1.2,4.6-2.5,9.2-3.7,13.8c-0.4,1.3-1.2,1.9-2.5,2.1
		c-2.4,0.2-4.8,0.5-7.2,0.8c-2.6,0.3-5.1,0.6-7.7,0.8c-2.6,0.3-5.1,0.6-7.7,0.8c-0.3,0-0.3,0.1-0.4,0.4c-0.2,0.7-0.4,1.5-0.6,2.2
		c-0.1,0.5,0,0.6,0.5,0.6c7.4,0,14.8,0,22.2,0c0.5,0,0.9,0,1.4,0c0.6,0,1,0.3,1,0.8c0,0.5-0.4,0.8-1,0.8c-3.7,0-7.3,0-11,0
		c-4.1,0-8.2,0-12.2,0c-0.4,0-0.8,0-1.2-0.2c-1-0.3-1.5-1.4-1.2-2.4c0.2-0.9,0.5-1.8,0.7-2.6c0.1-0.2,0.1-0.5,0-0.8
		C8,20.8,6.8,16,5.7,11.2c0-0.2,0-0.4,0-0.6C6,9.5,6.2,8.4,6.4,7.3c0.1-0.5,0-0.6-0.5-0.6c-1.6,0-3.1,0-4.7,0c-0.1,0-0.2,0-0.3,0
		c-0.5,0-0.8-0.4-0.8-0.9c0-0.4,0.3-0.8,0.8-0.8c1.7,0,3.4,0,5.1,0c1,0,1.6,0.6,2,1.5c0.1,0.3,0.1,0.6,0,0.9C8,8.2,7.8,9,7.6,9.8
		C7.6,9.9,7.6,9.9,7.6,10z"/>
	<path class="st0" d="M31.6,40c-1.8,0-3.4-1.6-3.3-3.4c0-1.7,1.6-3.3,3.4-3.3c1.7,0,3.4,1.7,3.4,3.4C34.9,38.4,33.3,40,31.6,40z
		 M31.6,35c-1.1,0-1.7,0.6-1.7,1.7c0,1.1,0.6,1.7,1.7,1.7c1.1,0,1.7-0.7,1.7-1.7C33.3,35.6,32.6,35,31.6,35z"/>
	<path class="st0" d="M15,36.7c0,1.8-1.6,3.4-3.4,3.3c-1.7,0-3.3-1.6-3.3-3.4c0-1.7,1.6-3.3,3.4-3.3C13.4,33.3,15,34.9,15,36.7z
		 M9.9,36.6c0,1.1,0.6,1.7,1.7,1.7c1.1,0,1.7-0.6,1.7-1.7c0-1-0.6-1.7-1.7-1.7C10.6,35,9.9,35.6,9.9,36.6z"/>
	<path class="st0" d="M21.1,11.2c1.1-1.3,2.2-2.7,3.3-4c0.3-0.4,0.6-0.7,0.9-1.1c0.4-0.4,0.9-0.5,1.2-0.2c0.4,0.3,0.4,0.8,0,1.2
		C25,9.1,23.4,11,21.8,13c-0.4,0.5-0.9,0.5-1.4,0c-0.9-0.9-1.7-1.8-2.5-2.7c-0.4-0.4-0.3-0.9,0-1.2c0.3-0.3,0.9-0.3,1.2,0.1
		C19.7,9.8,20.4,10.5,21.1,11.2C21,11.2,21,11.2,21.1,11.2z"/>
</g>
</svg>
