<?xml version="1.0" encoding="utf-8"?>
<!-- Generator: Adobe Illustrator 23.0.5, SVG Export Plug-In . SVG Version: 6.00 Build 0)  -->
<svg version="1.1" id="Layer_1" xmlns="http://www.w3.org/2000/svg" xmlns:xlink="http://www.w3.org/1999/xlink" x="0px" y="0px"
	 viewBox="0 0 40 40" style="enable-background:new 0 0 40 40;" xml:space="preserve">
<style type="text/css">
	.st0{fill:#F8BC31;}
</style>
<g>
	<path class="st0" d="M40,1.6c0,12.3,0,24.6,0,36.9c-0.3,0.8-0.8,1.3-1.6,1.6c-12.3,0-24.6,0-36.9,0c-0.8-0.3-1.3-0.8-1.6-1.6
		C0,26.1,0,13.9,0,1.6C0.3,0.8,0.8,0.3,1.6,0c12.3,0,24.6,0,36.9,0C39.2,0.3,39.7,0.8,40,1.6z M1.2,6.3c0,0.1,0,0.3,0,0.4
		c0,10.4,0,20.9,0,31.3c0,0.6,0.1,0.8,0.8,0.8c12,0,23.9,0,35.9,0c0.7,0,0.8-0.1,0.8-0.8c0-10.4,0-20.8,0-31.2c0-0.1,0-0.3,0-0.4
		C26.2,6.3,13.8,6.3,1.2,6.3z M1.3,5c12.5,0,25,0,37.5,0c0-1,0-1.9,0-2.8c0-0.8-0.1-0.9-0.9-0.9c-11.9,0-23.8,0-35.7,0
		c-0.1,0-0.2,0-0.4,0c-0.3,0-0.5,0.2-0.5,0.5C1.2,2.8,1.3,3.9,1.3,5z"/>
	<path class="st0" d="M20.6,15c0,0.6,0,1.2,0,1.9c0.3,0,0.6,0,0.9,0c1.1,0,2.3,0,3.4,0c0.7,0,1.3,0.6,1.3,1.3c0,1.6,0,3.2,0,4.8
		c0,0.7-0.6,1.3-1.3,1.3c-1.3,0-2.6,0-3.8,0c-0.1,0-0.3,0-0.4,0c0,0.4,0,0.8,0,1.3c0.2,0,0.3,0,0.4,0c2.9,0,5.8,0,8.7,0
		c0.6,0,0.8,0.2,0.8,0.8c0,1.2,0,2.3,0,3.5c0.6,0,1.1,0,1.6,0c1,0,1.5,0.5,1.5,1.5c0,1.5,0,3,0,4.6c0,0.9-0.6,1.4-1.4,1.4
		c-1.6,0-3.1,0-4.7,0c-0.8,0-1.4-0.6-1.4-1.4c0-1.6,0-3.2,0-4.7c0-0.8,0.6-1.4,1.4-1.4c0.5,0,1.1,0,1.6,0c0,0,0.1,0,0.1,0
		c0-1,0-2,0-3.1c-2.9,0-5.8,0-8.7,0c0,1,0,2,0,3.1c0.5,0,1.1,0,1.6,0c1,0,1.5,0.5,1.5,1.5c0,1.5,0,3,0,4.6c0,0.9-0.6,1.4-1.4,1.4
		c-1.6,0-3.1,0-4.7,0c-0.8,0-1.4-0.6-1.4-1.4c0-1.6,0-3.2,0-4.7c0-0.8,0.6-1.4,1.4-1.4c0.6,0,1.1,0,1.7,0c0-1,0-2.1,0-3.1
		c-2.9,0-5.8,0-8.7,0c0,1,0,2,0,3.1c0.5,0,1.1,0,1.6,0c1,0,1.5,0.5,1.5,1.5c0,1.5,0,3,0,4.6c0,0.9-0.6,1.4-1.4,1.4
		c-1.6,0-3.1,0-4.7,0c-0.8,0-1.4-0.6-1.4-1.4c0-1.6,0-3.2,0-4.7c0-0.8,0.6-1.4,1.4-1.4c0.6,0,1.1,0,1.7,0c0-0.1,0-0.3,0-0.4
		c0-1,0-2.1,0-3.1c0-0.7,0.2-0.9,0.9-0.9c2.9,0,5.8,0,8.6,0c0.1,0,0.3,0,0.5,0c0-0.4,0-0.8,0-1.3c-0.1,0-0.3,0-0.4,0
		c-1.3,0-2.5,0-3.8,0c-0.8,0-1.4-0.6-1.4-1.4c0-1.6,0-3.1,0-4.7c0-0.8,0.6-1.4,1.4-1.4c1.4,0,2.8,0,4.2,0c0-0.6,0-1.2,0-1.9
		c-0.1,0-0.3,0-0.4,0c-1.3,0-2.5,0-3.8,0c-0.8,0-1.4-0.6-1.4-1.4c0-1.6,0-3.1,0-4.7c0-0.8,0.6-1.4,1.4-1.4c3.2,0,6.5,0,9.7,0
		c0.8,0,1.4,0.6,1.4,1.4c0,1.6,0,3.2,0,4.8c0,0.8-0.6,1.4-1.4,1.4C23.5,15,22.1,15,20.6,15z M25,8.8c-3.3,0-6.6,0-10,0
		c0,1.7,0,3.3,0,5c3.3,0,6.6,0,10,0C25,12.1,25,10.4,25,8.8z M25,18.2c-3.3,0-6.7,0-10,0c0,1.7,0,3.3,0,4.9c3.3,0,6.6,0,10,0
		C25,21.4,25,19.8,25,18.2z M7.5,35.2c1.3-1.3,2.6-2.6,4-4c-1.3,0-2.6,0-4,0C7.5,32.6,7.5,33.9,7.5,35.2z M17.5,35.2
		c1.3-1.3,2.6-2.6,3.9-3.9c-1.2,0-2.6,0-3.9,0C17.5,32.6,17.5,33.9,17.5,35.2z M27.5,35.2c1.3-1.3,2.7-2.6,4-4c-1.3,0-2.6,0-4,0
		C27.5,32.6,27.5,33.9,27.5,35.2z M8.5,36.2c1.3,0,2.6,0,3.9,0c0-1.3,0-2.7,0-4C11.2,33.6,9.8,34.9,8.5,36.2z M18.5,36.2
		c1.3,0,2.6,0,4,0c0-1.3,0-2.7,0-4C21.2,33.6,19.8,34.9,18.5,36.2z M32.5,32.3c-1.3,1.3-2.6,2.6-3.9,3.9c1.3,0,2.6,0,3.9,0
		C32.5,34.9,32.5,33.6,32.5,32.3z"/>
	<path class="st0" d="M5.6,7.5c0,0.4,0,0.8,0,1.2c-0.6,0-1.2,0-1.8,0c0,0.6,0,1.2,0,1.9c-0.4,0-0.8,0-1.3,0c0-0.9,0-1.7,0-2.6
		c0-0.3,0.3-0.5,0.6-0.5C3.9,7.5,4.8,7.5,5.6,7.5z"/>
	<path class="st0" d="M37.5,10.6c-0.4,0-0.8,0-1.2,0c0-0.6,0-1.2,0-1.8c-0.6,0-1.2,0-1.9,0c0-0.4,0-0.8,0-1.3c0.8,0,1.7,0,2.6,0
		c0.3,0,0.5,0.2,0.5,0.6C37.5,8.9,37.5,9.7,37.5,10.6z"/>
	<path class="st0" d="M2.5,3.7c0-0.4,0-0.8,0-1.2c0.4,0,0.8,0,1.2,0c0,0.4,0,0.8,0,1.2C3.3,3.7,2.9,3.7,2.5,3.7z"/>
	<path class="st0" d="M6.2,3.7c-0.4,0-0.8,0-1.2,0c0-0.4,0-0.8,0-1.2c0.4,0,0.8,0,1.2,0C6.2,2.9,6.2,3.3,6.2,3.7z"/>
	<path class="st0" d="M36.3,3.7c0-0.4,0-0.8,0-1.2c0.4,0,0.8,0,1.2,0c0,0.4,0,0.8,0,1.2C37.1,3.7,36.7,3.7,36.3,3.7z"/>
	<path class="st0" d="M21.2,11.9c-1.7,0-3.3,0-5,0c0-0.4,0-0.8,0-1.2c1.6,0,3.3,0,5,0C21.2,11,21.2,11.4,21.2,11.9z"/>
	<path class="st0" d="M22.5,10.6c0.4,0,0.8,0,1.2,0c0,0.4,0,0.8,0,1.2c-0.4,0-0.8,0-1.2,0C22.5,11.5,22.5,11.1,22.5,10.6z"/>
	<path class="st0" d="M21.2,20c0,0.4,0,0.8,0,1.2c-1.7,0-3.3,0-5,0c0-0.4,0-0.8,0-1.2C17.9,20,19.6,20,21.2,20z"/>
	<path class="st0" d="M23.7,20c0,0.4,0,0.8,0,1.2c-0.4,0-0.8,0-1.2,0c0-0.4,0-0.8,0-1.2C22.9,20,23.3,20,23.7,20z"/>
</g>
</svg>
