<?xml version="1.0" encoding="utf-8"?>
<!-- Generator: Adobe Illustrator 23.0.5, SVG Export Plug-In . SVG Version: 6.00 Build 0)  -->
<svg version="1.1" id="Layer_1" xmlns="http://www.w3.org/2000/svg" xmlns:xlink="http://www.w3.org/1999/xlink" x="0px" y="0px"
	 viewBox="0 0 40 40" style="enable-background:new 0 0 40 40;" xml:space="preserve">
<style type="text/css">
	.st0{fill:#F9BC33;}
</style>
<g>
	<path class="st0" d="M0,5.2c0.2,0,0.3,0,0.5,0c4,0,8,0,12,0c0.3,0,0.5-0.1,0.7-0.3C15.6,1.6,18.8,0,22.7,0c3.4,0,6.2,1.4,8.5,3.9
		c0.1,0.2,0.3,0.3,0.4,0.5c0.5-0.3,1-0.7,1.5-1c0.1-0.1,0.3-0.2,0.4-0.2c2.1,0,4.2,0,6.3,0c0,0,0.1,0,0.1,0c0,0.4,0,0.8,0,1.2
		c-0.2,0-0.3,0-0.5,0c-1.7,0-3.4,0-5.2,0c-0.4,0-0.8,0.1-1.1,0.3C33,5,32.7,5.2,32.4,5.4c0.1,0.1,0.1,0.3,0.2,0.4
		c3.2,5.4,1.5,12.3-3.8,15.6c-0.3,0.2-0.4,0.4-0.4,0.7c0,5.8,0,11.6,0,17.4c0,0.2,0,0.3,0,0.5C18.9,40,9.5,40,0,40
		C0,28.4,0,16.8,0,5.2z M2.6,25.8c0-6,0-12,0-18c0.2,0,0.3,0,0.5,0c2.7,0,5.5,0,8.2,0c0.1,0,0.4,0,0.4-0.1c0.2-0.4,0.3-0.8,0.5-1.1
		c-3.7,0-7.3,0-10.9,0c0,10.8,0,21.5,0,32.3c8.6,0,17.2,0,25.8,0c0-5.5,0-10.9,0-16.4c-0.3,0.1-0.6,0.2-0.9,0.3
		c-0.3,0.1-0.4,0.2-0.4,0.5c0,0.9,0,1.7,0,2.6C18.1,25.8,10.3,25.8,2.6,25.8z M3.9,24.5c6.9,0,13.8,0,20.7,0c0-0.5,0-1,0-1.4
		c-4,0.5-7.5-0.5-10.3-3.5c-2.8-3-3.7-6.5-2.9-10.5C8.8,9,6.3,9,3.9,9C3.9,14.2,3.9,19.3,3.9,24.5z M16.5,19.9
		c0-0.1,0.1-0.1,0.1-0.1c1.7-2.7,3.5-5.4,5.2-8.1c0.1-0.1,0.1-0.4,0.1-0.5c0-3.1,0-6.2,0-9.4c0-0.1,0-0.3,0-0.4
		c-4.4,0.2-8.3,3.4-9.4,7.8C11.4,13.5,13.4,17.8,16.5,19.9z M17.6,20.6c5,3,12.1,0.8,14.4-4.8c-0.1-0.1-0.3-0.1-0.4-0.2
		c-2.8-1-5.6-2.1-8.3-3.1c-0.3-0.1-0.5-0.1-0.6,0.2c-1.6,2.5-3.2,5-4.9,7.6C17.7,20.4,17.6,20.5,17.6,20.6z M23.2,1.3
		c0,0.1,0,0.2,0,0.3c0,3.1,0,6.2,0,9.3c0,0.3,0.1,0.4,0.4,0.4c2.8,1.1,5.7,2.1,8.5,3.2c0.1,0,0.2,0.1,0.4,0.1c0.9-3,0.5-5.8-1.2-8.5
		c-1.7,1.2-3.4,2.3-5.2,3.4c-0.2-0.4-0.5-0.7-0.7-1c1.7-1.1,3.4-2.3,5.1-3.4C28.6,2.8,26.2,1.5,23.2,1.3z"/>
	<path class="st0" d="M38.1,36.8c0,1.8-1.4,3.2-3.2,3.2c-1.8,0-3.2-1.4-3.2-3.2c0-1.8,1.4-3.2,3.2-3.2C36.6,33.6,38.1,35,38.1,36.8z
		 M34.9,34.8c-1.1,0-1.9,0.9-2,1.9c0,1.1,0.9,2,1.9,2c1.1,0,2-0.9,2-2C36.8,35.7,35.9,34.8,34.9,34.8z"/>
	<path class="st0" d="M37.4,25.8c-1.7,0-3.4,0-5.1,0c0-1.7,0-3.4,0-5.1c1.7,0,3.4,0,5.1,0C37.4,22.4,37.4,24.1,37.4,25.8z
		 M36.1,21.9c-0.9,0-1.7,0-2.6,0c0,0.9,0,1.7,0,2.5c0.9,0,1.7,0,2.6,0C36.1,23.6,36.1,22.8,36.1,21.9z"/>
	<path class="st0" d="M34.9,27.2c1,1.7,2,3.4,3,5.1c-2,0-4,0-6.1,0C32.8,30.5,33.8,28.9,34.9,27.2z M35.7,31
		c-0.3-0.5-0.5-0.9-0.8-1.4c-0.3,0.5-0.5,0.9-0.8,1.4C34.6,31,35.1,31,35.7,31z"/>
	<path class="st0" d="M34.2,7c0-0.4,0-0.8,0-1.2c1.1,0,2.1,0,3.2,0c0,0.4,0,0.8,0,1.2C36.4,7,35.3,7,34.2,7z"/>
	<path class="st0" d="M40,7c-0.4,0-0.8,0-1.2,0c0-0.4,0-0.8,0-1.2c0.4,0,0.8,0,1.2,0C40,6.2,40,6.6,40,7z"/>
	<path class="st0" d="M2.6,28.4c0-0.4,0-0.8,0-1.2c7.7,0,15.4,0,23.2,0c0,0.4,0,0.8,0,1.2C18,28.4,10.3,28.4,2.6,28.4z"/>
	<path class="st0" d="M2.6,33.5c0-0.4,0-0.8,0-1.2c7.7,0,15.4,0,23.2,0c0,0.4,0,0.8,0,1.2C18.1,33.5,10.4,33.5,2.6,33.5z"/>
	<path class="st0" d="M5.2,30.9c0-0.4,0-0.8,0-1.2c6.9,0,13.7,0,20.6,0c0,0.4,0,0.8,0,1.2C18.9,30.9,12.1,30.9,5.2,30.9z"/>
	<path class="st0" d="M23.2,34.9c0,0.4,0,0.8,0,1.2c-6.9,0-13.7,0-20.6,0c0-0.4,0-0.8,0-1.2C9.5,34.9,16.3,34.9,23.2,34.9z"/>
	<path class="st0" d="M2.6,29.7c0.4,0,0.8,0,1.2,0c0,0.4,0,0.8,0,1.2c-0.4,0-0.8,0-1.2,0C2.6,30.5,2.6,30.1,2.6,29.7z"/>
	<path class="st0" d="M25.8,34.9c0,0.4,0,0.8,0,1.2c-0.4,0-0.8,0-1.2,0c0-0.4,0-0.8,0-1.2C24.9,34.9,25.3,34.9,25.8,34.9z"/>
</g>
</svg>
