<?xml version="1.0" encoding="utf-8"?>
<!-- Generator: Adobe Illustrator 23.0.5, SVG Export Plug-In . SVG Version: 6.00 Build 0)  -->
<svg version="1.1" id="Layer_1" xmlns="http://www.w3.org/2000/svg" xmlns:xlink="http://www.w3.org/1999/xlink" x="0px" y="0px"
	 viewBox="0 0 40 40" style="enable-background:new 0 0 40 40;" xml:space="preserve">
<style type="text/css">
	.st0{fill:#F9BC33;}
</style>
<g>
	<path class="st0" d="M40,17.3c0,1.8,0,3.6,0,5.5c-0.2,0.7-0.4,1.3-1,1.7c-0.2,0.1-0.3,0.3-0.2,0.5c0,2.6,0,5.1,0,7.7
		c0,1.6-1.1,2.7-2.7,2.7c-4.3,0-8.5,0-12.8,0c-6.9,0-13.8,0-20.7,0c-1.2,0-2.2-0.7-2.5-1.9c0-0.1-0.1-0.1-0.1-0.2
		c0-8.9,0-17.7,0-26.6c0-0.1,0.1-0.1,0.1-0.2c0.4-1.2,1.3-1.9,2.5-1.9c11.2,0,22.3,0,33.5,0c1.6,0,2.7,1.1,2.7,2.7
		c0,2.6,0,5.1,0,7.7c0,0.1,0,0.3,0.1,0.4C39.5,15.8,39.8,16.5,40,17.3z M25.3,6c0,1.2,0,2.3,0,3.5c0,0.2,0.1,0.4,0.3,0.5
		c0.7,0.4,1.1,1.2,0.9,2c-0.2,0.8-0.9,1.4-1.7,1.5C24,13.5,23.3,13,23,12.3c-0.3-0.8-0.1-1.7,0.6-2.1c0.5-0.3,0.6-0.7,0.5-1.2
		c0-0.7,0-1.3,0-2c0-0.3,0-0.7,0-1c-1.4,0-2.7,0-4.1,0c0,0.4,0,0.8,0,1.2c0,0.3,0,0.4,0.3,0.6c0.7,0.4,1.1,1.3,0.9,2.1
		c-0.2,0.9-1,1.4-1.8,1.4c-0.9,0-1.6-0.6-1.8-1.5c-0.2-0.8,0.2-1.6,0.9-2c0.1-0.1,0.3-0.2,0.3-0.3c0-0.5,0-1,0-1.6
		c-1.6,0-3.1,0-4.6,0c-3.8,0-7.7,0-11.5,0c-0.7,0-1.2,0.4-1.4,1c0,0.2,0,0.4,0,0.6c0,1.1,0,2.3,0,3.4c0.1,0,0.1,0,0.2,0
		c3.6,0,7.3,0,10.9,0c0.2,0,0.3-0.1,0.4-0.3c0.4-0.8,1.3-1.1,2-0.9c0.9,0.2,1.5,1,1.5,1.8c0,0.9-0.6,1.6-1.4,1.8
		c-0.8,0.2-1.6-0.2-2.1-0.9c-0.1-0.2-0.3-0.3-0.5-0.3c-3.6,0-7.1,0-10.7,0c-0.1,0-0.2,0-0.3,0c0,1.6,0,3.1,0,4.7c0.1,0,0.1,0,0.2,0
		c5.5,0,11,0,16.5,0c0.2,0,0.3-0.1,0.4-0.3c0.4-0.7,1.3-1.1,2.1-0.9c0.9,0.2,1.4,1,1.4,1.8c0,0.9-0.6,1.6-1.4,1.8
		c-0.8,0.2-1.7-0.1-2.1-0.9c-0.1-0.2-0.3-0.3-0.5-0.3c-5.4,0-10.8,0-16.2,0c-0.1,0-0.3,0-0.4,0c0,1.5,0,2.9,0,4.4c0.1,0,0.1,0,0.2,0
		c5.5,0,11,0,16.4,0c0.2,0,0.3-0.1,0.4-0.3c0.4-0.8,1.3-1.1,2-0.9c0.9,0.2,1.4,0.9,1.5,1.8c0,0.9-0.6,1.6-1.4,1.8
		c-0.8,0.2-1.7-0.1-2.1-0.9c-0.1-0.3-0.3-0.3-0.5-0.3c-5.4,0-10.8,0-16.2,0c-0.1,0-0.3,0-0.4,0c0,1.4,0,2.7,0,4c0.1,0,0.2,0,0.2,0
		c4.2,0,8.4,0,12.7,0c0.2,0,0.3-0.1,0.4-0.3c0.4-0.8,1.3-1.1,2-0.9c0.9,0.2,1.5,0.9,1.5,1.8c0,0.9-0.6,1.6-1.4,1.8
		c-0.8,0.2-1.7-0.1-2.1-0.9c-0.1-0.2-0.3-0.3-0.5-0.3c-4.2,0-8.3,0-12.5,0c-0.1,0-0.2,0-0.4,0c0,1.2,0,2.4,0,3.5
		c0,0.9,0.5,1.4,1.4,1.4c6.8,0,13.5,0,20.3,0c0.1,0,0.3,0,0.4,0c0-1.6,0-3.1,0-4.6c0-0.1-0.1-0.3-0.2-0.3c-0.6-0.3-0.9-0.8-1-1.5
		c-0.1-0.9,0.6-1.8,1.5-2c0.8-0.2,1.7,0.3,2.1,1.1c0.4,0.9,0,1.9-0.8,2.3c-0.2,0.1-0.3,0.3-0.3,0.5c0,0.7,0,1.4,0,2.1
		c0,0.8,0,1.5,0,2.3c1.4,0,2.7,0,4.1,0c0-0.2,0-0.4,0-0.6c0-1.6,0-3.2,0-4.8c0-0.6,0.2-0.8,0.8-0.8c0.7,0,1.4,0,2.1,0
		c0.3,0,0.4-0.1,0.5-0.3c0.4-0.8,1.3-1.1,2.1-0.9c0.9,0.2,1.4,1,1.4,1.9c0,0.8-0.6,1.5-1.5,1.7c-0.7,0.2-1.6-0.2-2-0.9
		c-0.1-0.1-0.2-0.3-0.3-0.3c-0.6,0-1.2,0-1.8,0c0,1.7,0,3.3,0,5c0.2,0,0.3,0,0.4,0c1.9,0,3.7,0,5.6,0c1,0,1.5-0.5,1.5-1.5
		c0-2.4,0-4.8,0-7.2c0-0.1,0-0.3,0-0.4c-0.2,0-0.3,0-0.4,0c-2.4,0-4.9,0-7.3,0c-0.5,0-1,0-1.5-0.1c-3.9-0.8-4.8-5.2-3-7.8
		c1-1.5,2.5-2.1,4.2-2.1c2.5,0,5,0,7.5,0c0.2,0,0.3,0,0.5,0c0-0.2,0-0.3,0-0.4c0-2.4,0-4.9,0-7.3c0-0.9-0.5-1.4-1.4-1.4
		c-1.9,0-3.8,0-5.7,0c-0.1,0-0.2,0-0.3,0c0,1.7,0,3.3,0,5c0.6,0,1.1,0,1.6,0c0.2,0,0.3-0.1,0.4-0.3c0.4-0.8,1.3-1.1,2-0.9
		c0.9,0.2,1.5,1,1.5,1.8c0,0.9-0.6,1.6-1.4,1.8c-0.8,0.2-1.6-0.2-2.1-0.9c-0.1-0.2-0.2-0.3-0.4-0.3c-0.7,0-1.4,0-2.1,0
		c-0.6,0-0.8-0.2-0.8-0.8c0-1.7,0-3.3,0-5c0-0.1,0-0.3,0-0.4C27.6,6,26.5,6,25.3,6z M33.4,16.3c-0.8,0-1.7,0-2.5,0
		c-0.7,0-1.5,0-2.2,0.1c-1.7,0.2-2.9,1.5-3,3.3c-0.1,1.8,0.9,3.4,2.5,3.9c0.5,0.1,1.1,0.2,1.6,0.2c2.5,0,5.1,0,7.6,0
		c0.9,0,1.4-0.4,1.4-1.3c0-1.6,0-3.3,0-4.9c0-0.9-0.6-1.3-1.4-1.3C36,16.2,34.7,16.3,33.4,16.3z M19.4,8.8c-0.3,0-0.6,0.3-0.6,0.6
		c0,0.3,0.3,0.6,0.6,0.6c0.3,0,0.7-0.3,0.7-0.6C20,9,19.7,8.8,19.4,8.8z M14.4,10.9c-0.3,0-0.6,0.3-0.6,0.6c0,0.3,0.3,0.6,0.6,0.6
		c0.4,0,0.6-0.3,0.6-0.6C15,11.2,14.7,10.9,14.4,10.9z M25.3,11.6c0-0.3-0.3-0.6-0.6-0.6c-0.3,0-0.6,0.3-0.6,0.6
		c0,0.4,0.3,0.7,0.6,0.7C25,12.2,25.3,11.9,25.3,11.6z M33.8,10.9c-0.3,0-0.6,0.3-0.6,0.6c0,0.3,0.3,0.6,0.6,0.6
		c0.4,0,0.7-0.3,0.6-0.6C34.4,11.2,34.1,10.9,33.8,10.9z M20.6,17.5c0-0.3-0.3-0.6-0.6-0.6c-0.3,0-0.6,0.3-0.6,0.6
		c0,0.3,0.3,0.6,0.6,0.6C20.4,18.1,20.6,17.8,20.6,17.5z M20,22.5c-0.3,0-0.6,0.3-0.6,0.6c0,0.3,0.3,0.6,0.6,0.6
		c0.4,0,0.6-0.3,0.6-0.6C20.6,22.8,20.3,22.5,20,22.5z M24.7,27.5c0-0.3-0.3-0.6-0.6-0.6c-0.3,0-0.6,0.3-0.6,0.6
		c0,0.3,0.3,0.6,0.6,0.6C24.4,28.1,24.7,27.8,24.7,27.5z M16.3,27.8c-0.3,0-0.6,0.3-0.6,0.6c0,0.3,0.3,0.6,0.6,0.6
		c0.4,0,0.6-0.3,0.6-0.6C16.9,28.1,16.6,27.8,16.3,27.8z M33.8,29.1c0.3,0,0.6-0.3,0.6-0.6c0-0.3-0.3-0.6-0.6-0.6
		c-0.4,0-0.6,0.3-0.6,0.6C33.1,28.8,33.4,29.1,33.8,29.1z"/>
	<path class="st0" d="M29.4,21.9c-1,0-1.9-0.8-1.9-1.9c0-1,0.8-1.9,1.9-1.9c1,0,1.9,0.8,1.9,1.9C31.3,21,30.4,21.9,29.4,21.9z
		 M30,20c0-0.3-0.3-0.6-0.6-0.6c-0.3,0-0.6,0.3-0.6,0.6c0,0.4,0.3,0.6,0.6,0.6C29.7,20.6,30,20.3,30,20z"/>
</g>
</svg>
