<?xml version="1.0" encoding="utf-8"?>
<!-- Generator: Adobe Illustrator 23.0.5, SVG Export Plug-In . SVG Version: 6.00 Build 0)  -->
<svg version="1.1" id="Layer_1" xmlns="http://www.w3.org/2000/svg" xmlns:xlink="http://www.w3.org/1999/xlink" x="0px" y="0px"
	 viewBox="0 0 40 40" style="enable-background:new 0 0 40 40;" xml:space="preserve">
<style type="text/css">
	.st0{fill:#F9BC33;}
</style>
<g>
	<path class="st0" d="M37.2,5c-1.8-3.2-4.7-4.9-8.4-4.9C20.4,0,11.9,0,3.4,0C2.9,0,2.7,0.3,2.7,0.8c0,1.4,0,2.8,0,4.2
		c0,0.1,0,0.2,0,0.3c-0.2,0-0.4,0-0.6,0C1.6,5.4,1.3,5.6,1.3,6c0,0.4,0.3,0.6,0.7,0.6c0.2,0,0.4,0,0.6,0c0,0.9,0,1.8,0,2.7
		c-0.2,0-0.5,0-0.7,0c-0.4,0-0.6,0.3-0.6,0.7c0,0.4,0.3,0.6,0.7,0.6c0.2,0,0.4,0,0.7,0c0,0.9,0,1.8,0,2.7c-0.2,0-0.4,0-0.7,0
		c-0.4,0-0.7,0.3-0.7,0.7c0,0.4,0.3,0.6,0.7,0.6c0.2,0,0.4,0,0.6,0c0,0.9,0,1.8,0,2.7c-0.2,0-0.5,0-0.7,0c-0.4,0-0.7,0.3-0.6,0.7
		c0,0.4,0.3,0.6,0.7,0.6c0.2,0,0.4,0,0.6,0c0,0.9,0,1.8,0,2.7c-0.2,0-0.5,0-0.7,0c-0.4,0-0.6,0.3-0.6,0.7c0,0.4,0.3,0.6,0.7,0.6
		c0.2,0,0.4,0,0.7,0c0,0.9,0,1.8,0,2.7c-0.2,0-0.5,0-0.7,0c-0.4,0-0.6,0.3-0.6,0.7c0,0.4,0.3,0.6,0.7,0.6c0.2,0,0.4,0,0.7,0
		c0,0.9,0,1.8,0,2.7c-0.2,0-0.5,0-0.7,0c-0.4,0-0.7,0.3-0.7,0.7c0,0.4,0.3,0.6,0.7,0.6c0.2,0,0.4,0,0.7,0c0,0.5,0,1,0,1.5
		c0.1,0,0.2,0,0.2,0c0,0.1-0.1,0.2-0.1,0.2c0.3,0.5,0.3,0.5,0.7,0.4c0,0.1,0,0.1-0.1,0.2c-0.1,0.1-0.3,0.1-0.4,0
		c-0.1-0.1-0.2-0.2-0.3-0.4c0,0.3,0,0.5,0.1,0.7c0,0,0,0.1,0,0.2c-0.1,0-0.1,0-0.2-0.1c-0.1,0-0.2-0.1-0.3-0.1c0,0,0,0,0,0.1
		c0.2,0.1,0.2,0.3,0.1,0.5C2.4,34,2.2,34,2,33.9c0.1,0,0.1,0,0.1-0.1c0.1-0.1,0.1-0.1,0.1-0.2c-0.1,0-0.1,0-0.2-0.1
		c-0.1,0-0.2,0-0.3-0.1c-0.1-0.1-0.2-0.1-0.3,0.1c0.4,0.3,0.4,0.5,0.2,1c0.3,0,0.7,0,1,0c0,0.1,0,0.2,0,0.3c0,1.4,0,2.8,0,4.2
		c0,0.5,0.3,0.7,0.7,0.7c0,0,0.1,0,0.1,0c9.2,0,18.4,0,27.6,0c0.6,0,0.8-0.3,0.8-0.8c0-3.8,0-7.6,0-11.5c0-2.6,0-5.3,0-7.9
		c0-0.2,0.1-0.4,0.3-0.4c1.8-0.7,3.4-1.8,4.5-3.5C39.1,12.3,39.4,8.6,37.2,5z M30.6,38.7c-8.9,0-17.7,0-26.6,0c0-1.3,0-2.6,0-4
		c0.2,0,0.4,0,0.6,0c0.4,0,0.7-0.3,0.7-0.6c0-0.4-0.2-0.7-0.6-0.7c-0.2,0-0.4,0-0.6,0c-0.2-0.2-0.3-0.3-0.4-0.5
		c-0.1-0.2-0.3-0.3-0.4-0.5c-0.1-0.2-0.2-0.4-0.1-0.6c0.1-0.2,0.3-0.4,0.5-0.3c0.1,0,0.1,0,0.2,0c0.1-0.2-0.1-0.3-0.2-0.4
		c-0.1-0.1-0.1-0.2-0.2-0.3c0.1,0,0.2,0.1,0.3,0.1c0,0,0-0.1,0-0.2c0.2,0,0.5,0,0.7,0c0.2,0,0.3,0,0.4-0.3c0-0.1,0-0.1,0.1-0.2
		c0.2-0.1,0.2-0.3,0.1-0.5c-0.1-0.2-0.3-0.4-0.5-0.4c-0.2,0-0.5,0-0.7,0c0-0.9,0-1.8,0-2.7c0.2,0,0.4,0,0.6,0c0.4,0,0.7-0.2,0.7-0.6
		c0-0.4-0.3-0.7-0.7-0.7c-0.2,0-0.4,0-0.6,0c0-0.9,0-1.8,0-2.7c0.2,0,0.4,0,0.6,0c0.4,0,0.7-0.3,0.7-0.6c0-0.4-0.2-0.7-0.6-0.7
		c-0.2,0-0.4,0-0.7,0c0-0.9,0-1.8,0-2.7c0.2,0,0.4,0,0.6,0c0.4,0,0.7-0.2,0.7-0.6c0-0.4-0.2-0.7-0.6-0.7c-0.2,0-0.4,0-0.7,0
		c0-0.9,0-1.8,0-2.7c0.2,0,0.4,0,0.6,0c0.4,0,0.7-0.3,0.7-0.6c0-0.4-0.3-0.6-0.7-0.7c-0.2,0-0.4,0-0.6,0c0-0.9,0-1.8,0-2.7
		c0.2,0,0.4,0,0.6,0c0.4,0,0.7-0.3,0.7-0.6c0-0.4-0.2-0.7-0.7-0.7c-0.2,0-0.4,0-0.7,0c0-0.9,0-1.8,0-2.7c0.2,0,0.4,0,0.6,0
		C5,6.7,5.3,6.4,5.3,6c0-0.4-0.3-0.6-0.7-0.6c-0.2,0-0.4,0-0.6,0c0-1.4,0-2.7,0-4c6.5,0,13.1,0,19.7,0c-2.2,1.3-3.7,3.2-4.5,5.5
		c-0.8,2.4-0.7,4.8,0.3,7.1c0.9,2.2,2.5,3.8,4.6,4.9c2.1,1.1,4.3,1.4,6.6,0.9C30.6,26.1,30.6,32.4,30.6,38.7z M28.6,18.7
		c-4.8,0-8.6-3.9-8.7-8.5c0-4.9,3.9-8.8,8.7-8.8c4.8,0,8.6,3.9,8.6,8.7C37.3,14.8,33.4,18.7,28.6,18.7z"/>
	<path class="st0" d="M1.4,33.8c0,0-0.1,0-0.1,0.1c0,0.2,0.1,0.4,0.1,0.6c0.1,0,0.1,0,0.2,0c0-0.1,0.1-0.2,0.1-0.4
		C1.6,34,1.5,33.9,1.4,33.8z"/>
	<path class="st0" d="M24.5,25.3c-5.3,0-10.5,0-15.8,0c-0.1,0-0.2,0-0.3,0c-0.3,0.1-0.5,0.4-0.4,0.7c0.1,0.3,0.3,0.5,0.7,0.5
		c2.7,0,5.3,0,8,0c2.6,0,5.3,0,7.9,0c0.3,0,0.5-0.1,0.6-0.4C25.4,25.9,25.2,25.3,24.5,25.3z"/>
	<path class="st0" d="M24.7,29.4c-0.1,0-0.2,0-0.3,0c-1.7,0-3.4,0-5.1,0c-3.5,0-7,0-10.5,0C8.3,29.3,8,29.6,8,30
		c0,0.4,0.3,0.6,0.8,0.6c2.6,0,5.2,0,7.9,0c2.7,0,5.3,0,8,0c0.4,0,0.7-0.3,0.7-0.6C25.3,29.6,25,29.4,24.7,29.4z"/>
	<path class="st0" d="M8.7,22.7c1.7,0,3.5,0,5.2,0c1.7,0,3.5,0,5.2,0c0.1,0,0.3,0,0.4-0.1c0.3-0.1,0.4-0.4,0.4-0.7
		c-0.1-0.3-0.3-0.5-0.7-0.5c-3.5,0-7,0-10.5,0C8.3,21.4,8,21.6,8,22C8,22.4,8.3,22.7,8.7,22.7z"/>
	<path class="st0" d="M8.7,18.7c1.3,0,2.6,0,3.9,0c1.3,0,2.6,0,3.9,0c0.4,0,0.7-0.2,0.7-0.6c0-0.4-0.3-0.7-0.7-0.7
		c-2.6,0-5.3,0-7.9,0C8.3,17.4,8,17.6,8,18C8,18.4,8.3,18.7,8.7,18.7z"/>
	<path class="st0" d="M8.7,6.7c2.2,0,4.4,0,6.6,0C15.7,6.7,16,6.4,16,6c0-0.4-0.3-0.6-0.7-0.6c-1.1,0-2.2,0-3.3,0
		c-1.1,0-2.2,0-3.3,0C8.3,5.4,8,5.6,8,6C8,6.4,8.3,6.7,8.7,6.7z"/>
	<path class="st0" d="M8.7,14.7c1.1,0,2.2,0,3.3,0c1.1,0,2.2,0,3.3,0c0.4,0,0.7-0.3,0.7-0.6c0-0.4-0.3-0.7-0.7-0.7
		c-2.2,0-4.4,0-6.6,0C8.3,13.4,8,13.6,8,14C8,14.4,8.3,14.7,8.7,14.7z"/>
	<path class="st0" d="M8.7,9.4C8.3,9.4,8,9.6,8,10c0,0.4,0.3,0.6,0.7,0.6c1.1,0,2.2,0,3.3,0c1.1,0,2.2,0,3.3,0
		c0.4,0,0.7-0.3,0.7-0.6c0-0.4-0.3-0.7-0.7-0.7C13.1,9.3,10.9,9.3,8.7,9.4z"/>
	<path class="st0" d="M3.7,31.7c-0.2,0-0.4,0.2-0.4,0.4c0,0.2,0.1,0.4,0.3,0.4C4,32.4,4,32.2,4,32.1C4,31.8,3.9,31.7,3.7,31.7z"/>
	<path class="st0" d="M33.5,4.7c-0.3-0.1-0.5,0-0.7,0.2c-1,1-2.1,2.1-3.1,3.1c-0.1,0.1-0.2,0.2-0.4,0.1C28.9,8,28.4,8,28,8.1
		c-0.2,0.1-0.3,0-0.4-0.1c-0.6-0.6-1.2-1.2-1.8-1.8C25.7,6.1,25.4,6,25.2,6c-0.5,0.1-0.7,0.7-0.3,1.1c0.6,0.6,1.2,1.2,1.8,1.8
		c0.1,0.1,0.2,0.2,0.1,0.4c-0.4,1.3,0.6,2.6,1.9,2.6c1.4,0,2.3-1.3,1.9-2.6c-0.1-0.2,0-0.3,0.1-0.4c0.6-0.6,1.1-1.1,1.7-1.7
		c0.5-0.5,1-1,1.5-1.4C34.1,5.4,34,4.8,33.5,4.7z M28.7,10.7c-0.4,0-0.7-0.3-0.7-0.7c0-0.4,0.3-0.7,0.7-0.7c0.4,0,0.7,0.3,0.7,0.7
		C29.3,10.4,29,10.7,28.7,10.7z"/>
</g>
</svg>
