<?xml version="1.0" encoding="utf-8"?>
<!-- Generator: Adobe Illustrator 23.0.5, SVG Export Plug-In . SVG Version: 6.00 Build 0)  -->
<svg version="1.1" id="Layer_1" xmlns="http://www.w3.org/2000/svg" xmlns:xlink="http://www.w3.org/1999/xlink" x="0px" y="0px"
	 viewBox="0 0 40 40" style="enable-background:new 0 0 40 40;" xml:space="preserve">
<style type="text/css">
	.st0{fill:#F9BC33;}
</style>
<g>
	<path class="st0" d="M20.3,0.2c0.6,0.2,0.8,0.7,0.7,1.3c0,0.8,0,1.6,0,2.4c0,0.2,0,0.3,0.3,0.3C28,4.8,33.3,9.5,34.7,16
		c0.2,1.1,0.3,2.1,0.3,3.2c0,2.3,0,4.6,0,6.8c0,0.3,0.1,0.4,0.4,0.4c1.2,0,2.4,0,3.5,0c0.8,0,1.1,0.4,1.1,1.1c0,1.7,0,3.5,0,5.2
		c0,0.7-0.4,1.1-1.1,1.1c-12.6,0-25.2,0-37.8,0c-0.6,0-0.9-0.3-1.1-0.7C0,33,0,33,0,33c0.1,0,0.1-0.2,0.1-0.2c0-1.8,0-3.6,0-5.3
		c0-0.1,0-0.2-0.1-0.2c0,0,0-0.1,0-0.1c0.3-0.6,0.9-0.7,1.5-0.7c10.4,0,20.7,0,31.1,0c0.4,0,0.5-0.1,0.5-0.5c0-2.4,0-4.9,0-7.3
		c-0.1-6.2-4.7-11.4-10.8-12.4c-5.6-0.9-10.9,1.6-13.6,6.4C7.5,14.6,7,16.8,7,19c0,1.5,0,3.1,0,4.6c0,0.8-0.7,1.3-1.3,1
		c-0.3-0.1-0.6-0.4-0.6-0.7c0.1-2.8-0.3-5.6,0.4-8.4c1.6-5.9,5.3-9.5,11.2-11c0.7-0.2,1.5-0.3,2.2-0.3c0.2,0,0.3-0.1,0.3-0.3
		c0-0.8,0-1.6,0-2.4c0-0.6,0.2-1.1,0.8-1.3C20.1,0.2,20.2,0.2,20.3,0.2z M20,31.9c0.4,0,0.7,0,1.1,0c5.5,0,11.1,0,16.6,0
		c0.3,0,0.4-0.1,0.4-0.4c0-0.9,0-1.8,0-2.7c0-0.4-0.1-0.5-0.5-0.5c-11.8,0-23.5,0-35.3,0c-0.1,0-0.1,0-0.2,0c-0.2,0-0.3,0.1-0.3,0.3
		c0,1,0,1.9,0,2.9c0,0.4,0.1,0.4,0.4,0.4C8.2,31.9,14.1,31.9,20,31.9z"/>
	<path class="st0" d="M19.4,39.8c-0.3-0.1-0.6-0.2-1-0.3c-1.6-0.6-2.8-2.2-2.8-4c0-0.5,0.4-1,0.8-1c0.5,0,0.9,0.3,1,0.8
		c0,0.2,0,0.4,0.1,0.7c0.3,1.2,1.4,2,2.6,1.9c1.2-0.1,2.2-1,2.3-2.2c0.1-0.7,0.4-1.1,0.9-1.1c0.6,0,1.1,0.4,1,1.1
		c-0.2,2.1-1.5,3.6-3.5,4c-0.1,0-0.1,0-0.2,0.1C20.3,39.8,19.8,39.8,19.4,39.8z"/>
	<path class="st0" d="M0,27.2c0.1,0,0.1,0.2,0.1,0.2c0,1.8,0,3.6,0,5.3c0,0.1,0,0.2-0.1,0.2C0,31.1,0,29.1,0,27.2z"/>
</g>
</svg>
