<?xml version="1.0" encoding="utf-8"?>
<!-- Generator: Adobe Illustrator 23.0.5, SVG Export Plug-In . SVG Version: 6.00 Build 0)  -->
<svg version="1.1" id="Layer_1" xmlns="http://www.w3.org/2000/svg" xmlns:xlink="http://www.w3.org/1999/xlink" x="0px" y="0px"
	 viewBox="0 0 40 40" style="enable-background:new 0 0 40 40;" xml:space="preserve">
<style type="text/css">
	.st0{fill:#F8BC31;}
</style>
<g>
	<path class="st0" d="M36.5,9.9c0.4,0.1,0.8,0.2,1.2,0.3c1.3,0.5,2.2,1.7,2.2,3.1c0,1.4,0,2.9,0,4.3c0,5.2,0,10.5,0,15.7
		c0,2.1-1.3,3.8-3.3,4.3c-0.4,0.1-0.7,0.1-1.1,0.1c-10.4,0-20.8,0-31.2,0c-2.5,0-4.4-1.9-4.4-4.3c0-8.4,0-16.8,0-25.2
		c0-2.1,1.5-3.5,3.7-3.5c5.6,0,11.2,0,16.8,0c0.3,0,0.7-0.1,1-0.2c2.1-0.7,4.2-1.5,6.3-2.3C28.6,2,29,2.2,29.3,3
		c0.2,0.5,0.4,1,0.5,1.5c0.1,0.2,0.2,0.3,0.5,0.3c0.9,0,1.8,0,2.7,0c2,0,3.5,1.5,3.5,3.5C36.5,8.9,36.5,9.4,36.5,9.9z M1.7,11.2
		c0,0.2,0,0.3,0,0.4c0,7.2,0,14.4,0,21.6c0,1.6,1.1,2.7,2.7,2.8c10.4,0,20.7,0,31.1,0c1.6,0,2.7-1.1,2.7-2.7c0-1.8,0-3.7,0-5.5
		c0-0.1,0-0.3,0-0.4c-1.2,0-2.4,0-3.5,0c-1.7,0-3.2-1.4-3.4-3c-0.2-1.8,0.9-3.4,2.6-3.8c0.4-0.1,0.7-0.1,1.1-0.1c1.1,0,2.1,0,3.2,0
		c0-0.2,0-0.3,0-0.5c0-2.1,0-4.1,0-6.2c0-1.4-0.7-2-2-2c-10.7,0-21.3,0-32,0C3.4,11.7,2.6,11.7,1.7,11.2z M11.9,9.9
		C11.9,9.9,11.9,9.9,11.9,9.9c6,0.1,12,0.1,18.1,0.1c-0.7-2-1.4-3.9-2.1-5.8C22.5,6.1,17.2,8,11.9,9.9z M16,6.6
		C16,6.6,16,6.5,16,6.6c-0.2-0.1-0.3-0.1-0.4-0.1c-3.9,0-7.8,0-11.7,0c-0.1,0-0.3,0-0.4,0C2.6,6.6,1.9,7.2,1.8,8
		C1.6,8.8,2.1,9.7,2.9,9.8c1.3,0.1,2.7,0.1,4,0.1c0,0,0,0,0.1,0c1.4-0.5,2.8-1,4.2-1.5C12.7,7.8,14.4,7.2,16,6.6z M38.2,22.2
		C38.2,22.2,38.2,22.2,38.2,22.2c-1.2,0-2.3,0-3.3,0c-1.1,0-1.8,0.7-1.9,1.7c0,1,0.7,1.8,1.8,1.8c0.9,0,1.8,0,2.6,0
		c0.2,0,0.5,0,0.7,0C38.2,24.5,38.2,23.3,38.2,22.2z M34.8,10c0-0.1,0-0.2,0-0.3c0-0.5,0-1.1,0-1.6c0-0.8-0.6-1.5-1.5-1.6
		c-0.9-0.1-1.8,0-2.8,0c0.4,1.1,0.8,2.2,1.2,3.3c0,0.1,0.2,0.2,0.2,0.2C32.9,10,33.8,10,34.8,10z"/>
	<path class="st0" d="M36.5,24.8c-0.6,0-1.1,0-1.7,0c0-0.6,0-1.1,0-1.7c0.6,0,1.1,0,1.7,0C36.5,23.6,36.5,24.2,36.5,24.8z"/>
</g>
</svg>
