<?xml version="1.0" encoding="utf-8"?>
<!-- Generator: Adobe Illustrator 23.0.5, SVG Export Plug-In . SVG Version: 6.00 Build 0)  -->
<svg version="1.1" id="Layer_1" xmlns="http://www.w3.org/2000/svg" xmlns:xlink="http://www.w3.org/1999/xlink" x="0px" y="0px"
	 viewBox="0 0 40 40" style="enable-background:new 0 0 40 40;" xml:space="preserve">
<style type="text/css">
	.st0{fill:#F9BC33;}
</style>
<g>
	<path class="st0" d="M32.6,40c-8.2,0-16.4,0-24.5,0c0,0-0.1-0.1-0.1-0.1c-1.4-0.4-2.3-1.5-2.3-3c0-1,0-1.9,0-2.9c0-0.4,0-0.8,0-1.2
		c-0.1,0-0.2,0-0.2-0.1c-1.4-0.3-2.3-1.3-2.3-2.7c0-2,0-3.9,0-5.9c0-1.1,0.5-1.8,1.4-2.3c0.3-0.2,0.7-0.2,1.1-0.4c0-0.1,0-0.2,0-0.3
		c0-1.6,0-3.2,0-4.8c0-4.6,0-9.1,0-13.7c0-1.4,0.8-2.4,2.1-2.8c0,0,0.1,0,0.1-0.1c6.2,0,12.3,0,18.5,0c0.1,0.1,0.3,0.2,0.4,0.4
		C29.4,3.2,32,6,34.7,8.8C34.9,9.1,35,9.4,35,9.7c0,3.9,0,7.7,0,11.6c0,0.3,0.1,0.5,0.4,0.6c0.9,0.5,1.5,1.3,1.5,2.3c0,2,0,4,0,6.1
		c0,0.7-0.3,1.4-0.8,1.9c-0.3,0.3-0.7,0.5-1,0.7c0,0,0,0,0,0c0,1.4,0,2.8,0,4.1c0,1.4-0.9,2.5-2.2,2.9C32.7,39.9,32.6,40,32.6,40z
		 M25.6,1.2c-0.2,0-0.3,0-0.4,0c-5.6,0-11.1,0-16.7,0C7.4,1.2,6.8,1.8,6.8,3c0,6.1,0,12.2,0,18.3c0,0.1,0,0.3,0,0.4c9,0,18,0,26.9,0
		c0-3.8,0-7.6,0-11.4c-0.2,0-0.3,0-0.5,0c-1.5,0-3.1,0-4.6,0c-1.8,0-3.1-1.3-3.1-3.1c0-1.8,0-3.7,0-5.5C25.6,1.5,25.6,1.4,25.6,1.2z
		 M20,31.7c4.7,0,9.4,0,14.1,0c1.1,0,1.7-0.6,1.7-1.7c0-1.8,0-3.6,0-5.5c0-0.2,0-0.4,0-0.6c-0.1-0.5-0.4-0.9-0.9-1
		c-0.3-0.1-0.7-0.1-1-0.1c-7.3,0-14.5,0-21.8,0c-1.1,0-2.1,0.1-3.2,0c-1-0.1-2.1,0.3-3.1,0c0,0-0.1,0-0.2,0
		c-0.7,0.1-1.2,0.7-1.2,1.5c0,1.9,0,3.7,0,5.6c0,1.1,0.5,1.7,1.6,1.7C10.6,31.7,15.3,31.7,20,31.7z M33.8,33c-9,0-18,0-27,0
		c0,1.4,0,2.8,0,4.2c0,0.9,0.8,1.6,1.7,1.6c7.8,0,15.6,0,23.5,0c1,0,1.8-0.7,1.8-1.8c0-1,0-2,0-3C33.8,33.7,33.8,33.3,33.8,33z
		 M33.1,9.1c-2.1-2.3-4.1-4.6-6.2-6.9c0,0.2,0,0.3,0,0.4c0,1.6,0,3.2,0,4.8c0,0.9,0.8,1.6,1.7,1.6C30,9.1,31.5,9.1,33.1,9.1z"/>
	<path class="st0" d="M20.2,19c3.3,0,6.6,0,9.8,0c0.4,0,0.7,0.2,0.7,0.6c0,0.3-0.2,0.6-0.6,0.6c-0.1,0-0.3,0-0.4,0
		c-6.3,0-12.6,0-18.9,0c-0.2,0-0.4,0-0.5,0c-0.4,0-0.7-0.3-0.7-0.6c0-0.4,0.3-0.6,0.7-0.6C13.6,19,16.9,19,20.2,19
		C20.2,19,20.2,19,20.2,19z"/>
	<path class="st0" d="M20.3,11.8c3.2,0,6.4,0,9.5,0c0.2,0,0.4,0,0.6,0c0.4,0,0.6,0.3,0.6,0.6c0,0.3-0.3,0.6-0.6,0.6
		c-3.1,0-6.2,0-9.3,0c-3.4,0-6.9,0-10.3,0c-0.2,0-0.3,0-0.5,0c-0.4,0-0.7-0.2-0.7-0.6c0-0.4,0.3-0.6,0.7-0.6
		C13.6,11.8,17,11.8,20.3,11.8C20.3,11.8,20.3,11.8,20.3,11.8z"/>
	<path class="st0" d="M20.3,15.4c3.2,0,6.5,0,9.7,0c0.4,0,0.7,0.2,0.7,0.5c0,0.4-0.2,0.7-0.7,0.7c-1,0-2,0-2.9,0
		c-5.4,0-10.9,0-16.3,0c-0.1,0-0.2,0-0.3,0c-0.4,0-0.7-0.2-0.7-0.6c0-0.4,0.3-0.6,0.7-0.6c2.4,0,4.7,0,7.1,0
		C18.5,15.4,19.4,15.4,20.3,15.4z"/>
	<path class="st0" d="M15.7,7.6c1.8,0,3.5,0,5.3,0c0.3,0,0.6,0.1,0.6,0.4c0,0.2,0,0.5-0.1,0.6c-0.1,0.1-0.4,0.2-0.6,0.2
		c-3.3,0-6.6,0-9.9,0c-0.2,0-0.4,0-0.7,0c-0.4,0-0.7-0.3-0.7-0.6c0-0.4,0.3-0.6,0.7-0.6C12.1,7.6,13.9,7.6,15.7,7.6
		C15.7,7.6,15.7,7.6,15.7,7.6z"/>
	<path class="st0" d="M15.8,5.8c-1.7,0-3.5,0-5.2,0c-0.3,0-0.6-0.1-0.6-0.4c0-0.2,0-0.5,0.1-0.6c0.1-0.1,0.4-0.2,0.6-0.2
		c2.8,0,5.7,0,8.5,0c0.5,0,1.1,0,1.6,0c0.6,0,0.9,0.2,0.8,0.6c0,0.4-0.3,0.6-0.9,0.6C19.2,5.8,17.5,5.8,15.8,5.8z"/>
	<path class="st0" d="M8.8,26c1.1,0,1.1,0,1.4-1c0.1-0.3,0.2-0.6,0.3-0.8c0.1-0.3,0.3-0.5,0.6-0.4c0.2,0,0.5,0.2,0.6,0.4
		c0.2,0.4,0.3,0.9,0.5,1.4c0.1,0.3,0.2,0.5,0.6,0.4c0.4,0,0.9,0,1.3,0c0.3,0,0.6,0.1,0.7,0.4c0.1,0.4-0.1,0.6-0.4,0.8
		c-0.4,0.3-0.8,0.6-1.2,0.8c-0.2,0.1-0.3,0.3-0.2,0.5c0.2,0.5,0.3,1,0.5,1.4c0.1,0.3,0.1,0.6-0.2,0.8c-0.3,0.2-0.5,0.1-0.8,0
		c-0.4-0.3-0.9-0.6-1.3-0.9c-0.1-0.1-0.3-0.1-0.4,0c-0.4,0.3-0.9,0.6-1.3,0.9C9.3,30.9,9,31,8.7,30.8c-0.3-0.2-0.3-0.5-0.2-0.8
		c0.2-0.5,0.3-1,0.5-1.4c0.1-0.3,0-0.4-0.2-0.6c-0.4-0.3-0.8-0.6-1.2-0.8c-0.3-0.2-0.4-0.4-0.3-0.7C7.5,26.1,7.7,26,8,26
		C8.3,26,8.5,26,8.8,26z M10.3,28.6c0.5-0.4,0.9-0.4,1.4,0c-0.3-0.6-0.1-1,0.5-1.3c-0.3-0.1-0.6-0.1-0.8-0.2
		c-0.2-0.1-0.3-0.4-0.4-0.6c-0.1,0.2-0.2,0.5-0.4,0.6c-0.2,0.1-0.5,0.1-0.8,0.2C10.4,27.6,10.5,28,10.3,28.6z"/>
	<path class="st0" d="M27.1,28.2c-0.5-0.4-1-0.7-1.4-1c-0.3-0.2-0.4-0.4-0.3-0.8c0.1-0.3,0.4-0.4,0.7-0.4c0.5,0,1,0,1.5,0
		c0.2,0,0.3-0.1,0.4-0.3c0.2-0.5,0.3-1,0.5-1.5c0.1-0.3,0.3-0.5,0.6-0.5c0.3,0,0.5,0.2,0.6,0.5c0.1,0.5,0.3,0.9,0.5,1.4
		c0.1,0.2,0.2,0.4,0.5,0.3c0.5,0,1,0,1.5,0c0.3,0,0.6,0.1,0.7,0.4c0.1,0.3,0,0.6-0.3,0.7c-0.4,0.3-0.8,0.6-1.3,0.9
		c-0.2,0.1-0.3,0.2-0.2,0.5c0.2,0.5,0.3,1,0.5,1.5c0.1,0.3,0.1,0.6-0.2,0.8c-0.3,0.2-0.5,0.1-0.8-0.1c-0.4-0.3-0.9-0.6-1.3-0.9
		c-0.2-0.1-0.3-0.1-0.4,0c-0.4,0.3-0.8,0.6-1.2,0.9c-0.3,0.2-0.6,0.3-0.9,0.1c-0.3-0.2-0.3-0.5-0.2-0.9
		C26.7,29.3,26.9,28.8,27.1,28.2z M30.2,27.3c-0.7,0.1-1-0.2-1.2-0.9c-0.1,0.7-0.5,0.9-1.2,0.9c0.6,0.3,0.7,0.8,0.4,1.4
		c0.5-0.5,0.9-0.5,1.4,0C29.4,28,29.6,27.6,30.2,27.3z"/>
	<path class="st0" d="M18.1,28.2c-0.5-0.4-1-0.7-1.4-1c-0.3-0.2-0.4-0.4-0.3-0.8c0.1-0.3,0.4-0.4,0.7-0.4c0.5,0,1,0,1.4,0
		c0.3,0,0.4-0.1,0.5-0.4c0.1-0.4,0.3-0.9,0.4-1.3c0.1-0.3,0.3-0.6,0.6-0.6c0.4,0,0.5,0.3,0.6,0.6c0.1,0.5,0.3,0.9,0.4,1.4
		c0.1,0.3,0.2,0.3,0.4,0.3c0.5,0,1,0,1.4,0c0.3,0,0.5,0.1,0.6,0.4c0.1,0.3,0,0.6-0.3,0.7c-0.4,0.3-0.8,0.6-1.2,0.9
		c-0.2,0.2-0.3,0.3-0.2,0.6c0.2,0.5,0.3,1,0.5,1.4c0.1,0.3,0.1,0.6-0.2,0.8c-0.3,0.2-0.5,0.1-0.8,0c-0.4-0.3-0.9-0.6-1.3-0.9
		c-0.2-0.2-0.3-0.2-0.5,0c-0.4,0.3-0.8,0.6-1.2,0.9c-0.3,0.2-0.5,0.3-0.8,0.1c-0.3-0.2-0.3-0.5-0.2-0.8
		C17.7,29.4,17.9,28.8,18.1,28.2z M20,26.4c-0.1,0.7-0.5,0.9-1.2,0.9c0.6,0.3,0.7,0.8,0.4,1.4c0.5-0.5,1-0.4,1.4,0
		c-0.3-0.6-0.1-1,0.4-1.4C20.5,27.3,20.1,27.1,20,26.4z"/>
	<path class="st0" d="M20.3,35.9c-3.2,0-6.4,0-9.5,0c-0.2,0-0.3,0-0.5,0c-0.4,0-0.7-0.2-0.7-0.6c0-0.4,0.3-0.6,0.7-0.6
		c2.2,0,4.4,0,6.6,0c4.3,0,8.7,0,13,0c0.2,0,0.3,0,0.5,0c0.4,0,0.7,0.3,0.7,0.6c0,0.4-0.3,0.6-0.7,0.6C27.1,36,23.7,36,20.3,35.9
		C20.3,36,20.3,36,20.3,35.9z"/>
</g>
</svg>
