<?xml version="1.0" encoding="utf-8"?>
<!-- Generator: Adobe Illustrator 23.0.5, SVG Export Plug-In . SVG Version: 6.00 Build 0)  -->
<svg version="1.1" id="Layer_1" xmlns="http://www.w3.org/2000/svg" xmlns:xlink="http://www.w3.org/1999/xlink" x="0px" y="0px"
	 viewBox="0 0 40 40" style="enable-background:new 0 0 40 40;" xml:space="preserve">
<style type="text/css">
	.st0{fill:#F8BC31;}
</style>
<g>
	<path class="st0" d="M0,23.2C0,21.6,0,20,0,18.4c0.1-1.4,0.9-2.3,2.2-2.8c1.3-0.4,2.6-0.8,3.9-1.2c0.1,0,0.3-0.1,0.3-0.2
		c0-0.1-0.1-0.3-0.2-0.4c-0.4-0.5-0.8-0.9-1.2-1.4c-0.1-0.1-0.2-0.2-0.4-0.3c-1.3-0.3-2.1-1.3-2.1-2.6c0-1,0-2.1,0-3.1
		c0-2.7,1.7-5.1,4.2-6c2.6-0.9,5.3-0.2,7.1,1.9c0.2,0.2,0.4,0.3,0.7,0.3c6,0,12.1,0,18.1,0c0.3,0,0.5,0.1,0.8,0.3
		c2.1,2.1,4.2,4.2,6.2,6.2C39.9,9.3,40,9.5,40,9.8c0,9.9,0,19.9,0,29.8c0,0.1,0,0.3,0,0.4c-9.9,0-19.7,0-29.6,0c0-5.6,0-11.1,0-16.7
		C6.9,23.2,3.5,23.2,0,23.2z M11.6,38.7c9,0,18,0,27,0c0-9.5,0-18.9,0-28.4c-2.1,0-4.3,0-6.4,0c0-2.2,0-4.3,0-6.4
		c-5.8,0-11.5,0-17.2,0c0.1,0.5,0.4,1.1,0.4,1.6c0.1,1.4,0.1,2.7,0.1,4.1c0,1.4-0.8,2.3-2.1,2.7c-0.1,0-0.3,0.1-0.4,0.3
		c-0.4,0.5-0.8,0.9-1.2,1.4c-0.1,0.1-0.2,0.2-0.2,0.4c0,0.1,0.2,0.2,0.3,0.2c1.2,0.4,2.5,0.8,3.7,1.1c1.5,0.5,2.4,1.7,2.4,3.2
		c0,1.3,0,2.7,0,4c0,0.1,0,0.3,0,0.4c-2.2,0-4.3,0-6.4,0C11.6,28.4,11.6,33.5,11.6,38.7z M13.8,16.4c-0.9,1.6-1.8,3.2-2.8,4.8
		c-0.7-0.9-1.3-1.8-2-2.7c-0.7,0.9-1.3,1.8-2,2.7c-0.9-1.6-1.8-3.2-2.8-4.8c-0.6,0.2-1.1,0.3-1.6,0.5c-0.8,0.3-1.3,1-1.4,1.8
		c0,0.6,0,1.1,0,1.7c0,0.5,0,1,0,1.6c0.9,0,1.7,0,2.6,0c0-0.9,0-1.7,0-2.5c0.4,0,0.8,0,1.3,0c0,0.9,0,1.7,0,2.5c2.6,0,5.2,0,7.7,0
		c0-0.9,0-1.7,0-2.5c0.4,0,0.8,0,1.3,0c0,0.9,0,1.7,0,2.5c0.9,0,1.7,0,2.6,0c0-1.2,0-2.3,0-3.4c0-0.7-0.5-1.3-1.2-1.6
		C15,16.7,14.4,16.6,13.8,16.4z M14.2,7.3c0.2-2.1-0.5-4-2.4-5.2C10,1,8.2,1,6.4,2.1c-2,1.2-2.6,3.1-2.5,5.3C4.3,7.3,4.7,7.1,5,7.1
		c1.4,0,2.6-0.4,3.7-1.2c0.2-0.2,0.4-0.2,0.6,0c0.9,0.7,1.9,1.1,3,1.2C13,7.2,13.6,7.2,14.2,7.3z M5.8,8.4c0,0.6,0,1.3,0,2
		c0,1.6,1.3,3,2.9,3.2c1.6,0.2,3.2-0.9,3.5-2.6c0.1-0.8,0-1.7,0-2.6c0,0,0,0,0,0c-1.1-0.1-2.1-0.5-3-1c-0.1,0-0.2,0-0.4,0
		C8.4,7.6,7.9,7.9,7.4,8C6.9,8.2,6.4,8.3,5.8,8.4z M33.6,9c1.4,0,2.8,0,4.1,0c-1.4-1.4-2.7-2.7-4.1-4.1C33.6,6.3,33.6,7.6,33.6,9z
		 M5.6,16c0.5,1,1.1,1.9,1.6,2.8c0.4-0.5,0.7-0.9,1.1-1.4c-0.4-0.6-0.8-1.1-1.3-1.7c0-0.1-0.2-0.1-0.3-0.1C6.3,15.8,6,15.9,5.6,16z
		 M10.9,18.8c0.6-1,1.1-1.9,1.6-2.8c-0.4-0.1-0.8-0.2-1.1-0.3c-0.1,0-0.2,0-0.3,0.1c-0.4,0.5-0.8,1.1-1.3,1.7
		C10.2,17.9,10.5,18.3,10.9,18.8z M10.2,14.8c-0.8,0-1.6,0-2.4,0c0.4,0.5,0.8,1,1.2,1.6C9.5,15.8,9.9,15.3,10.2,14.8z M4.5,10.8
		c0-0.4,0-0.7,0-1.1c0-0.3,0-0.7,0-1C3.7,9.1,3.7,10.2,4.5,10.8z M13.6,8.6c0,0.7,0,1.3,0,1.9c0,0.1,0,0.1,0,0.2
		C14.4,10.3,14.4,9.2,13.6,8.6z"/>
	<path class="st0" d="M30,25.3c0.1-0.1,0.2-0.2,0.2-0.3c0.1-0.1,0.2-0.2,0.3-0.3c0.3,0.3,0.6,0.6,0.9,0.9c-0.2,0.2-0.4,0.4-0.5,0.6
		c1.9,2.7,1.9,5.4,0,8.2c0.2,0.2,0.4,0.4,0.6,0.6c-0.3,0.3-0.6,0.6-0.9,0.9c-0.2-0.2-0.4-0.4-0.6-0.5c-2.7,1.9-5.4,1.9-8.2,0
		c-0.2,0.2-0.4,0.4-0.6,0.6c-0.3-0.3-0.6-0.6-0.9-0.9c0.2-0.2,0.4-0.4,0.5-0.6c-1.9-2.7-1.9-5.4,0.1-8.3c-0.1-0.1-0.2-0.1-0.3-0.2
		c-0.1-0.1-0.2-0.2-0.3-0.3c0.3-0.3,0.6-0.6,0.9-0.9c0.2,0.2,0.4,0.4,0.6,0.5C24.4,23.4,27.2,23.4,30,25.3z M25.8,29.3
		c1-1,2-2.1,3.1-3.1c-1.9-1.6-4.8-1.3-6.2,0C23.8,27.3,24.8,28.3,25.8,29.3z M21.7,27.2c-1.5,1.8-1.3,4.7,0,6.1c1-1,2.1-2.1,3.1-3.1
		C23.8,29.3,22.7,28.3,21.7,27.2z M26.8,30.3c1,1,2.1,2.1,3.1,3.1c1.4-1.6,1.4-4.7,0-6.2C28.9,28.3,27.8,29.3,26.8,30.3z M22.7,34.4
		c1.9,1.6,4.8,1.2,6.2,0c-1-1-2.1-2.1-3.1-3.1C24.8,32.4,23.8,33.4,22.7,34.4z"/>
	<path class="st0" d="M30.5,11.8c0.2-0.2,0.4-0.4,0.6-0.6c0.3,0.3,0.6,0.6,0.9,1c0-0.1,0,0,0,0c-0.7,0.5-0.5,1-0.2,1.6
		c1.6,3.9-0.9,8.2-5.1,8.8c-4,0.6-7.7-2.8-7.3-6.8c0.2-2.6,1.6-4.6,4.1-5.5c2.5-1,4.8-0.4,6.8,1.4C30.4,11.6,30.4,11.7,30.5,11.8z
		 M30.3,13.8c-1.7,1.7-3.5,3.5-5.1,5.1c-1-1-2-2-2.9-2.9c0.3-0.3,0.5-0.6,0.9-0.9c0.7,0.7,1.4,1.4,2,2c1.5-1.5,3-3,4.4-4.4
		c-1.7-2-4.8-2.2-7-0.5c-2.2,1.7-2.5,4.9-0.9,7.1c1.7,2.2,4.8,2.8,7.1,1.2C31,18.8,31.5,15.8,30.3,13.8z"/>
	<path class="st0" d="M35.5,21.3c1.1,0,1.9,0.9,1.9,1.9c0,1.1-0.9,1.9-1.9,1.9c-1.1,0-1.9-0.9-1.9-1.9
		C33.6,22.2,34.4,21.3,35.5,21.3z M36.1,23.2c0-0.3-0.3-0.6-0.6-0.6c-0.3,0-0.6,0.3-0.7,0.6c0,0.4,0.3,0.7,0.7,0.7
		C35.8,23.9,36.1,23.6,36.1,23.2z"/>
	<path class="st0" d="M36.1,13.6c0,0.4,0,0.8,0,1.2c-0.4,0-0.8,0-1.3,0c0-0.4,0-0.8,0-1.2C35.3,13.6,35.7,13.6,36.1,13.6z"/>
	<path class="st0" d="M34.9,16.2c0.4,0,0.8,0,1.2,0c0,0.4,0,0.8,0,1.2c-0.4,0-0.8,0-1.2,0C34.9,17,34.9,16.6,34.9,16.2z"/>
	<path class="st0" d="M36.1,20c-0.4,0-0.8,0-1.2,0c0-0.4,0-0.8,0-1.3c0.4,0,0.8,0,1.2,0C36.1,19.1,36.1,19.6,36.1,20z"/>
	<path class="st0" d="M36.1,26.5c0,0.4,0,0.8,0,1.2c-0.4,0-0.8,0-1.3,0c0-0.4,0-0.8,0-1.2C35.3,26.5,35.7,26.5,36.1,26.5z"/>
	<path class="st0" d="M34.9,29c0.4,0,0.8,0,1.2,0c0,0.4,0,0.8,0,1.3c-0.4,0-0.8,0-1.2,0C34.9,29.9,34.9,29.5,34.9,29z"/>
	<path class="st0" d="M34.9,31.6c0.4,0,0.8,0,1.2,0c0,0.4,0,0.8,0,1.3c-0.4,0-0.8,0-1.2,0C34.9,32.5,34.9,32.1,34.9,31.6z"/>
</g>
</svg>
