<?xml version="1.0" encoding="utf-8"?>
<!-- Generator: Adobe Illustrator 23.0.5, SVG Export Plug-In . SVG Version: 6.00 Build 0)  -->
<svg version="1.1" id="Layer_1" xmlns="http://www.w3.org/2000/svg" xmlns:xlink="http://www.w3.org/1999/xlink" x="0px" y="0px"
	 viewBox="0 0 40 40" style="enable-background:new 0 0 40 40;" xml:space="preserve">
<style type="text/css">
	.st0{fill:#F8BC31;}
</style>
<g>
	<path class="st0" d="M0,18.7c0-0.8,0-1.5,0-2.3c0-0.1,0.1-0.2,0.1-0.3c0.2-2.7,1-5.2,2.4-7.5c2.7-4.5,6.7-7.3,11.9-8.3
		C15,0.2,15.7,0.1,16.4,0c0.8,0,1.5,0,2.3,0c0.1,0,0.2,0.1,0.3,0.1c1.8,0.1,3.5,0.6,5.2,1.2c8.6,3.4,13.1,13.2,10,21.9
		c-0.5,1.3-1.1,2.5-1.7,3.8c-0.1,0-0.1,0-0.2,0c0.1,0.1,0.2,0.2,0.3,0.3c1.9,1.9,3.7,3.7,5.6,5.6c0.8,0.8,1.6,1.7,1.8,2.9
		c0,0.4,0,0.7,0,1.1c0,0-0.1,0.1-0.1,0.1c-0.4,1.7-1.4,2.7-3,3c0,0-0.1,0-0.1,0.1c-0.4,0-0.7,0-1.1,0c-1.2-0.2-2-1-2.9-1.8
		c-1.8-1.9-3.7-3.7-5.6-5.6c-0.1-0.1-0.2-0.2-0.3-0.3c-2.4,1.5-5,2.5-7.8,2.7c-4.7,0.4-8.9-0.8-12.6-3.8C3.2,28.5,1.1,25,0.3,20.7
		C0.2,20,0.1,19.4,0,18.7z M30.1,17.5C30.1,10.6,24.4,5,17.5,5C10.6,5,5,10.6,5,17.5c0,6.9,5.6,12.6,12.5,12.5
		C24.4,30,30.1,24.4,30.1,17.5z"/>
</g>
</svg>
