<?xml version="1.0" encoding="utf-8"?>
<!-- Generator: Adobe Illustrator 23.0.5, SVG Export Plug-In . SVG Version: 6.00 Build 0)  -->
<svg version="1.1" id="Layer_1" xmlns="http://www.w3.org/2000/svg" xmlns:xlink="http://www.w3.org/1999/xlink" x="0px" y="0px"
	 viewBox="0 0 40 40" style="enable-background:new 0 0 40 40;" xml:space="preserve">
<style type="text/css">
	.st0{fill:#F8BC31;}
</style>
<g>
	<path class="st0" d="M12.5,0c0,0.4,0,0.8,0,1.2c-0.2,0-0.3,0-0.5,0c-3.3,0-6.6,0-9.9,0c-0.7,0-0.8,0.1-0.8,0.8c0,0.9,0,1.9,0,2.8
		c0,0,0,0,0,0.1c1.6,0,3.3,0,4.9,0c0,0.4,0,0.8,0,1.3c-1.6,0-3.3,0-5,0c0,0.2,0,0.3,0,0.5c0,10.4,0,20.8,0,31.2
		c0,0.8,0.1,0.9,0.9,0.9c11.9,0,23.8,0,35.7,0c0.8,0,0.9-0.1,0.9-0.9c0-10.4,0-20.8,0-31.2c0-0.1,0-0.3,0-0.4c-1.7,0-3.3,0-5,0
		c0-0.4,0-0.8,0-1.2c1.6,0,3.3,0,4.9,0c0-0.1,0-0.2,0-0.3c0-0.9,0-1.8,0-2.7c0-0.6-0.2-0.7-0.7-0.7c-3.3,0-6.7,0-10,0
		c-0.2,0-0.3,0-0.5,0c0-0.4,0-0.8,0-1.2c3.6,0,7.3,0,10.9,0c0.8,0.3,1.3,0.8,1.6,1.6c0,12.3,0,24.6,0,36.9c-0.3,0.8-0.8,1.3-1.6,1.6
		c-12.3,0-24.6,0-36.9,0c-0.8-0.3-1.3-0.8-1.6-1.6C0,26.1,0,13.9,0,1.6C0.3,0.8,0.8,0.3,1.6,0C5.2,0,8.9,0,12.5,0z"/>
	<path class="st0" d="M20.3,0c0.6,0.1,1.2,0.1,1.9,0.2c5.3,0.9,9.6,4.9,10.7,10.2c0.4,2.1,0.4,4.3-0.2,6.4c0,0.1,0,0.1-0.1,0.2
		c-0.4-0.1-0.8-0.2-1.1-0.3c0.2-1,0.4-1.9,0.5-2.9c-1.5,0-3,0-4.4,0c-0.1,1.1-0.3,2.1-0.4,3.2c-0.5-0.1-0.8-0.2-1.2-0.3
		c0.1-1,0.2-2,0.4-3c-1.9,0-3.8,0-5.6,0c0,1,0,2,0,3.1c-0.4,0-0.8,0-1.2,0c0-1,0-2,0-3.1c-1.9,0-3.7,0-5.7,0c0.1,1,0.2,2,0.4,3
		c-0.4,0.1-0.8,0.2-1.2,0.3c-0.1-1.1-0.3-2.2-0.4-3.2c-1.4,0-2.8,0-4.4,0c0.2,1,0.4,1.9,0.5,2.9c-0.3,0.1-0.7,0.2-1.2,0.4
		c-0.1-0.6-0.3-1.2-0.4-1.8C6,9.2,9.6,3,15.4,0.9c1.3-0.5,2.5-0.7,3.9-0.8c0.1,0,0.3,0,0.4-0.1C19.9,0,20.1,0,20.3,0z M19.4,7.5
		c-1.5,0-3,0-4.4,0c-0.1,0-0.2,0.2-0.3,0.3c-0.3,1-0.5,2-0.7,3c-0.1,0.6-0.1,1.1-0.2,1.7c1.9,0,3.8,0,5.6,0
		C19.4,10.8,19.4,9.2,19.4,7.5z M20.6,12.5c1.9,0,3.7,0,5.6,0c-0.1-1.6-0.3-3.2-0.9-4.7c-0.1-0.2-0.2-0.3-0.4-0.3
		c-1.2,0-2.4,0-3.6,0c-0.2,0-0.5,0-0.7,0C20.6,9.2,20.6,10.8,20.6,12.5z M31.8,12.5C31.9,12.4,31.9,12.4,31.8,12.5
		c-0.1-1.8-0.5-3.3-1.3-4.8c-0.1-0.1-0.2-0.2-0.4-0.2c-0.7,0-1.3,0-2,0c-0.5,0-1.1,0-1.5,0c0.3,1.7,0.6,3.3,0.9,5
		C29,12.5,30.4,12.5,31.8,12.5z M8.1,12.5c1.5,0,2.9,0,4.3,0c0.3-1.7,0.6-3.3,0.9-5c-1.1,0-2.4,0-3.6,0c-0.1,0-0.2,0.1-0.3,0.2
		C8.7,9.2,8.2,10.8,8.1,12.5z M17.5,1.5c-3,0.7-5.3,2.3-7.2,4.7c0.1,0,0.1,0,0.1,0c1.1,0,2.2,0,3.2,0c0.1,0,0.3-0.2,0.3-0.3
		c0.6-0.9,1.1-1.8,1.7-2.6C16.3,2.7,16.9,2.1,17.5,1.5z M29.7,6.2c-1.9-2.5-4.2-4-7.2-4.7c0,0.1,0.1,0.1,0.1,0.1
		C24,2.9,25.1,4.4,26,6.1c0,0.1,0.2,0.2,0.3,0.2C27.3,6.3,28.5,6.2,29.7,6.2z M19.4,6.2c0-1.5,0-3,0-4.5c-1.7,1.2-3,2.7-4,4.5
		C16.7,6.2,18,6.2,19.4,6.2z M24.6,6.2c-0.5-1.4-2.8-3.9-4-4.4c0,1.5,0,2.9,0,4.4C22,6.2,23.3,6.2,24.6,6.2z"/>
	<path class="st0" d="M20,18.8c3.5,0,7,0,10.4,0c1.2,0,2,0.8,2.1,2c0,0.1,0.1,0.3,0.2,0.4c0.7,0.7,1.3,1.3,2,2
		c0.4,0.4,0.4,0.7,0,1.1c-0.7,0.7-1.3,1.3-2,2c-0.1,0.1-0.2,0.4-0.2,0.6c0,1.6,0,3.3,0,4.9c0,1.2-0.9,2-2,2c-2.3,0-4.5,0-6.8,0
		c-0.2,0-0.4,0.1-0.6,0.2c-0.9,0.8-1.7,1.7-2.6,2.6c-0.4,0.4-0.7,0.4-1.2,0c-0.9-0.9-1.7-1.7-2.6-2.6c-0.1-0.1-0.4-0.2-0.6-0.2
		c-2.2,0-4.5,0-6.7,0c-1.2,0-2-0.8-2.1-2c0-0.1-0.1-0.3-0.2-0.4c-0.7-0.7-1.3-1.3-2-2c-0.4-0.4-0.4-0.7,0-1.1
		c0.6-0.6,1.3-1.3,1.9-1.9c0.2-0.2,0.3-0.4,0.3-0.7c0-1.6,0-3.2,0-4.8c0-1.2,0.8-2.1,2.1-2.1C13,18.7,16.5,18.8,20,18.8z M33.5,23.8
		c0-0.1,0-0.1-0.1-0.1c-0.5-0.5-1-1.1-1.6-1.6c-0.4-0.4-0.6-0.8-0.6-1.3c0-0.6-0.1-0.7-0.7-0.7c-7,0-14,0-21,0
		c-0.6,0-0.8,0.2-0.8,0.8c0,1.7,0,3.4,0,5.1c0,0.4-0.1,0.8-0.4,1.1c-0.6,0.6-1.2,1.2-1.8,1.8c0.6,0.6,1.2,1.2,1.8,1.7
		c0.4,0.3,0.5,0.7,0.5,1.2c0,0.7,0.1,0.8,0.8,0.8c2.4,0,4.7,0,7.1,0c0.3,0,0.6,0.1,0.8,0.3c0.8,0.7,1.5,1.5,2.3,2.3
		c0.1,0.1,0.2,0.2,0.3,0.3c0.9-0.9,1.7-1.7,2.5-2.5c0.3-0.3,0.5-0.4,0.9-0.4c2.3,0,4.6,0,7,0c0.8,0,0.9-0.1,0.9-0.9
		c0-1.7,0-3.4,0-5.2c0-0.3,0.1-0.6,0.3-0.8C32.2,25,32.8,24.4,33.5,23.8z"/>
	<path class="st0" d="M2.5,2.5c0.4,0,0.8,0,1.2,0c0,0.4,0,0.8,0,1.2c-0.4,0-0.8,0-1.2,0C2.5,3.3,2.5,2.9,2.5,2.5z"/>
	<path class="st0" d="M6.2,2.5c0,0.4,0,0.8,0,1.2c-0.4,0-0.8,0-1.2,0c0-0.4,0-0.8,0-1.2C5.4,2.5,5.8,2.5,6.2,2.5z"/>
	<path class="st0" d="M36.3,2.5c0.4,0,0.8,0,1.2,0c0,0.4,0,0.8,0,1.2c-0.4,0-0.8,0-1.2,0C36.3,3.3,36.3,2.9,36.3,2.5z"/>
	<path class="st0" d="M20,21.9c2.8,0,5.6,0,8.5,0c0.7,0,0.9,0.2,0.9,0.9c0,0.7,0,1.4,0,2.1c0,0.5-0.2,0.7-0.7,0.7
		c-5.8,0-11.5,0-17.3,0c-0.5,0-0.7-0.2-0.7-0.7c0-0.7,0-1.4,0-2.1c0-0.7,0.2-0.9,0.9-0.9C14.3,21.9,17.2,21.9,20,21.9z M11.9,24.3
		c5.4,0,10.8,0,16.2,0c0-0.4,0-0.8,0-1.2c-5.4,0-10.8,0-16.2,0C11.9,23.5,11.9,23.9,11.9,24.3z"/>
	<path class="st0" d="M29.4,26.9c0,0.4,0,0.8,0,1.2c-6.2,0-12.5,0-18.7,0c0-0.4,0-0.8,0-1.2C16.9,26.9,23.1,26.9,29.4,26.9z"/>
	<path class="st0" d="M10.6,30.6c0-0.4,0-0.8,0-1.2c4.6,0,9.1,0,13.7,0c0,0.4,0,0.8,0,1.2C19.8,30.6,15.2,30.6,10.6,30.6z"/>
	<path class="st0" d="M25.7,29.4c0.4,0,0.8,0,1.2,0c0,0.4,0,0.8,0,1.2c-0.4,0-0.8,0-1.2,0C25.7,30.2,25.7,29.8,25.7,29.4z"/>
	<path class="st0" d="M29.4,30.6c-0.4,0-0.8,0-1.2,0c0-0.4,0-0.8,0-1.2c0.4,0,0.8,0,1.2,0C29.4,29.8,29.4,30.2,29.4,30.6z"/>
</g>
</svg>
