<?xml version="1.0" encoding="utf-8"?>
<!-- Generator: Adobe Illustrator 23.0.5, SVG Export Plug-In . SVG Version: 6.00 Build 0)  -->
<svg version="1.1" id="Layer_1" xmlns="http://www.w3.org/2000/svg" xmlns:xlink="http://www.w3.org/1999/xlink" x="0px" y="0px"
	 viewBox="0 0 40 40" style="enable-background:new 0 0 40 40;" xml:space="preserve">
<style type="text/css">
	.st0{fill:#F9BC33;}
</style>
<g>
	<path class="st0" d="M35.1,38.7c-0.4-0.4-0.9-0.9-1.4-1.4c-0.2-0.2-0.3-0.2-0.5-0.1c-0.8,0.2-1.1,0.7-1,1.5c0.1,0.4,0,0.8,0,1.2
		c-1.7,0-3.4,0-5.1,0c0-0.6,0-1.2,0-1.9c0-0.3-0.1-0.6-0.4-0.6c-0.2,0-0.4-0.2-0.6-0.2c-0.1,0-0.3,0-0.5,0c0.2,0.3,0.3,1.7,0.2,2.7
		c-3.8,0-7.7,0-11.6,0c0-0.5,0-0.9,0-1.4c0-0.6,0-1.2,0-1.9c0-0.2-0.1-0.3-0.3-0.4c-0.2-0.1-0.5-0.2-0.7-0.3
		c-0.8-0.3-0.8-0.3-1.4,0.3c-0.6,0.6-1.3,1.3-1.9,1.9c-2.7-2.7-5.5-5.5-8.2-8.2c0.7-0.7,1.5-1.5,2.2-2.2c0.2-0.2,0.3-0.4,0.1-0.6
		C4,27,3.9,26.7,3.8,26.4c-0.3-0.6-0.3-0.6-1-0.6c-0.9,0-1.9,0-2.8,0c0-3.9,0-7.7,0-11.6c1,0,2.1,0,3.1,0c0.3,0,0.5-0.1,0.6-0.4
		c0.1-0.3,0.3-0.7,0.4-1c0.1-0.2,0.1-0.4-0.1-0.6c-0.7-0.7-1.3-1.3-2-2C1.9,10.1,1.9,10,1.8,10C4.5,7.2,7.2,4.5,10,1.8
		c0.7,0.7,1.5,1.5,2.2,2.2c0.2,0.2,0.3,0.3,0.6,0.1c0.3-0.2,0.7-0.3,1-0.4c0.3-0.1,0.4-0.3,0.4-0.6c0-1,0-2.1,0-3.1
		c3.9,0,7.7,0,11.6,0c0,0.1,0,0.2,0,0.4c0,0.9,0,1.9,0,2.8c0,0.3,0.1,0.4,0.3,0.5c0.3,0.1,0.6,0.2,0.9,0.4c0.4,0.2,0.6,0.1,0.9-0.2
		c0.7-0.7,1.4-1.4,2.1-2.1c2.7,2.7,5.5,5.5,8.2,8.2c-0.4,0.4-0.9,0.9-1.4,1.4c-0.2,0.2-0.4,0.5-0.7,0.7c-0.4,0.3-0.4,0.5-0.2,0.9
		c0.2,0.3,0.3,0.6,0.3,0.9c0.1,0.3,0.2,0.4,0.5,0.4c1,0,2.1,0,3.2,0c0,3.9,0,7.7,0,11.6c-0.9,0-1.9,0-2.8,0c0.2,0.5,0.3,0.8,0.5,1.2
		c0,0.1,0.2,0.1,0.3,0.1c0.7,0,1.3,0,2,0c0,1.7,0,3.4,0,5.1c-0.6,0-1.2,0-1.9,0c-0.4,0-0.5,0.2-0.6,0.4c-0.4,0.7-0.2,1.1,0.3,1.5
		c0.3,0.3,0.6,0.6,0.9,0.9C37.5,36.3,36.3,37.5,35.1,38.7z M19.4,31.6c-0.6-0.1-1.2-0.1-1.7-0.3c-6.1-1.3-10-7-9.1-13.1
		c1-6.7,7.8-11.2,14.3-9.5c4.7,1.2,8.1,5.1,8.7,9.9c0.1,0.6,0.1,0.6,0.7,0.7c0,0.5,0,1,0,1.5c-0.1,0.6,0.1,0.9,0.7,1.1
		c0.6,0.2,0.6,0.2,1-0.3c-1.1-0.9-1.3-2-0.6-2.9c0.6-0.8,1.7-1,2.6-0.4c0.4,0.3,0.7,0.7,0.8,1.2c0.2,0.8-0.1,1.4-0.6,1.8
		c0.9,0.9,1.7,1.7,2.5,2.5c0-2.8,0-5.6,0-8.5c-1.1,0-2.1,0-3.1,0c-0.5-1.1-0.9-2.1-1.3-3.1c0-0.1,0-0.3,0.1-0.4
		c0.3-0.4,0.7-0.7,1.1-1.1c0.3-0.3,0.7-0.7,1-1c-2.2-2.2-4.3-4.3-6.4-6.4c-0.1,0.1-0.2,0.1-0.3,0.2C29.1,4.4,28.6,5,28,5.6
		c-0.1,0.1-0.3,0.1-0.4,0.1c-1-0.4-2-0.9-3.1-1.3c0-1,0-2,0-3.1c-3,0-6,0-9,0c0,1.1,0,2.1,0,3.1c-1,0.4-2,0.8-2.9,1.3
		c-0.3,0.1-0.4,0.1-0.6-0.1c-0.7-0.7-1.3-1.3-1.9-2C7.9,5.7,5.7,7.9,3.6,10c0.6,0.6,1.3,1.3,2,2c0.1,0.1,0.2,0.3,0.1,0.4
		c-0.4,1-0.9,2-1.4,3.1c-1,0-2,0-3.1,0c0,3,0,6,0,9c1.1,0,2.1,0,3.1,0c0.4,0.9,0.7,1.8,1.2,2.7c0.2,0.4,0.2,0.7-0.2,1
		c-0.6,0.6-1.2,1.2-1.8,1.8c2.2,2.2,4.3,4.3,6.4,6.4c0.6-0.6,1.3-1.3,2-2c0.1-0.1,0.3-0.2,0.4-0.1c1,0.4,2,0.9,3.1,1.4
		c0,1,0,2,0,3.1c2.9,0,5.7,0,8.5,0c-0.8-0.8-1.7-1.7-2.5-2.5c-1.1,0.8-2.2,0.8-2.9-0.1c-0.7-0.8-0.6-2,0.2-2.7
		c0.9-0.8,1.9-0.6,3,0.6c0.5-0.4,0.5-0.4,0.3-0.9c-0.1-0.1-0.1-0.3-0.2-0.4c-0.1-0.3-0.2-0.3-0.5-0.3c-0.7,0-1.3,0-2,0
		C19.4,32,19.4,31.8,19.4,31.6z M27.7,19.3c-0.1-3.4-3.2-7.2-8-7.1c-4.3,0.1-7.7,3.8-7.5,8.2c0.1,3.7,3.7,7.4,7.1,7.2
		c0-0.2,0-0.4,0-0.6c0.4,0,0.8,0,1.2,0c0.8,0.1,1.3-0.1,1.5-0.9c0.1-0.3,0.1-0.4-0.1-0.6c-0.5-0.4-0.9-0.9-1.3-1.3
		c1.2-1.2,2.4-2.4,3.7-3.7c0.2,0.3,0.6,0.5,0.8,0.8c0.5,0.6,1,0.8,1.7,0.4c0.2-0.1,0.3-0.2,0.3-0.5c0-0.7,0-1.3,0-2
		C27.3,19.4,27.5,19.4,27.7,19.3z M24.3,37c0.4-0.5,0.9-1,1.3-1.4c0.8,0.3,1.6,0.7,2.4,0.9c0.3,0.1,0.5,0.2,0.4,0.6
		c0,0.5,0,1.1,0,1.6c0.9,0,1.8,0,2.6,0c0-0.3,0-0.6,0-0.9c0-0.3-0.1-0.8,0.1-1c0.1-0.2,0.6-0.2,0.9-0.3c0.6-0.3,1.2-0.5,1.9-0.8
		c0.4,0.4,0.9,0.9,1.3,1.3c0.6-0.6,1.2-1.2,1.9-1.9c-0.4-0.4-0.9-0.8-1.3-1.2c0.3-0.9,0.7-1.6,0.9-2.4c0.1-0.3,0.2-0.4,0.5-0.4
		c0.5,0,1.1,0,1.6,0c0-0.9,0-1.8,0-2.6c-0.3,0-0.6,0-0.9,0c-0.3,0-0.8,0.1-1-0.1c-0.2-0.1-0.2-0.6-0.3-0.9c-0.3-0.6-0.5-1.2-0.8-1.9
		c0.4-0.4,0.9-0.9,1.3-1.3c-0.6-0.6-1.2-1.2-1.9-1.9c-0.4,0.4-0.8,0.9-1.2,1.3c-0.9-0.3-1.6-0.7-2.4-0.9c-0.3-0.1-0.4-0.2-0.4-0.6
		c0-0.5,0-1.1,0-1.6c-0.9,0-1.8,0-2.6,0c0,0.7,0,1.3,0,1.9c-1,0.4-1.9,0.8-2.9,1.2c-0.4-0.4-0.8-0.9-1.2-1.3
		c-0.6,0.6-1.2,1.2-1.9,1.9c0.4,0.4,0.9,0.9,1.3,1.2c-0.3,0.9-0.7,1.6-0.9,2.4c-0.1,0.3-0.2,0.4-0.6,0.4c-0.5,0-1.1,0-1.6,0
		c0,0.9,0,1.8,0,2.6c0.5,0,0.9,0,1.3,0c0.7,0,0.7,0,0.9,0.7c0.1,0.3,0.2,0.5,0.3,0.8c0.2,0.4,0.4,0.9,0.7,1.4
		c-0.5,0.4-0.9,0.9-1.4,1.3C23,35.7,23.6,36.3,24.3,37z M19.3,29c-0.1,0-0.2,0-0.2,0c-5.3-0.6-8.9-5.3-8-10.5c0.6-3.5,2.7-5.9,6.1-7
		c3.4-1.1,6.5-0.3,9.1,2.1c1.6,1.5,2.4,3.3,2.7,5.5c0,0.1,0.1,0.3,0.2,0.3c0.4,0,0.7,0,1.1,0c-0.2-5.1-4.6-9.8-10.5-9.7
		C14.1,9.7,9.6,14.5,9.7,20.2c0.1,5.8,4.9,9.9,9.7,10C19.3,29.9,19.3,29.5,19.3,29z M34.9,20.7c0.4,0,0.7-0.3,0.7-0.7
		c0-0.4-0.3-0.6-0.6-0.7c-0.4,0-0.7,0.3-0.7,0.6C34.2,20.3,34.5,20.6,34.9,20.7z M20,34.2c-0.4,0-0.7,0.3-0.7,0.7
		c0,0.4,0.3,0.6,0.6,0.7c0.4,0,0.7-0.3,0.7-0.6C20.7,34.5,20.4,34.2,20,34.2z"/>
	<path class="st0" d="M21.9,5.1c0,1.1-0.9,1.9-1.9,1.9c-1,0-1.9-0.9-1.9-1.9c0-1.1,0.9-1.9,1.9-1.9C21.1,3.2,21.9,4.1,21.9,5.1z
		 M20.7,5.1c0-0.4-0.3-0.7-0.7-0.7c-0.4,0-0.7,0.3-0.6,0.7c0,0.4,0.3,0.6,0.6,0.6C20.4,5.8,20.7,5.5,20.7,5.1z"/>
	<path class="st0" d="M5.1,21.9c-1,0-1.9-0.9-1.9-1.9c0-1.1,0.9-1.9,1.9-1.9c1.1,0,1.9,0.9,1.9,1.9C7.1,21,6.2,21.9,5.1,21.9z
		 M5.8,20c0-0.4-0.3-0.7-0.7-0.7c-0.4,0-0.6,0.3-0.7,0.6c0,0.4,0.3,0.7,0.6,0.7C5.5,20.7,5.8,20.4,5.8,20z"/>
	<path class="st0" d="M29.7,23.9c3.2,0,5.8,2.6,5.8,5.8c0,3.2-2.6,5.8-5.8,5.8c-3.2,0-5.8-2.6-5.8-5.8
		C23.9,26.5,26.5,23.9,29.7,23.9z M29.7,34.2c2.5,0,4.5-2,4.5-4.6c0-2.5-2-4.5-4.5-4.5c-2.5,0-4.5,2-4.5,4.5
		C25.2,32.2,27.2,34.2,29.7,34.2z"/>
</g>
</svg>
