<?xml version="1.0" encoding="utf-8"?>
<!-- Generator: Adobe Illustrator 23.0.5, SVG Export Plug-In . SVG Version: 6.00 Build 0)  -->
<svg version="1.1" id="Layer_1" xmlns="http://www.w3.org/2000/svg" xmlns:xlink="http://www.w3.org/1999/xlink" x="0px" y="0px"
	 viewBox="0 0 40 40" style="enable-background:new 0 0 40 40;" xml:space="preserve">
<style type="text/css">
	.st0{fill:#F9BC33;}
</style>
<g>
	<path class="st0" d="M13.3,11.5c1-2.2,1.9-4.4,2.9-6.5c0-0.1,0.1-0.2,0-0.3c0,0,0,0,0,0c0,0,0,0,0,0c0,0,0,0,0,0
		c-1.2,0.5-2.4,1-3.6,1.6c-3.3,1.5-6.5,2.9-9.8,4.4c-1.4,0.6-1.8,1.7-1.2,3.1c2.4,5.3,4.7,10.6,7.1,15.9c0.2,0.5,0.1,0.9-0.3,1.1
		c-0.4,0.2-0.8,0-1-0.5c-1.9-4.3-3.9-8.6-5.8-12.9c-0.4-1-0.9-2-1.3-3c-0.9-1.9-0.1-4,1.8-4.9C5.3,8,8.5,6.6,11.7,5.2
		c1.8-0.8,3.5-1.6,5.3-2.3c0.3-0.1,0.4-0.3,0.5-0.5C18,1,19,0.2,20.4,0c0.7-0.1,1.3,0.1,1.9,0.3c3.8,1.7,7.7,3.4,11.5,5.1
		c1.3,0.6,2.6,1.2,4,1.8c1.9,0.8,2.8,2.8,1.9,4.8c-0.9,2-1.8,4-2.7,6c-0.2,0.5-0.6,0.7-1,0.5c-0.4-0.2-0.5-0.6-0.3-1
		c0.9-1.9,1.7-3.9,2.6-5.8c0.6-1.4,0.2-2.5-1.2-3.1C32,6.2,26.8,3.9,21.6,1.6c-1.2-0.5-2.4,0-3,1.3c-0.7,1.6-1.5,3.3-2.2,4.9
		c-1.2,2.6-2.3,5.2-3.5,7.8c-0.8,1.8-1.6,3.6-2.4,5.4c-0.3,0.6-0.5,1.1-0.8,1.7c-0.4,0.8-0.3,1.6,0.2,2.4c0.3,0.4,0.2,0.8-0.1,1.1
		c-0.4,0.3-0.8,0.2-1.1-0.3C8.2,25,8,24,8.3,22.9c0.1-0.4,0.3-0.9,0.5-1.3c0.1-0.2,0.2-0.3,0.1-0.5c0.4-0.5,0.6-1.1,0.8-1.7
		c0.2-0.3,0.4-0.7,0.4-1.1c0.4-0.6,0.7-1.3,0.9-2c0.1-0.1,0.2-0.3,0.2-0.4c0.4-0.6,0.6-1.2,0.8-1.8c0.2-0.2,0.3-0.5,0.3-0.7
		C12.7,12.8,13,12.2,13.3,11.5z"/>
	<path class="st0" d="M16.3,26.4c-2.8-1.2-3.9-3-3.4-5.3c0.5-2,2.4-3.4,4.5-3.3c2,0.1,3.7,1.8,4,3.8c0.2,1.7-0.6,4-3.5,4.7
		c1.1,0,2.2,0,3.3,0c0.4,0,0.6,0.1,0.9,0.4c0.8,0.8,1.6,1.5,2.4,2.3c0.2,0.2,0.3,0.2,0.5,0c0.9-0.8,1.8-1.6,2.7-2.5
		c0.7-0.6,1.6-0.6,2.3-0.1c0.7,0.5,0.9,1.5,0.5,2.2c-0.1,0.2-0.3,0.4-0.5,0.6c-1.8,1.6-3.6,3.3-5.3,4.9c-0.4,0.4-0.7,0.4-1.2,0
		c-0.4-0.4-0.9-0.8-1.4-1.2c0,0.6,0,1.1,0,1.6c0,1.5,0,3,0,4.5c0,0.6-0.2,0.9-0.9,0.9c-2.7,0-5.5,0-8.2,0c-0.6,0-0.9-0.2-0.9-0.9
		c0-0.9,0-1.8,0-2.8c0-0.3-0.1-0.4-0.3-0.5c-0.6-0.3-1.3-0.6-1.9-0.8c-0.6-0.3-0.7-0.6-0.5-1.2c0.9-2.3,1.8-4.6,2.7-6.9
		c0.1-0.4,0.4-0.5,0.8-0.5C14,26.4,15.1,26.4,16.3,26.4z M17.2,27.9c-1.2,0-2.4,0-3.6,0c-0.3,0-0.4,0.1-0.5,0.3
		c-0.7,1.8-1.4,3.6-2.1,5.4c-0.1,0.3-0.1,0.4,0.2,0.5c1.4,0.6,2.9,1.3,4.3,1.9c0.3,0.1,0.6,0.2,0.7-0.1c0.2-0.3-0.1-0.5-0.3-0.6
		c-0.9-0.6-1.8-1.1-2.7-1.7c-0.5-0.3-0.6-0.7-0.4-1c0.2-0.4,0.7-0.5,1.1-0.2c0.9,0.6,1.9,1.2,2.8,1.8c0.9,0.6,1.1,1.6,0.7,2.5
		c-0.5,0.9-1.5,1.2-2.5,0.8c-0.4-0.2-0.8-0.4-1.3-0.6c-0.3-0.1-0.4-0.2-0.4,0.2c0,0.4,0,0.8,0,1.2c0,0.3,0.1,0.4,0.4,0.4
		c2.1,0,4.2,0,6.3,0c0.4,0,0.5-0.1,0.5-0.5c0-2.2,0-4.4,0-6.6c0-0.4,0.1-0.6,0.5-0.8c0.3-0.1,0.6,0,0.8,0.2c0.6,0.6,1.2,1.1,1.8,1.6
		c0.2,0.2,0.3,0.2,0.5,0c1.2-1.1,2.3-2.1,3.5-3.2c0.4-0.4,0.9-0.8,1.3-1.2c0.2-0.2,0.2-0.3,0.1-0.5c-0.1-0.2-0.3-0.2-0.5,0
		c-0.1,0.1-0.1,0.1-0.2,0.2c-1,0.9-2.1,1.9-3.1,2.8c-0.5,0.4-0.8,0.4-1.3,0c-0.9-0.8-1.8-1.7-2.7-2.5c-0.3-0.3-0.5-0.3-0.9-0.3
		C19.4,27.9,18.3,27.9,17.2,27.9z M17.1,25c1.6,0,2.9-1.3,2.9-2.9c0-1.6-1.3-2.8-2.8-2.9c-1.6,0-2.9,1.3-2.9,2.8
		C14.2,23.7,15.5,25,17.1,25z"/>
	<path class="st0" d="M33.7,13c0,0.1-0.1,0.2-0.1,0.4c-0.6,1.4-1.2,2.7-1.8,4.1c-0.2,0.5-0.6,0.6-1,0.5c-0.4-0.2-0.6-0.6-0.4-1
		c0.1-0.3,0.1-0.4-0.2-0.5c-0.6-0.3-1.3-0.6-1.9-0.9c-0.2-0.1-0.3-0.1-0.4,0.1c-0.2,0.5-0.4,1-0.6,1.4c-0.1,0.2,0,0.3,0.1,0.4
		c0.3,0.1,0.5,0.2,0.8,0.4c0.4,0.2,0.5,0.6,0.4,0.9c-0.2,0.4-0.6,0.5-1,0.3c0,0,0,0,0,0c-0.3-0.1-0.7-0.5-1-0.3
		c-0.2,0.1-0.3,0.6-0.5,0.9c-0.2,0.5-0.4,1-0.7,1.5c-0.2,0.5-0.6,0.6-1.1,0.4c-0.4-0.2-0.9-0.4-1.3-0.6c-0.4-0.2-0.6-0.6-0.4-1
		c0.2-0.4,0.6-0.5,1-0.3c0.7,0.3,0.7,0.3,1-0.4c0.2-0.4,0.6-0.9,0.4-1.2c-0.1-0.3-0.7-0.4-1.1-0.6c-0.2-0.1-0.5-0.2-0.7-0.3
		c-0.6-0.3-0.6-0.3-0.9,0.4c-0.1,0.1-0.1,0.3-0.2,0.4c-0.2,0.3-0.5,0.4-0.9,0.3c-0.3-0.1-0.5-0.5-0.4-0.9c0.1-0.3,0.2-0.5,0.3-0.8
		c0.1-0.2,0.1-0.3-0.1-0.3c-0.7-0.3-1.4-0.6-2.1-0.9c-0.2-0.1-0.3,0-0.4,0.2c-0.1,0.2-0.2,0.4-0.3,0.6c-0.2,0.4-0.6,0.5-0.9,0.3
		c-0.4-0.2-0.5-0.5-0.4-0.9c0.7-1.6,1.4-3.2,2.1-4.8c0.2-0.4,0.6-0.5,1-0.3c0.9,0.4,1.9,0.8,2.8,1.3c0.3,0.1,0.4,0.1,0.5-0.2
		c0.3-0.7,0.6-1.4,0.9-2.1c0.2-0.5,0.6-0.7,1.2-0.4c2.5,1.1,5,2.2,7.5,3.3C33.4,12.3,33.7,12.5,33.7,13z M32.1,13.3
		c0-0.1-0.1-0.1-0.2-0.2c-0.6-0.3-1.2-0.5-1.7-0.8c-0.6-0.3-0.6-0.3-0.9,0.3c-0.2,0.4-0.6,0.9-0.5,1.3c0.1,0.4,0.8,0.5,1.2,0.7
		c0.4,0.2,0.9,0.6,1.2,0.5c0.3-0.1,0.4-0.7,0.6-1.1C31.9,13.8,31.9,13.6,32.1,13.3z M27.2,13.5c0.1,0,0.1-0.1,0.2-0.2
		c0.2-0.5,0.4-1,0.7-1.5c0.1-0.2,0-0.3-0.2-0.4c-0.7-0.3-1.4-0.6-2.1-0.9c-0.2-0.1-0.3,0-0.4,0.2c-0.2,0.5-0.4,1-0.6,1.4
		c-0.1,0.2-0.1,0.3,0.1,0.4c0.7,0.3,1.4,0.6,2.1,1C27.1,13.4,27.1,13.4,27.2,13.5z M21.8,14.9c0.1,0,0.1-0.1,0.1-0.2
		c0.2-0.5,0.5-1,0.7-1.5c0.1-0.2,0-0.3-0.2-0.3c-0.7-0.3-1.4-0.6-2-0.9c-0.2-0.1-0.3-0.1-0.4,0.2c-0.2,0.4-0.4,0.9-0.6,1.3
		c-0.1,0.2-0.1,0.3,0.2,0.5c0.7,0.3,1.4,0.6,2,0.9C21.7,14.9,21.7,14.9,21.8,14.9z M25.7,16.7c0.2,0,0.2-0.1,0.2-0.2
		c0.2-0.5,0.4-0.9,0.6-1.4c0.1-0.2,0.1-0.3-0.2-0.4c-0.7-0.3-1.4-0.6-2-0.9c-0.2-0.1-0.3,0-0.4,0.2c-0.2,0.5-0.4,0.9-0.6,1.3
		c-0.1,0.2-0.1,0.3,0.2,0.4c0.7,0.3,1.3,0.6,2,0.9C25.6,16.6,25.6,16.7,25.7,16.7z"/>
	<path class="st0" d="M33,19.3c2.8,0.1,5,1.5,6.3,4.2c1.2,2.8,0.8,5.4-1.1,7.7c-2,2.4-5.5,3.1-8.3,1.8c-0.6-0.3-0.8-0.6-0.6-1
		c0.2-0.4,0.6-0.5,1.1-0.3c2,0.8,3.9,0.6,5.8-0.6c0.3-0.2,0.3-0.3,0-0.5c-1.2-1.1-2.5-2.2-3.7-3.3c-0.3-0.3-0.5-0.6-0.4-1
		c0-1.7,0-3.3,0-5c0-0.4-0.1-0.5-0.5-0.4c-2.1,0.5-3.6,1.8-4.3,3.9c-0.1,0.2-0.1,0.5-0.4,0.6c-0.3,0.2-0.5,0.2-0.8,0
		c-0.3-0.2-0.4-0.5-0.3-0.8c0.4-1.3,1-2.4,2-3.3C29.3,19.9,30.9,19.3,33,19.3z M33.5,23.4c0,0.8,0,1.5,0,2.3c0,0.2,0.1,0.4,0.2,0.5
		c1.2,1,2.4,2.1,3.5,3.1c0.2,0.2,0.3,0.1,0.4-0.1c0.7-1.2,1-2.6,0.7-4c-0.4-2.2-2.3-4.2-4.5-4.6c-0.3,0-0.4,0-0.4,0.3
		C33.5,21.9,33.5,22.7,33.5,23.4z"/>
	<path class="st0" d="M13.3,11.5c-0.3,0.7-0.6,1.3-0.9,2c-0.6,0.2-0.6,0.2-0.3,0.7c-0.2,0.6-0.4,1.2-0.8,1.8
		c-0.2-0.5-0.4-0.9-0.6-1.4c-0.1-0.2-0.2-0.2-0.4-0.1c-0.7,0.3-1.3,0.6-2,0.9C8,15.4,8,15.5,8.1,15.8c0.2,0.4,0.4,0.9,0.6,1.3
		c0.1,0.3,0.2,0.3,0.5,0.2c0.6-0.3,1.3-0.6,1.9-0.9c-0.2,0.7-0.5,1.4-0.9,2c-0.8,0.3-0.8,0.3-0.5,1c0,0,0,0,0.1,0.1
		c-0.2,0.6-0.4,1.2-0.8,1.7c-0.8-1.9-1.7-3.8-2.5-5.7c-0.2-0.4,0-0.8,0.4-1C9,13.4,11.1,12.5,13.3,11.5z"/>
	<path class="st0" d="M16.3,4.7C16.3,4.7,16.3,4.7,16.3,4.7C16.3,4.7,16.3,4.7,16.3,4.7C16.3,4.7,16.3,4.7,16.3,4.7
		C16.3,4.7,16.3,4.7,16.3,4.7z"/>
</g>
</svg>
