<svg width="46" height="69" viewBox="0 0 46 69" fill="none" xmlns="http://www.w3.org/2000/svg">
<path d="M28.1075 48.4628C34.0523 46.9986 38.9535 42.1528 41.3071 35.6848C43.4436 35.4302 45.1136 33.2297 45.1136 30.5516C45.1136 30.4042 45.1055 30.2593 45.0956 30.1151C45.1064 29.9503 45.1136 29.7836 45.1136 29.6136C45.1136 27.2825 44.0638 25.3928 42.7687 25.3928L42.7634 25.3935C42.7127 24.5578 42.6181 23.737 42.4908 22.9298C42.5031 22.0934 42.4928 21.1479 42.4186 20.118C46.6685 13.5481 43.9722 5.43505 43.9722 5.43505C42.4325 8.51447 40.1229 6.97476 40.1229 6.97476C34.3357 3.66777 28.3985 3.35831 24.1386 3.77979C25.6455 3.39068 27.069 3.15297 28.3058 3.02911C31.2592 2.7117 33.1619 2.70804 33.1942 2.35563C33.2262 2.07609 31.3741 1.49424 28.2331 1.39763C26.6668 1.34087 24.7736 1.47807 22.7125 1.95773C20.8545 2.40262 18.8345 3.14696 16.9676 4.37062C17.2397 4.08583 17.5043 3.81442 17.7581 3.5581C18.2226 3.01844 18.7254 2.61603 19.1262 2.21424C19.5349 1.82099 19.8806 1.47084 20.1552 1.17138C20.7041 0.572518 20.9686 0.176218 20.8766 0.0460614C20.7845 -0.0840956 20.3433 0.0648091 19.6161 0.451946C19.2526 0.645444 18.8176 0.898475 18.3199 1.20559C17.8293 1.52196 17.2405 1.8467 16.6829 2.32894C16.1082 2.78956 15.4834 3.30385 14.8175 3.86517C14.652 4.00689 14.4838 4.151 14.3128 4.29742C14.156 4.45953 13.9967 4.62422 13.835 4.79136C13.5134 5.12887 13.1825 5.47616 12.8432 5.83224C12.6664 6.03058 12.4765 6.22318 12.2896 6.42227C12.4504 6.01037 12.6133 5.6152 12.7784 5.24813C13.9219 2.55293 14.9593 1.03469 14.7177 0.815916C14.4981 0.59573 12.9321 1.82551 11.3282 4.49712C10.2936 6.13893 9.31764 8.37971 8.64064 10.9904C8.69063 10.1176 8.75764 9.29344 8.83183 8.54525C9.17823 5.25692 9.63115 3.23384 9.32873 3.12548C9.03449 3.01172 8.0046 4.91672 7.22117 8.27521C6.74725 10.3608 6.36335 13.0503 6.42279 16.0554C6.11676 15.138 5.84582 14.2655 5.62465 13.4612C4.61863 9.96955 4.26862 7.72967 3.93975 7.74461C3.63169 7.74884 3.4053 10.1077 4.03071 13.8166C4.32171 15.674 4.87538 17.8487 5.6582 20.2153C5.87435 20.8085 6.10322 21.4162 6.34775 22.0329C6.33267 22.1104 6.31453 22.1864 6.30015 22.2642C5.31284 21.605 4.42546 20.9557 3.68639 20.333C1.33115 18.4543 0.370612 16.8815 0.0904684 16.9829C-0.248882 17.0713 0.32198 19.1818 2.56229 21.5177C3.46103 22.5099 4.63127 23.5242 5.98923 24.5203C5.96184 24.8101 5.93618 25.1005 5.91842 25.3935L5.91311 25.3928C4.61807 25.3928 3.56821 27.2825 3.56821 29.6136C3.56821 29.7836 3.5754 29.9503 3.58625 30.1151C3.57634 30.2593 3.56821 30.4042 3.56821 30.5516C3.56821 33.2297 5.23822 35.4302 7.37473 35.6848C9.72846 42.1531 14.63 46.9991 20.5752 48.463L20.6142 49.7017V49.7656C20.6166 51.228 20.373 50.9239 19.0071 51.6839C19.0071 51.6839 18.9841 51.7031 18.9591 51.7239C16.9451 52.6358 9.98441 55.368 9.01546 56.1139L9.011 56.1118C6.53133 56.9299 2.2765 61.1977 4.82561 65.0988C7.37473 69 41.3071 69 43.8563 65.0988C46.4054 61.1977 42.1505 56.9299 39.6708 56.1118L39.6665 56.1138C38.696 55.3668 31.7176 52.6283 29.7139 51.72C29.6994 51.7067 29.6747 51.6839 29.6747 51.6839C28.3088 50.9239 28.0653 51.228 28.0677 49.7656V49.7017L28.1075 48.4628Z" fill="#212121"/>
</svg>
