<svg width="54" height="48" viewBox="0 0 54 48" fill="none" xmlns="http://www.w3.org/2000/svg">
<path d="M26.9999 34.821C24.1109 34.821 21.8359 37.078 21.9259 39.755C21.9819 41.725 22.0359 43.694 22.0929 45.667C25.3639 45.574 28.6379 45.574 31.9089 45.667C31.9639 43.694 32.0189 41.725 32.0749 39.755C32.1649 37.078 29.8889 34.821 26.9999 34.821Z" fill="#212121"/>
<path d="M47.214 21.221C47.694 13.656 39.196 6.53398 27.793 6.22598V0.823975H26.206V6.22598C14.803 6.53398 6.30505 13.656 6.78605 21.221C20.227 19.857 33.772 19.857 47.214 21.221Z" fill="#212121"/>
<path d="M0.333008 23.1859C1.41401 31.1829 2.49601 39.1789 3.57801 47.1759C9.32701 46.3979 15.102 45.9069 20.889 45.7059C20.82 43.7349 20.75 41.7659 20.682 39.7959C20.542 36.4619 23.376 33.6289 27 33.6299C30.624 33.6289 33.458 36.4619 33.319 39.7959C33.251 41.7659 33.182 43.7349 33.112 45.7059C38.897 45.9069 44.675 46.3969 50.421 47.1759C51.503 39.1789 52.585 31.1809 53.667 23.1859C35.97 20.7919 18.029 20.7919 0.333008 23.1859Z" fill="#212121"/>
</svg>
