<svg width="95" height="69" viewBox="0 0 95 69" fill="none" xmlns="http://www.w3.org/2000/svg">
<path d="M23.428 50.1181C18.215 50.1181 13.99 54.3451 13.99 59.5561C13.99 64.7691 18.218 68.9941 23.428 68.9941C28.641 68.9941 32.866 64.7661 32.866 59.5561C32.868 54.3451 28.641 50.1181 23.428 50.1181ZM23.428 64.1731C20.879 64.1731 18.813 62.1071 18.813 59.5571C18.813 57.0081 20.879 54.9421 23.428 54.9421C25.979 54.9421 28.044 57.0081 28.044 59.5571C28.045 62.1071 25.979 64.1731 23.428 64.1731ZM72.326 50.1181C67.113 50.1181 62.887 54.3451 62.887 59.5561C62.887 64.7691 67.116 68.9941 72.326 68.9941C77.536 68.9941 81.764 64.7661 81.764 59.5561C81.764 54.3461 77.537 50.1181 72.326 50.1181ZM72.326 64.1731C69.777 64.1731 67.709 62.1071 67.709 59.5571C67.709 57.0081 69.777 54.9421 72.326 54.9421C74.875 54.9421 76.941 57.0081 76.941 59.5571C76.941 62.1071 74.875 64.1731 72.326 64.1731ZM92.705 46.6101L92.693 42.9251C92.693 40.8031 90.972 38.6571 88.847 38.1361L85.212 37.2411C83.16 36.7351 80.781 34.4231 79.941 32.1801L69.797 3.86008C69.049 1.77208 66.75 0.0800781 64.661 0.0800781H5.84601C3.75801 0.0800781 2.06501 1.77208 2.06501 3.86008V46.6081C1.16101 46.7071 0.458008 47.4701 0.458008 48.3981V54.8421C0.458008 55.8051 1.21401 56.5901 2.16701 56.6391C2.55801 58.3121 4.05401 59.5601 5.84701 59.5601H11.035C11.035 59.5601 11.035 59.5571 11.035 59.5551H11.83C11.83 53.1591 17.035 47.9561 23.431 47.9561C29.828 47.9561 35.033 53.1581 35.033 59.5551H60.73C60.734 53.1591 65.935 47.9561 72.332 47.9561C78.728 47.9561 83.931 53.1581 83.931 59.5551H88.953C90.744 59.5551 92.24 58.3101 92.633 56.6371C93.572 56.5751 94.314 55.7951 94.314 54.8421V48.3981C94.307 47.4731 93.605 46.7091 92.705 46.6101ZM72.041 34.4031C72 34.4031 56.6 34.4021 56.6 34.4021V34.3961C50.662 34.3681 45.85 29.5421 45.85 23.5931L45.848 12.5821C45.848 10.4951 47.539 8.80208 49.631 8.80208H64.713C66.443 8.80208 67.789 9.96908 68.348 11.5521L74.965 30.0221C75.121 30.3981 75.201 30.8111 75.201 31.2461C75.199 32.9901 73.785 34.4031 72.041 34.4031Z" fill="#212121"/>
</svg>
