<svg width="450" height="450" viewBox="0 0 450 450" fill="none" xmlns="http://www.w3.org/2000/svg">
<path d="M187.25 333.84C190.269 335.186 193.625 335.587 196.877 334.991C200.129 334.395 203.124 332.829 205.47 330.5L443.36 92.61C445.376 90.6036 446.703 88.009 447.15 85.2C451.29 58.67 449.82 20.81 449.07 6.77996C448.988 5.25496 448.346 3.81399 447.266 2.73411C446.186 1.65422 444.745 1.01166 443.22 0.92996C429.22 0.17996 391.33 -1.29004 364.8 2.84996C361.991 3.29674 359.396 4.62382 357.39 6.63996L119.61 244.43C117.286 246.732 115.715 249.685 115.105 252.899C114.494 256.113 114.872 259.436 116.19 262.43C130 293.16 154.89 319.57 187.25 333.84Z" fill="#212121"/>
<path d="M21.9401 428.06L41.7701 447.89C42.4205 448.543 43.1934 449.062 44.0446 449.415C44.8958 449.769 45.8084 449.951 46.7301 449.951C47.6518 449.951 48.5644 449.769 49.4156 449.415C50.2668 449.062 51.0397 448.543 51.6901 447.89L54.5601 445C55.7345 443.827 56.6661 442.433 57.3017 440.899C57.9373 439.365 58.2644 437.721 58.2644 436.06C58.2644 434.4 57.9373 432.756 57.3017 431.222C56.6661 429.688 55.7345 428.294 54.5601 427.12C52.5618 425.114 51.4143 422.414 51.3566 419.583C51.2988 416.751 52.3353 414.007 54.2501 411.92C70.4201 394.35 95.6401 376.25 111.33 365.73C115.243 363.119 119.836 361.711 124.541 361.683C129.246 361.655 133.856 363.006 137.8 365.57C161.11 380.57 185.8 386.57 196.52 388.57C198.063 388.862 199.66 388.626 201.053 387.9C202.446 387.175 203.554 386.002 204.2 384.57L211 369.47C211.448 368.471 211.655 367.381 211.606 366.288C211.556 365.194 211.25 364.128 210.713 363.174C210.176 362.22 209.423 361.405 208.515 360.795C207.606 360.184 206.566 359.796 205.48 359.66C163.48 354.66 131.3 318.66 131.3 318.66C131.3 318.66 95.3701 286.51 90.3001 244.48C90.1645 243.394 89.776 242.355 89.1658 241.446C88.5556 240.537 87.7408 239.784 86.7868 239.247C85.8327 238.71 84.7661 238.405 83.6725 238.355C82.579 238.305 81.489 238.512 80.4901 238.96L65.4201 245.8C63.9884 246.446 62.8156 247.555 62.0901 248.948C61.3646 250.341 61.1286 251.937 61.4201 253.48C63.4201 264.18 69.4201 288.89 84.4201 312.2C86.9844 316.145 88.3359 320.755 88.3074 325.459C88.279 330.164 86.8719 334.757 84.2601 338.67C73.7401 354.36 55.6401 379.58 38.0701 395.75C35.9837 397.665 33.2392 398.702 30.4079 398.644C27.5766 398.586 24.8767 397.439 22.8701 395.44V395.44C21.6963 394.266 20.3026 393.334 18.7686 392.699C17.2347 392.063 15.5905 391.736 13.9301 391.736C12.2697 391.736 10.6255 392.063 9.09156 392.699C7.55761 393.334 6.16391 394.266 4.9901 395.44L2.1201 398.31C1.46701 398.961 0.948796 399.734 0.595196 400.585C0.241595 401.436 0.0595703 402.349 0.0595703 403.27C0.0595703 404.192 0.241595 405.105 0.595196 405.956C0.948796 406.807 1.46701 407.58 2.1201 408.23L21.9401 428.06Z" fill="#212121"/>
</svg>
