<?xml version="1.0" encoding="utf-8"?>
<!-- Generator: Adobe Illustrator 24.0.1, SVG Export Plug-In . SVG Version: 6.00 Build 0)  -->
<svg version="1.1" id="Layer_1" xmlns="http://www.w3.org/2000/svg" xmlns:xlink="http://www.w3.org/1999/xlink" x="0px" y="0px"
	 width="50px" height="50px" viewBox="0 0 50 50" style="enable-background:new 0 0 50 50;" xml:space="preserve">
<path d="M46.89,42.91c-1.99-0.97-4.26-1.84-6.68-2.51V32.9c3.44-0.48,6.05-2.75,6.05-7.68c0-3.29-2.57-9.86-4.7-14.79
	c-1.07-2.46-4.6-2.46-5.67,0c-0.48,1.16-1.02,2.42-1.55,3.72c1.21,3.62,1.79,6.38,1.79,8.31c0,3.62-1.07,6.48-3,8.46
	c1.07,1.11,2.52,1.74,4.12,1.98v6.77c-3.29-0.72-6.88-1.16-10.65-1.26v-7.1c3.97-0.53,6.97-3.14,6.97-8.79
	c0-3.77-2.91-11.31-5.38-16.91c-1.21-2.85-5.28-2.85-6.49,0c-2.42,5.65-5.38,13.19-5.38,16.91c0,5.65,3,8.26,6.97,8.79v7.15
	c-3.78,0.1-7.36,0.53-10.65,1.26v-6.77c1.65-0.24,3.1-0.87,4.12-1.98c-1.94-1.98-3-4.83-3-8.46c0-1.93,0.63-4.69,1.79-8.31
	c-0.53-1.3-1.07-2.56-1.55-3.72c-1.07-2.46-4.6-2.46-5.67,0c-2.08,4.88-4.6,11.5-4.6,14.74c0,4.93,2.61,7.2,6.05,7.68v7.49
	c-2.47,0.73-4.7,1.55-6.68,2.51C1.13,43.87,2,46.87,4.18,46.58c6.39-0.77,13.41-1.21,20.82-1.21s14.48,0.43,20.82,1.21
	C48,46.87,48.87,43.87,46.89,42.91L46.89,42.91z"/>
</svg>
