<?xml version="1.0" encoding="utf-8"?>
<!-- Generator: Adobe Illustrator 24.0.1, SVG Export Plug-In . SVG Version: 6.00 Build 0)  -->
<svg version="1.1" id="Layer_1" xmlns="http://www.w3.org/2000/svg" xmlns:xlink="http://www.w3.org/1999/xlink" x="0px" y="0px"
	 width="50px" height="50px" viewBox="0 0 50 50" style="enable-background:new 0 0 50 50;" xml:space="preserve">
<path d="M27.59,34.76h-5.05c-1.06,0-1.92,1.03-1.92,2.3v10.83c1.61,0.08,3.12,0.11,4.44,0.11c1.32,0,2.83-0.04,4.44-0.11V37.06
	C29.51,35.79,28.65,34.76,27.59,34.76L27.59,34.76z"/>
<path d="M25.06,29.07c-5.86,0-17.89-0.48-22.55-4.16v17.35c0,3.48,8.64,5,16.2,5.52V37.06c0-2.53,1.72-4.59,3.83-4.59h5.05
	c2.11,0,3.83,2.06,3.83,4.59v10.71c7.55-0.52,16.2-2.04,16.2-5.52l0-17.35C42.96,28.59,30.92,29.06,25.06,29.07L25.06,29.07z"/>
<path d="M24.11,25.62c0,0.53,0.43,0.96,0.96,0.96c0.53,0,0.96-0.43,0.96-0.96V9.46h7.15c0.35,0,0.68-0.2,0.85-0.52
	c0.16-0.31,0.14-0.69-0.07-0.99l-1.52-2.22l1.52-2.22c0.21-0.3,0.23-0.68,0.07-1C33.85,2.19,33.53,2,33.17,2h-8.1c0,0,0,0-0.01,0
	c-0.13,0-0.26,0.03-0.38,0.08c-0.34,0.15-0.59,0.49-0.59,0.88V8.5c0,0.01,0,0.01,0,0.02L24.11,25.62z"/>
<path d="M10.69,24.98c0,0.53,0.43,0.96,0.96,0.96s0.96-0.43,0.96-0.96V12.33h7.15c0.35,0,0.68-0.2,0.85-0.52
	c0.16-0.31,0.14-0.69-0.07-0.99L19.02,8.6l1.52-2.22c0.21-0.3,0.23-0.68,0.07-1c-0.17-0.32-0.5-0.51-0.85-0.51h-8.1c0,0,0,0-0.01,0
	c-0.13,0-0.26,0.03-0.38,0.08c-0.34,0.15-0.59,0.49-0.59,0.88v5.54c0,0.01,0,0.01,0,0.02L10.69,24.98z"/>
<path d="M14.53,24.98c0,0.55-0.16,1.06-0.43,1.5c2.9,0.37,5.92,0.56,8.53,0.63c-0.27-0.44-0.43-0.95-0.43-1.5l0-9.91
	c-2.38,0.08-5.06,0.25-7.66,0.57L14.53,24.98z"/>
<path d="M27.94,25.62c0,0.55-0.16,1.06-0.43,1.5c2.61-0.07,5.63-0.27,8.53-0.63c-0.27-0.44-0.43-0.95-0.43-1.5l0-8.7
	c-2.6-0.31-5.29-0.49-7.66-0.57L27.94,25.62z"/>
<path d="M41.36,17.27v7.7c0,0.2-0.02,0.39-0.06,0.57c3.66-0.89,6.32-2.21,6.32-4.14C47.62,19.49,44.99,18.16,41.36,17.27
	L41.36,17.27z"/>
<path d="M8.83,25.55c-0.04-0.18-0.06-0.38-0.06-0.57l0-7.7c-3.63,0.89-6.26,2.21-6.26,4.13C2.51,23.34,5.18,24.66,8.83,25.55
	L8.83,25.55z"/>
<path d="M37.53,24.98c0,0.53,0.43,0.96,0.96,0.96c0.53,0,0.96-0.43,0.96-0.96V12.33h7.15c0.35,0,0.68-0.2,0.85-0.52
	c0.16-0.31,0.14-0.69-0.07-0.99L45.85,8.6l1.52-2.22c0.21-0.3,0.23-0.68,0.07-1c-0.17-0.32-0.5-0.51-0.85-0.51h-8.1c0,0,0,0-0.01,0
	c-0.13,0-0.26,0.03-0.38,0.08c-0.34,0.15-0.59,0.49-0.59,0.88v5.54c0,0.01,0,0.01,0,0.02L37.53,24.98z"/>
</svg>
