<?xml version="1.0" encoding="utf-8"?>
<!-- Generator: Adobe Illustrator 24.0.1, SVG Export Plug-In . SVG Version: 6.00 Build 0)  -->
<svg version="1.1" id="Layer_1" xmlns="http://www.w3.org/2000/svg" xmlns:xlink="http://www.w3.org/1999/xlink" x="0px" y="0px"
	 width="50px" height="50px" viewBox="0 0 50 50" style="enable-background:new 0 0 50 50;" xml:space="preserve">
<path d="M46.11,33.62h-5.4v2.95c0,0.55-0.44,0.98-0.99,0.98h-6.91v2.95c0,0.55-0.44,0.98-0.99,0.98H2.3l-1.04,5.71
	c-0.06,0.28,0.02,0.57,0.21,0.8c0.19,0.23,0.48,0.36,0.77,0.36h45.38c0.3,0,0.57-0.13,0.76-0.36s0.27-0.52,0.22-0.8L46.11,33.62z"/>
<path d="M30.85,36.57c0-0.55,0.44-0.98,0.99-0.98h6.91v-2.95c0-0.55,0.44-0.98,0.99-0.98h6.03l-1.11-6.07
	c-0.09-0.47-0.49-0.8-0.98-0.8h-6.91c-0.42,0-0.8,0.26-0.94,0.67l-0.76,2.28H30.4c-1.08,2.09-2.1,3.96-2.84,5.3l-0.06,0.1
	c-0.53,0.91-1.52,1.48-2.57,1.48s-2.03-0.57-2.56-1.48l-0.06-0.1c-0.75-1.34-1.76-3.19-2.84-5.29H14.8l-0.77-2.28
	c-0.14-0.41-0.52-0.68-0.94-0.68H6.18c-0.47,0-0.89,0.33-0.97,0.8L2.67,39.51h28.17L30.85,36.57z"/>
<path d="M24.93,32.64c0.36,0,0.69-0.2,0.87-0.5c0.36-0.66,9-16.02,9-21.1c-0.01-5.41-4.43-9.81-9.87-9.81s-9.86,4.4-9.86,9.82
	c0,5.08,8.64,20.44,9.01,21.1C24.25,32.45,24.57,32.64,24.93,32.64L24.93,32.64z M19.99,11.06c0-2.7,2.22-4.91,4.93-4.91
	c2.72,0,4.93,2.2,4.93,4.91c0,2.7-2.21,4.91-4.93,4.91C22.21,15.97,19.99,13.76,19.99,11.06L19.99,11.06z"/>
</svg>
