<?xml version="1.0" encoding="utf-8"?>
<!-- Generator: Adobe Illustrator 24.0.1, SVG Export Plug-In . SVG Version: 6.00 Build 0)  -->
<svg version="1.1" id="Layer_1" xmlns="http://www.w3.org/2000/svg" xmlns:xlink="http://www.w3.org/1999/xlink" x="0px" y="0px"
	 width="50px" height="50px" viewBox="0 0 50 50" style="enable-background:new 0 0 50 50;" xml:space="preserve">
<path d="M14.4,48h18.32l0-15.69H48V19.33H35.49V6.85h-3.03V5.72h-1.13V2h-3.29v3.72H26.9v1.13h-3.03v19.41h-7.83v-6.93H7.89v13.86
	H1.64V48L14.4,48z M44.27,20.97h1.39v1.39h-1.39V20.97z M44.27,23.74h1.39v1.39h-1.39V23.74z M44.27,26.51h1.39v1.39h-1.39V26.51z
	 M44.27,29.29h1.39v1.39h-1.39V29.29z M41.49,20.97h1.39v1.39h-1.39V20.97z M41.49,23.74h1.39v1.39h-1.39V23.74z M41.49,26.51h1.39
	v1.39h-1.39V26.51z M41.49,29.29h1.39v1.39h-1.39V29.29z M38.71,20.97h1.39v1.39h-1.39V20.97z M38.71,26.51h1.39v1.39h-1.39V26.51z
	 M38.71,29.29h1.39v1.39h-1.39V29.29z M30.38,9.88h1.39v2.77h-1.39L30.38,9.88z M30.38,15.42h1.39v2.77h-1.39L30.38,15.42z
	 M30.38,20.97h1.39v2.77h-1.39L30.38,20.97z M30.38,26.51h1.39v2.77h-1.39L30.38,26.51z M30.38,32.06h1.39v2.77h-1.39L30.38,32.06z
	 M30.38,37.6h1.39v2.77h-1.39L30.38,37.6z M27.6,9.88h1.39v2.77H27.6V9.88z M27.6,15.42h1.39v2.77H27.6V15.42z M27.6,20.97h1.39
	v2.77H27.6V20.97z M27.6,26.51h1.39v2.77H27.6V26.51z M27.6,32.06h1.39v2.77H27.6V32.06z M27.6,37.6h1.39v2.77H27.6V37.6z
	 M20.65,29.29h1.39v1.39h-1.39V29.29z M20.65,32.06h1.39v1.39h-1.39V32.06z M20.65,34.83h1.39v1.39h-1.39V34.83z M20.65,37.6h1.39
	v1.39h-1.39V37.6z M20.65,40.38h1.39v1.39h-1.39V40.38z M20.65,43.15h1.39v1.39h-1.39V43.15z M17.87,29.29h1.39v1.39h-1.39V29.29z
	 M17.87,32.06h1.39v1.39l-1.39,0V32.06z M17.87,34.83h1.39v1.39h-1.39V34.83z M17.87,37.6h1.39v1.39h-1.39V37.6z M17.87,40.38h1.39
	v1.39h-1.39V40.38z M17.87,43.15h1.39v1.39l-1.39,0V43.15z M8.84,21.66h5.56v1.39H8.84L8.84,21.66z M8.84,24.44h5.56v1.39H8.84
	L8.84,24.44z M8.84,27.21h5.56v1.39H8.84L8.84,27.21z M8.84,29.98h5.56v1.39H8.84L8.84,29.98z M8.84,32.75h5.56v1.39H8.84
	L8.84,32.75z M8.84,35.52h5.56v1.39H8.84L8.84,35.52z M8.84,38.3h5.56v1.39H8.84L8.84,38.3z M8.84,41.07h5.56v1.39H8.84L8.84,41.07z
	 M8.84,43.84h5.56v1.39H8.84L8.84,43.84z"/>
<path d="M46,33.41H31.52V46H46V33.41L46,33.41z M36.42,44.65h-2.34v-1.24h2.34V44.65z M36.42,42.18h-2.34v-1.24h2.34V42.18z
	 M36.42,38.47h-2.34v-1.24h2.34V38.47z M36.42,35.99h-2.34v-1.24h2.34V35.99z M39.93,44.65h-2.34v-1.24h2.34V44.65z M39.93,42.18
	h-2.34v-1.24h2.34V42.18z M39.93,38.47h-2.34v-1.24h2.34V38.47z M39.93,35.99h-2.34v-1.24h2.34V35.99z M43.44,44.65H41.1v-1.24h2.34
	V44.65z M43.44,42.18H41.1v-1.24h2.34V42.18z M43.44,38.47H41.1v-1.24h2.34V38.47z M43.44,35.99H41.1v-1.24h2.34V35.99z"/>
</svg>
