<?xml version="1.0" encoding="utf-8"?>
<!-- Generator: Adobe Illustrator 24.0.1, SVG Export Plug-In . SVG Version: 6.00 Build 0)  -->
<svg version="1.1" id="Layer_1" xmlns="http://www.w3.org/2000/svg" xmlns:xlink="http://www.w3.org/1999/xlink" x="0px" y="0px"
	 width="50px" height="50px" viewBox="0 0 50 50" style="enable-background:new 0 0 50 50;" xml:space="preserve">
<style type="text/css">
	.st0{display:none;}
	.st1{fill:none;stroke:#FFFFFF;stroke-miterlimit:10;}
</style>
<path d="M44.9,50H5.1C2.3,50,0,47.7,0,44.9V5.1C0,2.3,2.3,0,5.1,0H45c2.7,0,5,2.3,5,5.1V45C50,47.7,47.7,50,44.9,50z"/>
<path class="st0" d="M-265.3,368.7c0-0.4,0.3-0.6,0.6-0.6c0.4,0,0.6,0.3,0.6,0.6c0,0.4-0.3,0.8-0.6,0.8S-265.3,369.1-265.3,368.7
	L-265.3,368.7z"/>
<path class="st0" d="M-263.7,366c0-0.4,0.3-0.6,0.6-0.6s0.6,0.3,0.6,0.6c0,0.4-0.3,0.8-0.6,0.8C-263.4,366.8-263.7,366.3-263.7,366z
	"/>
<path class="st0" d="M-263.5,370.5c0,0.1-0.1,0.3-0.3,0.3h-1.8c-0.1,0-0.3-0.1-0.3-0.3c0-0.5,0.4-1,1-1h0.4
	C-263.9,369.6-263.5,370-263.5,370.5z"/>
<path class="st0" d="M-260.3,370.5c0,0.1-0.1,0.3-0.3,0.3h-1.8c-0.1,0-0.3-0.1-0.3-0.3c0-0.5,0.4-1,1-1h0.4
	C-260.8,369.6-260.3,370-260.3,370.5L-260.3,370.5z"/>
<path class="st0" d="M-261.5,368.1c0.4,0,0.6,0.3,0.6,0.6c0,0.4-0.3,0.8-0.6,0.8c-0.4,0-0.6-0.4-0.6-0.8
	C-262.1,368.4-261.8,368.1-261.5,368.1z"/>
<path class="st0" d="M-264.2,367.8c0-0.5,0.4-1,1-1h0.4c0.5,0,1,0.4,1,1c0,0.1-0.1,0.3-0.3,0.3h-1.8
	C-264.1,368-264.2,367.9-264.2,367.8z"/>
<path class="st1" d="M7.9,28.5c0-2.5,2.3-4.6,5.2-4.6s5.2,2.1,5.2,4.6c0,2.6-2.2,5.7-5.2,5.7S7.9,31.1,7.9,28.5L7.9,28.5z"/>
<path class="st1" d="M20.4,8.5c0-2.5,2.3-4.6,5.2-4.6s5.2,2.1,5.2,4.6c0,2.6-2.2,5.7-5.2,5.7C22.7,14.2,20.4,11.1,20.4,8.5z"/>
<path class="st1" d="M22.1,41.8c0,1-0.9,1.9-2.1,1.9H5.7c-1.1,0-2.1-0.8-2.1-1.9c0-3.8,3.5-7,7.7-7h3C18.6,34.7,22.1,37.8,22.1,41.8
	z"/>
<path class="st1" d="M47.2,41.8c0,1-0.9,1.9-2.1,1.9H30.8c-1.1,0-2.1-0.8-2.1-1.9c0-3.8,3.5-7,7.7-7h3
	C43.7,34.7,47.2,37.8,47.2,41.8L47.2,41.8z"/>
<path class="st1" d="M38.1,23.9c2.8,0,5.2,2.1,5.2,4.6c0,2.6-2.2,5.7-5.2,5.7c-2.8,0-5.2-3.1-5.2-5.7C33,26,35.3,23.9,38.1,23.9z"/>
<path class="st1" d="M16.2,21.7c0-3.8,3.5-7,7.7-7h3c4.2,0,7.7,3.2,7.7,7c0,1-0.9,1.9-2.1,1.9H18.2C17.1,23.6,16.2,22.7,16.2,21.7z"
	/>
<path class="st1" d="M150.7,57.2"/>
</svg>
