<?xml version="1.0" encoding="utf-8"?>
<!-- Generator: Adobe Illustrator 24.0.1, SVG Export Plug-In . SVG Version: 6.00 Build 0)  -->
<svg version="1.1" id="Layer_1" xmlns="http://www.w3.org/2000/svg" xmlns:xlink="http://www.w3.org/1999/xlink" x="0px" y="0px"
	 width="50px" height="50px" viewBox="0 0 50 50" style="enable-background:new 0 0 50 50;" xml:space="preserve">
<style type="text/css">
	.st0{stroke:#FFFFFF;stroke-miterlimit:10;}
	.st1{fill:#FFFFFF;stroke:#000000;stroke-miterlimit:10;}
</style>
<path d="M44.9,50H5.1C2.3,50,0,47.7,0,44.9V5.1C0,2.3,2.3,0,5.1,0H45c2.7,0,5,2.3,5,5.1V45C50,47.7,47.7,50,44.9,50z"/>
<path class="st0" d="M-13,424.3h-12.5v-13.9L-13,424.3z"/>
<path class="st0" d="M-17.9,475.3c-0.5-0.7-0.8-1.5-0.8-2.4c-0.2,0.1-0.5,0.1-0.7,0.1c-1.2,0.2-2.5,0.3-3.7,0.3
	c-5.8,0-11.5-2.3-15.8-6.2h-24.7c-0.9,0-1.7-0.8-1.7-1.7c0-0.9,0.8-1.7,1.7-1.7H-42c-1.6-2.2-2.8-4.6-3.5-7.1h-18.1
	c-0.9,0-1.7-0.8-1.7-1.7c0-0.9,0.8-1.7,1.7-1.7h17.4c-0.2-1.6-0.3-3.2-0.1-4.9c0.1-0.8,0.2-1.5,0.3-2.3h-17.5
	c-0.9,0-1.7-0.8-1.7-1.7c0-0.9,0.8-1.7,1.7-1.7h18.4c0.9-2.6,2.2-5,3.9-7.1h-22.3c-0.9,0-1.7-0.8-1.7-1.7c0-0.9,0.8-1.7,1.7-1.7
	h25.6c2.8-2.3,6.1-4,9.7-4.8c-0.3-0.3-0.5-0.8-0.5-1.2v-16.7H-75c-0.9,0-1.7,0.8-1.7,1.7v80.8c0,1,0.8,1.7,1.7,1.7h61.2
	c0.9,0,1.7-0.8,1.7-1.7v-7.7L-17.9,475.3z M-25,477.7h-38.7c-0.9,0-1.7-0.8-1.7-1.7c0-0.9,0.8-1.7,1.7-1.7H-25
	c0.9,0,1.7,0.8,1.7,1.7C-23.3,476.9-24.1,477.7-25,477.7L-25,477.7z"/>
<path class="st0" d="M-3.5,446.8c-1.6-9.7-9.8-16.8-19.7-16.8c-10.3,0-19.2,7.9-19.9,18.5c-1.1,12.3,10.1,23.1,23,21.1
	C-9.2,467.9-1.8,457.7-3.5,446.8L-3.5,446.8z M-20.8,464.6c-0.8,0.1-1.6,0.2-2.4,0.2c-4.1,0-8.1-1.8-10.9-4.9c-2.8-3-4.2-7-3.8-10.9
	c0.5-7.8,7-13.8,14.8-13.8c7.3,0,13.4,5.2,14.6,12.5C-7.3,455.7-12.8,463.3-20.8,464.6L-20.8,464.6z"/>
<path class="st0" d="M-13.8,446.9c-1.1-2.3-2.9-4.2-5.1-5.5c-0.8-0.4-1.1-1.5-0.7-2.3s1.5-1.1,2.3-0.7c2.9,1.6,5.2,4.1,6.6,7
	c0.4,0.9,0,1.9-0.8,2.3C-12.4,448.1-13.4,447.7-13.8,446.9L-13.8,446.9z"/>
<path class="st0" d="M2.5,488.8c-2.8,1.9-6.6,1.1-8.5-1.7l-9.1-13.7c-0.3-0.4-0.3-0.8-0.3-1.3c0-0.1,0-0.1,0.1-0.2
	c3.6-1.3,6.7-3.4,9.2-6.1c0.1,0,0.1,0,0.2,0c0.4,0.1,0.8,0.4,1.1,0.7l9.1,13.7C6.1,483.1,5.4,487,2.5,488.8L2.5,488.8z"/>
<path class="st1" d="M36.2,12H30V5.5L36.2,12z"/>
<path class="st1" d="M33.7,36.2c-0.3-0.4-0.4-0.7-0.4-1.2c-0.1,0-0.3,0.1-0.4,0.1c-0.6,0.1-1.2,0.2-1.9,0.2c-2.8,0-5.6-1.1-7.7-2.9
	H11.1c-0.4,0-0.8-0.4-0.8-0.8s0.4-0.8,0.8-0.8h10.7c-0.8-1.1-1.3-2.2-1.7-3.4h-8.9c-0.4,0-0.8-0.4-0.8-0.8s0.4-0.8,0.8-0.8h8.5
	c-0.1-0.8-0.1-1.5-0.1-2.3c0-0.4,0.1-0.7,0.2-1.1h-8.6c-0.4,0-0.8-0.4-0.8-0.8s0.4-0.8,0.8-0.8h9c0.4-1.2,1.1-2.4,2-3.4h-11
	c-0.4,0-0.8-0.4-0.8-0.8s0.4-0.8,0.8-0.8h12.5c1.3-1.1,3-1.9,4.8-2.3c-0.2-0.2-0.3-0.4-0.3-0.6V5H5.7C5.3,5,4.9,5.4,4.9,5.8v38.4
	c0,0.4,0.4,0.8,0.8,0.8h30.1c0.4,0,0.8-0.4,0.8-0.8v-3.6L33.7,36.2z M30.2,37.3h-19c-0.4,0-0.8-0.4-0.8-0.8c0-0.4,0.4-0.8,0.8-0.8
	h19c0.4,0,0.8,0.4,0.8,0.8S30.7,37.3,30.2,37.3L30.2,37.3z"/>
<path class="st1" d="M40.8,22.7c-0.8-4.6-4.8-8-9.7-8c-5.1,0-9.4,3.7-9.8,8.8c-0.5,5.9,5,11,11.3,10C38,32.7,41.6,27.8,40.8,22.7
	L40.8,22.7z M32.3,31.1c-0.4,0.1-0.8,0.1-1.2,0.1c-2,0-4-0.8-5.3-2.3c-1.3-1.4-2-3.3-1.9-5.2c0.3-3.7,3.5-6.6,7.3-6.6
	c3.6,0,6.6,2.5,7.2,6C38.9,27,36.3,30.5,32.3,31.1L32.3,31.1z"/>
<path class="st1" d="M35.7,22.7c-0.5-1.1-1.4-2-2.5-2.6c-0.4-0.2-0.5-0.7-0.4-1.1c0.2-0.4,0.7-0.5,1.2-0.4c1.4,0.7,2.6,2,3.2,3.4
	c0.2,0.4,0,0.9-0.4,1.1C36.4,23.3,35.9,23.1,35.7,22.7L35.7,22.7z"/>
<path class="st1" d="M43.7,42.7c-1.4,0.9-3.3,0.5-4.2-0.8l-4.4-6.5C35,35.2,34.9,35,35,34.8v-0.1c1.8-0.6,3.3-1.6,4.5-2.8h0.1
	c0.2,0,0.4,0.2,0.5,0.4l4.4,6.5C45.5,39.9,45.1,41.8,43.7,42.7L43.7,42.7z"/>
</svg>
