<?xml version="1.0" encoding="utf-8"?>
<!-- Generator: Adobe Illustrator 24.0.1, SVG Export Plug-In . SVG Version: 6.00 Build 0)  -->
<svg version="1.1" id="Layer_1" xmlns="http://www.w3.org/2000/svg" xmlns:xlink="http://www.w3.org/1999/xlink" x="0px" y="0px"
	 width="50px" height="50px" viewBox="0 0 50 50" style="enable-background:new 0 0 50 50;" xml:space="preserve">
<style type="text/css">
	.st0{fill:#FFFFFF;stroke:#000000;stroke-width:0.5;stroke-miterlimit:10;}
</style>
<path d="M44.9,50H5.1C2.3,50,0,47.7,0,44.9V5.1C0,2.3,2.3,0,5.1,0H45c2.7,0,5,2.3,5,5.1V45C50,47.7,47.7,50,44.9,50z"/>
<path class="st0" d="M19.4,12.6h-9.1c-0.4,0-0.8-0.3-0.8-0.7V9.2c0-0.3,0.3-0.7,0.8-0.7h9.1c0.4,0,0.8,0.3,0.8,0.7v2.8
	C20.2,12.2,19.8,12.6,19.4,12.6L19.4,12.6z M20.2,15.9v-0.7c0-0.3-0.3-0.7-0.8-0.7h-9.1c-0.4,0-0.8,0.3-0.8,0.7v0.7
	c0,0.3,0.3,0.7,0.8,0.7h9.1C19.8,16.6,20.2,16.3,20.2,15.9z M20.2,20v-0.7c0-0.3-0.3-0.7-0.8-0.7h-9.1c-0.4,0-0.8,0.3-0.8,0.7V20
	c0,0.3,0.3,0.7,0.8,0.7h9.1c0.2,0,0.3-0.1,0.5-0.2C20.1,20.3,20.2,20.2,20.2,20z M29.9,38.1v2.8c0,0.3,0.3,0.7,0.8,0.7h9.1
	c0.4,0,0.8-0.3,0.8-0.7v-2.8c0-0.3-0.3-0.7-0.8-0.7h-9.1C30.3,37.4,29.9,37.8,29.9,38.1z M29.9,34.1v0.7c0,0.3,0.3,0.7,0.8,0.7h9.1
	c0.4,0,0.8-0.3,0.8-0.7v-0.7c0-0.3-0.3-0.7-0.8-0.7h-9.1C30.3,33.5,29.9,33.7,29.9,34.1L29.9,34.1z M29.9,30v0.7
	c0,0.3,0.3,0.7,0.8,0.7h9.1c0.4,0,0.8-0.3,0.8-0.7V30c0-0.3-0.3-0.7-0.8-0.7h-9.1C30.3,29.4,29.9,29.7,29.9,30L29.9,30z M23.9,7.1
	V22c0,0.5-0.3,1-0.7,1.4c-0.4,0.3-1,0.6-1.6,0.6H8.1c-0.6,0-1.2-0.2-1.6-0.6C6,23,5.7,22.5,5.7,21.9V7.1c0-0.5,0.3-1,0.7-1.5
	c0.4-0.3,1-0.5,1.6-0.5h13.6c0.6,0,1.2,0.2,1.6,0.6C23.7,6.1,23.9,6.6,23.9,7.1L23.9,7.1z M22.4,6.5H7.3v16.2h15.1V6.5z M44.3,7.1
	V22c0,0.5-0.3,1-0.7,1.4c-0.4,0.3-1,0.6-1.6,0.6H28.5c-0.6,0-1.2-0.2-1.6-0.6c-0.4-0.3-0.7-0.9-0.7-1.5V7.1c0-0.5,0.3-1,0.7-1.5
	c0.4-0.3,1-0.5,1.6-0.5H42c0.6,0,1.2,0.2,1.6,0.6C44,6.1,44.3,6.6,44.3,7.1L44.3,7.1z M42.8,6.5H27.7v16.2h15.1V6.5z M14.1,40.8V30
	c0-0.3-0.3-0.7-0.8-0.7h-3c-0.4,0-0.8,0.3-0.8,0.7v10.8c0,0.3,0.3,0.7,0.8,0.7h3C13.8,41.5,14.1,41.2,14.1,40.8L14.1,40.8z
	 M20.2,30.8v-0.7c0-0.3-0.3-0.7-0.8-0.7H17c-0.4,0-0.8,0.3-0.8,0.7v0.7c0,0.3,0.3,0.7,0.8,0.7h2.3c0.2,0,0.3-0.1,0.5-0.2
	C20.1,31.1,20.2,31,20.2,30.8z M20.2,34.8v-0.7c0-0.3-0.3-0.7-0.8-0.7H17c-0.4,0-0.8,0.3-0.8,0.7v0.7c0,0.3,0.3,0.7,0.8,0.7h2.3
	c0.2,0,0.3-0.1,0.5-0.2C20.1,35.1,20.2,34.9,20.2,34.8L20.2,34.8z M20.2,38.8v-0.7c0-0.3-0.3-0.7-0.8-0.7H17c-0.4,0-0.8,0.3-0.8,0.7
	v0.7c0,0.3,0.3,0.7,0.8,0.7h2.3C19.8,39.5,20.2,39.2,20.2,38.8L20.2,38.8z M36.8,20.6h3c0.4,0,0.8-0.3,0.8-0.7V9.2
	c0-0.3-0.3-0.7-0.8-0.7h-3c-0.4,0-0.8,0.3-0.8,0.7V20C36,20.3,36.3,20.6,36.8,20.6z M30.7,10.5H33c0.4,0,0.8-0.3,0.8-0.7V9.2
	c0-0.3-0.3-0.7-0.8-0.7h-2.3c-0.4,0-0.8,0.3-0.8,0.7v0.7C29.9,10.2,30.3,10.5,30.7,10.5z M30.7,14.5H33c0.4,0,0.8-0.3,0.8-0.7v-0.7
	c0-0.3-0.3-0.7-0.8-0.7h-2.3c-0.4,0-0.8,0.3-0.8,0.7v0.7C29.9,14.3,30.3,14.5,30.7,14.5L30.7,14.5z M30.7,18.6H33
	c0.4,0,0.8-0.3,0.8-0.7v-0.7c0-0.3-0.3-0.7-0.8-0.7h-2.3c-0.4,0-0.8,0.3-0.8,0.7v0.7C29.9,18.3,30.3,18.6,30.7,18.6L30.7,18.6z
	 M23.9,28v14.9c0,0.5-0.3,1-0.7,1.4c-0.4,0.3-1,0.6-1.6,0.6H8.1c-0.6,0-1.2-0.2-1.6-0.6c-0.4-0.3-0.7-0.9-0.7-1.5V28
	c0-0.5,0.3-1,0.7-1.5c0.4-0.3,1-0.6,1.6-0.6h13.6c0.6,0,1.2,0.2,1.6,0.6C23.7,27,23.9,27.5,23.9,28L23.9,28z M22.4,27.3H7.3v16.2
	h15.1V27.3z M44.3,28v14.9c0,0.5-0.3,1-0.7,1.4c-0.4,0.3-1,0.6-1.6,0.6H28.5c-0.6,0-1.2-0.2-1.6-0.6c-0.4-0.3-0.7-0.9-0.7-1.5V28
	c0-0.5,0.3-1,0.7-1.5c0.4-0.3,1-0.6,1.6-0.6H42c0.6,0,1.2,0.2,1.6,0.6C44,27,44.3,27.5,44.3,28L44.3,28z M42.8,27.3H27.7v16.2h15.1
	V27.3z"/>
</svg>
