<?xml version="1.0" encoding="utf-8"?>
<!-- Generator: Adobe Illustrator 24.0.1, SVG Export Plug-In . SVG Version: 6.00 Build 0)  -->
<svg version="1.1" id="Layer_1" xmlns="http://www.w3.org/2000/svg" xmlns:xlink="http://www.w3.org/1999/xlink" x="0px" y="0px"
	 width="50px" height="50px" viewBox="0 0 50 50" style="enable-background:new 0 0 50 50;" xml:space="preserve">
<path d="M38.8,2.6c-1,2.3,0.7,4.7-4.6,5.9C34.1,8.4,34,8.4,34,8.4c-0.2-0.1-0.2-0.2-0.4-0.2c1.1-0.2,1.8-0.5,0.5-0.9
	c-0.9-0.2-1.9-0.2-2.8,0C31.2,7.1,30.8,7,30.6,7c0.3-0.5-0.2-0.5-0.6-0.2c0,0-0.1,0.1-0.2,0.1c-0.8-0.2-1.6-0.2-2.5-0.3
	c0.9-0.7,2-1.3,3-1.8c1-0.5,0.7-1.2-0.2-1c-1.4,0.4-2.7,1.1-3.7,2.2c0.5-1.3,0.9-2.7,1.3-4c0.4-1.2-0.5-1.6-1.2-0.5
	c-0.9,1.4-1.4,3.1-1.3,4.8c-1.1-1.4-0.4-3.4-0.4-5c0-0.6-0.4-0.7-0.7-0.2c-1.2,1.7-1,4.1,0.3,5.5c-1.2-0.8-1.7-2.3-2.7-3.2
	c-1.1-0.9,0,1.5,1.3,3.3c-0.9,0.1-1.8,0.2-2.7,0.3c-0.1,0-0.1-0.1-0.2-0.1C20,6.5,19.5,6.5,19.8,7C19.5,7,19.2,7.1,19,7.2
	c-0.9-0.2-1.9-0.2-2.8,0c-1.2,0.4-0.5,0.7,0.5,0.9c-0.2,0.1-0.2,0.2-0.4,0.2c-0.1,0.1-0.2,0.1-0.2,0.2c-5.4-1.2-3.6-3.7-4.6-5.9
	c-1.4-2.8-8.3-3.9-9.1-0.3C2.4,2.4,2.6,2.5,2.8,2.4c1.6-1.6,3.8-0.8,4.4,0.9c1.3,3.7-5.6,7.4,4.8,12.6c-0.3,1-0.6,2.1-0.9,3.2
	c-3.8,1.8-6.2,10.7-6.2,15.1c-1.1,0.3-2.7,3.1,0.2,1.6c0.2,0.8,0.3,1.1,1.2,1.5C6,38.9,6.6,39,7.5,37.7c0.5,0,1.2-0.5,1.5-0.7
	c0.9,3,1.7-0.2,1.2-1.1c0.2-0.2,0.4-0.5,0.6-0.6c0.6,3.2,1.6,5.8,4.3,7.6c0.6,1.8,1.6,3.7,2.1,5c-4.4-2.5-5.7,0.9-5.7,2.2
	c11-0.1,9.5,0.9,10.3-4.8c2.2,0.3,4.5,0.3,6.9,0c0.5,3.4,0.3,3,0.5,3.5c0.5,1.4,1.9,1.2,2,1.2h7.7c-0.1-1.2-1.3-4.7-5.7-2.2
	c0.5-1.3,1.5-3.2,2.1-5c2.7-1.8,3.6-4.3,4.3-7.6c0.2,0.2,0.4,0.4,0.6,0.6c-0.5,1,0.5,4,1.2,1.1c0.4,0.2,1,0.7,1.5,0.7
	c0.9,1.4,1.6,1.3,1.3-0.4c0.9-0.5,1-0.8,1.2-1.5c2.9,1.6,1.1-1.4,0.2-1.6c0-4.3-2.3-13.3-6.2-15.1c-0.2-1.1-0.5-2.2-0.9-3.2
	C48.9,10.6,42,7,43.3,3.2c0.5-1.6,2.7-2.4,4.4-0.9c0.2,0.2,0.4,0,0.3-0.2C47-1.3,40.1-0.2,38.8,2.6L38.8,2.6z M29.8,9.7
	c2.3,0,4.3,2,4.4,4.4c0.2,2.5-1.6,4.4-3.9,4.4c-2.3,0-4.3-2-4.4-4.4C25.8,11.7,27.6,9.7,29.8,9.7L29.8,9.7z M16,14.1
	c0.2-2.5,2.2-4.4,4.4-4.4s4.1,2,3.9,4.4c-0.2,2.5-2.2,4.4-4.4,4.4C17.6,18.7,15.9,16.6,16,14.1L16,14.1z M34.3,30.1
	c-2,2.5-5.4,4-9.1,4s-7.2-1.5-9.1-4c-1.4-1.8-1.9-3.9-1.4-5.9c0.2-0.5,0.5-0.9,0.9-1.2c0.6-0.4,1.5-0.5,2.3-0.2
	c5.1,1.6,10.1,1.6,14.7,0.1c0.8-0.2,1.6-0.2,2.3,0.2c0.5,0.3,0.9,0.7,0.9,1.2C36.1,26.3,35.7,28.4,34.3,30.1L34.3,30.1z"/>
<path d="M34.4,23.8c-0.5-0.2-1.1-0.3-1.6-0.2c-0.3,0.1-0.5,0.2-0.9,0.2c0.2,0.2,0.4,0.4,0.4,0.7c0,0.3,0,0.5-0.1,0.7
	c-0.4,0.5-1.5,0.9-2,0.5c-0.2-0.2-0.2-0.6-0.2-1c0-0.2,0.1-0.3,0.2-0.4c-0.3,0.1-0.6,0.2-0.9,0.2c0.2,0.2,0.3,0.4,0.3,0.6
	c0,0.3,0,0.6-0.1,0.8c-0.5,0.5-1.6,0.7-2.2,0.2C27.1,26,27,25.7,27,25.3c0-0.2,0.1-0.4,0.2-0.6h-0.9c0.1,0.2,0.2,0.2,0.2,0.4
	c0.1,0.5,0.2,0.9-0.1,1c-0.5,0.3-1.2,0.8-2.3,0c-0.2-0.2-0.2-0.5-0.1-0.9c0-0.2,0.2-0.4,0.2-0.5c-0.3,0-0.6,0-1-0.1
	c0.1,0.2,0.2,0.4,0.2,0.5c0,0.4,0,0.8-0.2,0.9c-0.6,0.5-2,0.3-2.4-0.3c-0.1-0.2-0.2-0.4-0.1-0.7c0-0.3,0.2-0.5,0.3-0.7
	c-0.3-0.1-0.7-0.2-1-0.2c0.1,0.1,0.1,0.2,0.1,0.4c0,0.5,0,0.9-0.2,1.1c-0.5,0.4-1.5,0.1-1.9-0.5C18,24.9,18,24.7,18,24.4
	c0-0.3,0.2-0.5,0.4-0.7c-0.3-0.1-0.5-0.2-0.9-0.2c-0.2-0.1-0.4-0.1-0.6-0.1c-0.4,0-0.7,0.1-1,0.2c-0.3,0.2-0.5,0.4-0.5,0.7
	c-0.5,1.8,0,3.7,1.2,5.2c0.4,0.5,0.9,0.9,1.3,1.3c-0.1-0.6-0.1-1.6,0.2-1.7c0.7-0.2,1.4,0.7,1.8,1.4c0,0,0,0.1,0.1,0.2
	c0.2,0.5-0.2,1-0.6,1.2c0.4,0.2,0.9,0.4,1.2,0.6c0-0.1-0.1-0.2-0.1-0.2c-0.1-0.5-0.1-1.2,0.2-1.2c0.8-0.4,2,0.1,2.4,0.7
	c0.1,0.2,0.1,0.4,0.1,0.7c0,0.3-0.2,0.5-0.4,0.7c0.4,0.1,0.7,0.1,1.1,0.2c-0.2-0.2-0.2-0.4-0.2-0.6c0-0.4,0.1-0.7,0.2-0.9
	c0.6-0.5,1.7-0.5,2.3,0c0.2,0.2,0.2,0.5,0.2,0.9c0,0.2-0.1,0.5-0.2,0.6c0.4,0,0.7-0.1,1.1-0.2c-0.2-0.2-0.3-0.4-0.4-0.7
	c0-0.3,0-0.5,0.1-0.7c0.5-0.6,1.6-1,2.2-0.6c0.2,0.2,0.2,0.7,0.2,1.2c0,0.1,0,0.2-0.1,0.3c0.5-0.2,0.9-0.4,1.2-0.5
	c-0.5-0.2-0.8-0.6-0.6-1.2c0-0.1,0-0.1,0.1-0.2c0.4-0.7,1.2-1.7,1.9-1.4c0.3,0.2,0.3,1,0.2,1.7c0.5-0.4,0.9-0.8,1.2-1.2
	c1.2-1.6,1.7-3.4,1.2-5.2C34.9,24.2,34.7,24,34.4,23.8L34.4,23.8z"/>
<path d="M29.4,15.5c0.9,0,1.6-0.7,1.6-1.6c0-0.3-0.1-0.5-0.2-0.8c-0.1,0.2-0.3,0.4-0.6,0.4c-0.4,0-0.6-0.3-0.6-0.6
	c0-0.2,0.1-0.3,0.2-0.5h-0.3c-0.9,0-1.6,0.7-1.6,1.6C27.8,14.8,28.5,15.5,29.4,15.5L29.4,15.5z M28.9,13.9c0.2,0,0.4,0.2,0.4,0.4
	c0,0.2-0.2,0.4-0.4,0.4c-0.2,0-0.4-0.2-0.4-0.4C28.5,14.1,28.7,13.9,28.9,13.9z"/>
<path d="M20.9,15.5c0.9,0,1.6-0.7,1.6-1.6c0-0.9-0.7-1.6-1.6-1.6h-0.3c0.2,0.2,0.2,0.3,0.2,0.5c0,0.4-0.3,0.6-0.6,0.6
	c-0.2,0-0.5-0.2-0.6-0.4c-0.2,0.2-0.2,0.5-0.2,0.8C19.4,14.8,20.1,15.5,20.9,15.5L20.9,15.5z M21.4,13.9c0.2,0,0.4,0.2,0.4,0.4
	c0,0.2-0.2,0.4-0.4,0.4c-0.2,0-0.4-0.2-0.4-0.4C21.1,14.1,21.2,13.9,21.4,13.9z"/>
</svg>
