<?xml version="1.0" encoding="utf-8"?>
<!-- Generator: Adobe Illustrator 24.0.1, SVG Export Plug-In . SVG Version: 6.00 Build 0)  -->
<svg version="1.1" id="Layer_1" xmlns="http://www.w3.org/2000/svg" xmlns:xlink="http://www.w3.org/1999/xlink" x="0px" y="0px"
	 width="50px" height="50px" viewBox="0 0 50 50" style="enable-background:new 0 0 50 50;" xml:space="preserve">
<path d="M9.1,17.5c-1.5,2-2.4,4.4-2.4,6.9c0,2.8,1,5.4,2.8,7.5c-1.7,0-3.3,0.2-4.8,0.7c-2.3,0.7-3.3,2.6-2.3,4.8
	c1.1,2.5,2.9,5,4.6,7.3c-0.8,0.5-1.6,0.9-2.5,1.4c-1.7,1-0.2,3.7,1.6,2.7c1.3-0.7,2.6-1.5,3.9-2.2c0.7-0.4,1-1.4,0.6-2.1
	c-1.2-1.8-2.3-3.6-3.4-5.3c-1.8-2.8-3.2-3.6,0.5-3.9c2.1-0.1,4.2,0,6.3,0.3c2.7,1.5,6,2.4,9.6,2.4c2.3,0,4.6-0.4,6.6-1.1
	c0.7,3.4,1.9,7.8,4.7,9.4c2.7,1.6,4.5-1,6-2.9c1.5-1.9,3-3.8,4.5-5.8c0.7,0.5,1.3,1,2,1.6c1.6,1.2,3.8-1,2.2-2.2
	c-1.1-0.9-2.2-1.8-3.4-2.7c-0.8-0.7-1.8-0.6-2.4,0.3c-1.2,1.5-2.3,3.1-3.5,4.6c-0.6,0.8-2.3,3.8-3.3,4.2c-0.7,0.3-0.7,0.2-1.3-0.6
	c-1.4-1.9-2.1-4.6-2.6-7.1c4.4-2.4,7.3-6.5,7.3-11.1c0-2.3-0.7-4.5-2-6.4c5.9-2.6,9.9-8.6,10.8-14.9c0.3-2-2.7-2.8-3-0.8
	c-0.9,5.8-4.4,11.2-10,13.2c-3.1-2.8-7.6-4.7-12.7-4.7c-4.8,0-9.2,1.6-12.3,4.3C7.1,12.9,3.5,8.4,3.1,3.3c-0.1-2-3.2-2-3.1,0
	C0.4,9.3,4,14.4,9.1,17.5L9.1,17.5z M26.8,14.8c0.8,0,1.4,0.6,1.4,1.4c0,0.8-0.6,1.4-1.4,1.4c-0.8,0-1.4-0.6-1.4-1.4
	C25.4,15.4,26.1,14.8,26.8,14.8L26.8,14.8z M20.1,14.8c0.8,0,1.4,0.6,1.4,1.4c0,0.8-0.6,1.4-1.4,1.4c-0.8,0-1.4-0.6-1.4-1.4
	C18.7,15.4,19.3,14.8,20.1,14.8L20.1,14.8z M30.9,23.9c0,3.3-3.3,5.9-7.4,5.9c-4.1,0-7.4-2.7-7.4-5.9C16.1,20.6,30.9,20.6,30.9,23.9
	L30.9,23.9z"/>
</svg>
