<?xml version="1.0" encoding="utf-8"?>
<!-- Generator: Adobe Illustrator 24.0.1, SVG Export Plug-In . SVG Version: 6.00 Build 0)  -->
<svg version="1.1" id="Layer_1" xmlns="http://www.w3.org/2000/svg" xmlns:xlink="http://www.w3.org/1999/xlink" x="0px" y="0px"
	 width="50px" height="50px" viewBox="0 0 50 50" style="enable-background:new 0 0 50 50;" xml:space="preserve">
<path d="M36.6,13.4l-4.4-5.2c-1.2,0.2-6.1,1.2-9.2,1.2c-1.1,0-2.6-0.1-3.9-0.5l-3.8,4.5v4.5c0,5,5,12,9.8,12h1.7c4.9,0,9.8-7,9.8-12
	L36.6,13.4z M20,11.9c0-0.2,0.3-0.4,0.5-0.4l2.6,0.4c0.2,0,0.4,0.3,0.4,0.5c0,0.2-0.2,0.4-0.4,0.4c0,0,0,0-0.1,0l-2.6-0.4
	C20.1,12.4,19.9,12.1,20,11.9L20,11.9z M21.5,16.7c-0.6,0-1.2-0.5-1.2-1.2v-1.1c0-0.6,0.5-1.2,1.2-1.2h0.2c0.6,0,1.2,0.5,1.2,1.2
	v1.1c0,0.6-0.5,1.2-1.2,1.2L21.5,16.7z M29.5,23.2c-0.8,0.7-2.8,0.9-4.4,0.9c-1.1,0-2-0.1-2.2-0.1c-0.2,0-0.4-0.2-0.4-0.5
	c0-0.2,0.2-0.4,0.5-0.4c1.9,0.2,5.2,0.1,5.9-0.6c0.2-0.2,0.4-0.2,0.6,0C29.7,22.7,29.7,23,29.5,23.2L29.5,23.2z M31.5,15.5
	c0,0.6-0.5,1.2-1.2,1.2h-0.2c-0.6,0-1.2-0.5-1.2-1.2v-1.1c0-0.6,0.5-1.2,1.2-1.2h0.2c0.6,0,1.2,0.5,1.2,1.2V15.5z M31.6,12.4
	L29,12.8c0,0,0,0-0.1,0c-0.2,0-0.4-0.2-0.4-0.4c0-0.2,0.1-0.5,0.4-0.5l2.6-0.4c0.2,0,0.5,0.1,0.5,0.4C31.9,12.1,31.8,12.4,31.6,12.4
	L31.6,12.4z"/>
<path d="M30.7,36.4l6.8,1.4l-3.2-5L31,31L30.7,36.4z"/>
<path d="M30.3,14.1h-0.2c-0.2,0-0.3,0.1-0.3,0.3v1.1c0,0.2,0.1,0.3,0.3,0.3h0.2c0.2,0,0.3-0.1,0.3-0.3v-1.1
	C30.6,14.2,30.5,14.1,30.3,14.1z"/>
<path d="M30,29.9c-1.1,0.6-2.2,0.8-3.2,0.8h-1.7c-1,0-2.1-0.3-3.2-0.8l-0.1,2.2l0.3,4.4l3.9,3.9l3.9-3.9l0.3-4.4L30,29.9z"/>
<path d="M18.4,7.7c1.5,0.7,3.5,0.8,4.5,0.8c3.4,0,9.3-1.3,9.3-1.3c0,0,0.1,0,0.1,0c0.1,0,0.2,0.1,0.3,0.2l3.9,4.7V9
	c0-2.7-1-8.8-9.8-9c-1,0-3.6,0.2-5,0.3c-0.5,0-0.9,0.1-1,0.1c-4.2,0.2-6.3-0.1-7.2-0.3C14.3,5.1,16.9,7,18.4,7.7L18.4,7.7z"/>
<path d="M39.9,16.8c0.3-1,0.2-2-0.2-2.7c-0.2-0.3-0.4-0.7-0.9-0.8c-0.4-0.1-0.9,0-1.3,0.2l0,4.4c0,0.4,0,0.8-0.1,1.3
	C38.4,19.2,39.4,18.2,39.9,16.8L39.9,16.8z"/>
<path d="M21.8,14.1h-0.2c-0.2,0-0.3,0.1-0.3,0.3v1.1c0,0.2,0.1,0.3,0.3,0.3h0.2c0.2,0,0.3-0.1,0.3-0.3v-1.1
	C22.1,14.2,21.9,14.1,21.8,14.1z"/>
<path d="M25.9,41.5c-0.1,0-0.2,0-0.3-0.1L22.3,38l3.7,6l3.9-6.4l-3.7,3.7C26.2,41.4,26,41.5,25.9,41.5L25.9,41.5z"/>
<path d="M41.7,37.6c-0.8,3.5-0.8,7.6-0.8,7.6V50H46v-2.5C46,43.7,44.4,40.1,41.7,37.6L41.7,37.6z"/>
<path d="M5.8,47.5V50H11v-4.7c0,0,0-4.2-0.8-7.6C7.5,40.1,5.8,43.7,5.8,47.5L5.8,47.5z"/>
<path d="M39.1,35.8l-3-1.6l2.6,4c0.1,0.1,0.1,0.3,0,0.5c-0.1,0.1-0.2,0.2-0.4,0.2c0,0-0.1,0-0.1,0l-7.1-1.5l0,0l-4.7,7.7
	c-0.1,0.1-0.2,0.2-0.4,0.2c-0.1,0-0.3-0.1-0.4-0.2l-4.7-7.7l-7.3,1.5c0,0-0.1,0-0.1,0c-0.1,0-0.3-0.1-0.4-0.2
	c-0.1-0.1-0.1-0.3,0-0.5l2.6-4l-3,1.6c-0.7,0.4-1.3,0.8-1.8,1.2c0.9,3.7,0.9,8.1,0.9,8.3V50H40v-4.7c0-0.2,0-4.6,0.9-8.3
	C40.3,36.6,39.7,36.2,39.1,35.8L39.1,35.8z M25.9,48.7c-0.7,0-1.3-0.6-1.3-1.3c0-0.7,0.6-1.3,1.3-1.3s1.3,0.6,1.3,1.3
	C27.2,48.1,26.6,48.7,25.9,48.7z"/>
<path d="M26.4,47.4c0,0.6-0.9,0.6-0.9,0C25.5,46.9,26.4,46.9,26.4,47.4"/>
<path d="M14.5,37.8l6.8-1.4L20.9,31l-3.2,1.8L14.5,37.8z"/>
<path d="M14.5,19.2c-0.1-0.4-0.1-0.9-0.1-1.3v-4.4c-0.4-0.3-0.9-0.4-1.3-0.2c-0.5,0.1-0.8,0.5-0.9,0.8c-0.4,0.7-0.5,1.7-0.2,2.7
	C12.4,18.2,13.5,19.2,14.5,19.2L14.5,19.2z"/>
<path d="M15.4,6.5c-0.1,0.6-0.2,1.2-0.2,1.9v3.6l2.9-3.5c0,0-0.1,0-0.1,0C17.3,8.2,16.4,7.5,15.4,6.5L15.4,6.5z"/>
</svg>
