<?xml version="1.0" encoding="utf-8"?>
<!-- Generator: Adobe Illustrator 24.0.1, SVG Export Plug-In . SVG Version: 6.00 Build 0)  -->
<svg version="1.1" id="Layer_1" xmlns="http://www.w3.org/2000/svg" xmlns:xlink="http://www.w3.org/1999/xlink" x="0px" y="0px"
	 width="50px" height="50px" viewBox="0 0 50 50" style="enable-background:new 0 0 50 50;" xml:space="preserve">
<path d="M49.9,0L49.9,0l0.1,14.4c-2.2-0.5-4.6-1.1-7.3-1.5c-2.5-0.4-4.7-0.5-6.7-0.6c-0.6-2.7-2.7-4.9-5.4-4.9c-3,0-5.6,2.8-5.6,6.3
	c0-3.5-2.5-6.3-5.7-6.3c-2.7,0-4.9,2.2-5.4,5c-2,0.1-4.3,0.2-6.7,0.6c-2.7,0.4-5.1,1-7.3,1.5L0,0L49.9,0z M42.6,15.3
	c2.7,0.3,5.2,0.9,7.4,1.5v32.6H0.1V17c2.2-0.6,4.7-1.1,7.4-1.5C9.8,15.3,12,15.1,14,15c0.5,3,2.7,5.2,5.4,5.2c3.1,0,5.7-2.8,5.7-6.4
	c0,3.5,2.5,6.4,5.6,6.4c2.8,0,5-2.4,5.4-5.5C38,14.9,40.2,15,42.6,15.3L42.6,15.3z M37.1,31.8c-0.7-0.9-3.9,2.5-11.7,4.4
	C19,37.7,15.3,36.9,15,38.1c-0.5,1.7,4.9,5.8,10.4,5.4C33.2,42.7,38.2,33,37.1,31.8L37.1,31.8z M19.6,15.2c-0.5,0-1-0.5-1-1.2
	c0-0.7,0.5-1.2,1-1.2c0.5,0,0.9,0.5,0.9,1.2C20.5,14.7,20.1,15.2,19.6,15.2z M31.5,14c0,0.7-0.5,1.2-1,1.2c-0.5,0-0.9-0.5-0.9-1.2
	c0-0.7,0.5-1.2,0.9-1.2C31,12.8,31.5,13.3,31.5,14z"/>
</svg>
