<?xml version="1.0" encoding="utf-8"?>
<!-- Generator: Adobe Illustrator 24.0.1, SVG Export Plug-In . SVG Version: 6.00 Build 0)  -->
<svg version="1.1" id="Layer_1" xmlns="http://www.w3.org/2000/svg" xmlns:xlink="http://www.w3.org/1999/xlink" x="0px" y="0px"
	 width="50px" height="50px" viewBox="0 0 50 50" style="enable-background:new 0 0 50 50;" xml:space="preserve">
<path d="M12.8,42.89c2.55,2.58,5.83,4.28,9.38,4.88c3.55,0.6,7.2,0.05,10.43-1.56c3.23-1.61,5.89-4.2,7.59-7.41H9.79
	C10.59,40.3,11.61,41.68,12.8,42.89L12.8,42.89z"/>
<path d="M25,28.83c1.09,0,2.13-0.44,2.9-1.22c0.77-0.78,1.2-1.84,1.2-2.94c0-1.1-0.43-2.16-1.2-2.94c-0.77-0.78-1.82-1.22-2.9-1.22
	c-1.09,0-2.13,0.44-2.9,1.22c-0.77,0.78-1.2,1.84-1.2,2.94c0,1.1,0.43,2.16,1.2,2.94C22.87,28.39,23.91,28.83,25,28.83L25,28.83z
	 M21.71,24.67c0-0.29,0.15-0.56,0.4-0.71l4.11-2.49c0.25-0.15,0.57-0.16,0.83-0.01c0.26,0.15,0.42,0.42,0.42,0.72v4.98
	c0,0.3-0.16,0.58-0.42,0.72c-0.26,0.15-0.57,0.14-0.83-0.01l-4.11-2.49C21.87,25.24,21.71,24.96,21.71,24.67L21.71,24.67z"/>
<path d="M25.82,23.65l-1.69,1.03l1.69,1.03V23.65z"/>
<path d="M48,28.31v-6.75c0-0.57-0.46-1.04-1.03-1.04h-0.62v8.83h0.62C47.54,29.35,48,28.89,48,28.31L48,28.31z"/>
<path d="M20.74,14.7c0.76,0,1.52,0.18,2.2,0.53l1.5,0.76h0c0.35,0.17,0.75,0.17,1.1,0l1.5-0.76h0c0.68-0.35,1.44-0.53,2.2-0.53
	h11.56c0.31,0,0.62,0.03,0.93,0.08c-0.93-3.78-3.08-7.14-6.11-9.54c-3.03-2.4-6.78-3.7-10.63-3.7c-3.85,0-7.59,1.3-10.63,3.7
	c-3.03,2.4-5.19,5.76-6.11,9.54c0.31-0.05,0.62-0.08,0.93-0.08H20.74z M21.35,9.04c2.3-1.16,5.01-1.16,7.31,0
	c0.2,0.1,0.35,0.27,0.42,0.48c0.07,0.21,0.05,0.44-0.04,0.64c-0.1,0.2-0.27,0.35-0.48,0.42c-0.21,0.07-0.43,0.05-0.63-0.05
	c-1.84-0.92-4-0.92-5.84,0c-0.2,0.1-0.42,0.12-0.63,0.05c-0.21-0.07-0.38-0.22-0.48-0.42c-0.1-0.2-0.11-0.43-0.04-0.64
	C21,9.31,21.15,9.14,21.35,9.04L21.35,9.04z"/>
<path d="M8.58,37.09c0.2,0.03,0.4,0.05,0.61,0.05h31.63c1.03,0,2.03-0.42,2.76-1.16c0.73-0.74,1.14-1.74,1.14-2.79v-0.17
	c-1.04,1.04-2.44,1.63-3.9,1.63H9.19c-1.46,0-2.87-0.58-3.9-1.63v0.17c0,0.94,0.33,1.85,0.93,2.57C6.82,36.47,7.66,36.94,8.58,37.09
	L8.58,37.09z"/>
<path d="M9.19,32.98h31.63c1.03,0,2.03-0.42,2.76-1.16s1.14-1.74,1.14-2.79v-8.72c0-1.05-0.41-2.05-1.14-2.79
	c-0.73-0.74-1.72-1.16-2.76-1.16H29.26c-0.51,0-1.01,0.12-1.47,0.35l-1.5,0.76c-0.81,0.41-1.76,0.41-2.57,0l-1.5-0.76
	c-0.46-0.23-0.96-0.35-1.47-0.35H9.19c-1.03,0-2.03,0.42-2.76,1.16s-1.14,1.74-1.14,2.79v8.72c0,1.05,0.41,2.05,1.14,2.79
	C7.16,32.56,8.15,32.98,9.19,32.98L9.19,32.98z M36.5,23.84h4.93v1.66H36.5V23.84z M32.39,23.84h2.46v1.66h-2.46V23.84z M25,18.86
	c1.53,0,2.99,0.61,4.07,1.7c1.08,1.09,1.68,2.57,1.68,4.11c0,1.54-0.61,3.02-1.68,4.11c-1.08,1.09-2.54,1.7-4.07,1.7
	c-1.53,0-2.99-0.61-4.07-1.7c-1.08-1.09-1.68-2.57-1.68-4.11c0-1.54,0.61-3.02,1.69-4.11C22.01,19.47,23.48,18.86,25,18.86z
	 M8.57,23.84h9.04v1.66H8.57V23.84z"/>
<path d="M3.03,29.35h0.62v-8.83H3.03C2.46,20.52,2,20.98,2,21.56v6.75C2,28.89,2.46,29.35,3.03,29.35L3.03,29.35z"/>
</svg>
