<?xml version="1.0" encoding="utf-8"?>
<!-- Generator: Adobe Illustrator 24.0.1, SVG Export Plug-In . SVG Version: 6.00 Build 0)  -->
<svg version="1.1" id="Layer_1" xmlns="http://www.w3.org/2000/svg" xmlns:xlink="http://www.w3.org/1999/xlink" x="0px" y="0px"
	 width="50px" height="50px" viewBox="0 0 50 50" style="enable-background:new 0 0 50 50;" xml:space="preserve">
<path d="M4.13,10.06h40.67v3.65H4.13L4.13,10.06z"/>
<path d="M32.32,14.36h12.49v16.8H32.32V14.36z"/>
<path d="M4.13,14.61h26.86v0.99H4.13L4.13,14.61z"/>
<path d="M4.13,16.68h11.38v1H4.13V16.68z"/>
<path d="M4.13,18.75h26.86v0.99H4.13L4.13,18.75z"/>
<path d="M4.13,20.82h26.86v0.99H4.13L4.13,20.82z"/>
<path d="M4.13,22.89h26.86v1H4.13L4.13,22.89z"/>
<path d="M4.13,24.95h11.38v0.99H4.13V24.95z"/>
<path d="M4.13,27.02h26.86v0.99H4.13L4.13,27.02z"/>
<path d="M4.13,29.09h26.86v1H4.13L4.13,29.09z"/>
<path d="M47.57,6.26H2.47C1.68,6.26,1,6.86,1,7.65v30.12c0,0.79,0.68,1.45,1.47,1.45h17.76c-0.02,0.45-0.16,2.4-1.09,3.35
	c-0.73,0.74-1.75,1.44-1.35,1.8c0.1,0.22,0.55,0.35,1.59,0.35h5.66h0.36h5.66c1.18,0,1.59-0.19,1.6-0.48h-0.04v-0.1l-0.04,0
	c-0.05-0.39-0.84-0.96-1.43-1.57c-0.93-0.94-1.07-2.89-1.09-3.35h17.52c0.79,0,1.43-0.66,1.43-1.45v-2.79l0-27.33
	C49,6.86,48.36,6.26,47.57,6.26L47.57,6.26z M25,37.84c-0.52,0-0.93-0.42-0.93-0.93c0-0.52,0.42-0.93,0.93-0.93
	c0.52,0,0.93,0.42,0.93,0.93C25.93,37.42,25.51,37.84,25,37.84z M46.97,32.96H3.02V8.19h43.95V32.96z"/>
</svg>
