<?xml version="1.0" encoding="utf-8"?>
<!-- Generator: Adobe Illustrator 24.0.1, SVG Export Plug-In . SVG Version: 6.00 Build 0)  -->
<svg version="1.1" id="Layer_1" xmlns="http://www.w3.org/2000/svg" xmlns:xlink="http://www.w3.org/1999/xlink" x="0px" y="0px"
	 width="50px" height="50px" viewBox="0 0 50 50" style="enable-background:new 0 0 50 50;" xml:space="preserve">
<path d="M14.32,22.43H7.75c-0.88,0-1.69-0.49-2.13-1.29c-0.44-0.8-0.44-1.78,0-2.57c0.44-0.8,1.25-1.29,2.13-1.29h6.57
	c0.51,0,1,0.17,1.42,0.47c0.41,0.31,0.73,0.74,0.9,1.24h3.43V7.86H2V25h18.07v-4.29h-3.43c-0.17,0.5-0.48,0.93-0.9,1.24
	C15.33,22.26,14.83,22.43,14.32,22.43L14.32,22.43z"/>
<path d="M14.32,19H7.75c-0.45,0-0.82,0.38-0.82,0.86c0,0.47,0.37,0.86,0.82,0.86h6.57c0.45,0,0.82-0.38,0.82-0.86
	C15.14,19.38,14.78,19,14.32,19z"/>
<path d="M3.64,31.86h14.79c0.44,0,0.85-0.18,1.16-0.5c0.31-0.32,0.48-0.76,0.48-1.21v-3.43H2v3.43c0,0.45,0.17,0.89,0.48,1.21
	S3.21,31.86,3.64,31.86L3.64,31.86z M10.21,28.43h1.64v0c0.45,0,0.82,0.38,0.82,0.86c0,0.47-0.37,0.86-0.82,0.86h-1.64
	c-0.45,0-0.82-0.38-0.82-0.86C9.39,28.81,9.76,28.43,10.21,28.43L10.21,28.43z"/>
<path d="M20.07,2.71c0-0.45-0.17-0.89-0.48-1.21C19.28,1.18,18.86,1,18.43,1H3.64C3.21,1,2.79,1.18,2.48,1.5S2,2.26,2,2.71v3.43
	h18.07L20.07,2.71z M10.21,4.43H7.75c-0.45,0-0.82-0.38-0.82-0.86c0-0.47,0.37-0.86,0.82-0.86h2.46c0.45,0,0.82,0.38,0.82,0.86
	C11.04,4.04,10.67,4.43,10.21,4.43z M14.32,4.43H13.5c-0.45,0-0.82-0.38-0.82-0.86c0-0.47,0.37-0.86,0.82-0.86h0.82
	c0.45,0,0.82,0.38,0.82,0.86C15.14,4.04,14.77,4.43,14.32,4.43z"/>
<path d="M29.93,47.29c0,0.45,0.17,0.89,0.48,1.21c0.31,0.32,0.73,0.5,1.16,0.5h14.79c0.44,0,0.85-0.18,1.16-0.5
	c0.31-0.32,0.48-0.76,0.48-1.21v-3.43H29.93L29.93,47.29z M38.14,45.57h1.64c0.45,0,0.82,0.38,0.82,0.86c0,0.47-0.37,0.86-0.82,0.86
	h-1.64c-0.45,0-0.82-0.38-0.82-0.86C37.32,45.96,37.69,45.57,38.14,45.57z"/>
<path d="M29.93,28.43h3.76l-0.24-0.25c-0.32-0.34-0.32-0.88,0-1.22c0.32-0.34,0.84-0.34,1.17,0l1.64,1.71v0
	c0.07,0.08,0.13,0.17,0.17,0.27c0.07,0.17,0.08,0.37,0.03,0.55c0,0.04-0.01,0.08-0.03,0.12c-0.04,0.1-0.1,0.2-0.17,0.27l-1.64,1.71
	c-0.32,0.33-0.84,0.33-1.17,0c-0.32-0.34-0.32-0.88,0-1.22l0.24-0.25h-3.76v12H48V25H29.93V28.43z"/>
<path d="M46.36,18.14H31.57c-0.44,0-0.85,0.18-1.16,0.5c-0.31,0.32-0.48,0.76-0.48,1.21v3.43H48v-3.43c0-0.45-0.17-0.89-0.48-1.21
	C47.21,18.33,46.79,18.14,46.36,18.14L46.36,18.14z M38.14,21.57h-2.46c-0.45,0-0.82-0.38-0.82-0.86c0-0.47,0.37-0.86,0.82-0.86
	h2.46c0.45,0,0.82,0.38,0.82,0.86C38.96,21.19,38.6,21.57,38.14,21.57z M42.25,21.57h-0.82c-0.45,0-0.82-0.38-0.82-0.86
	c0-0.47,0.37-0.86,0.82-0.86h0.82c0.45,0,0.82,0.38,0.82,0.86C43.07,21.19,42.7,21.57,42.25,21.57z"/>
<path d="M27.46,28.43c-0.44,0-0.85-0.18-1.16-0.5c-0.31-0.32-0.48-0.76-0.48-1.21v-4.29c0-0.91-0.35-1.78-0.96-2.42s-1.45-1-2.32-1
	h-2.46v1.71h2.46v0c0.44,0,0.85,0.18,1.16,0.5c0.31,0.32,0.48,0.76,0.48,1.21v4.29c0,0.91,0.35,1.78,0.96,2.42
	c0.62,0.64,1.45,1,2.32,1h2.46v-1.71L27.46,28.43z"/>
</svg>
